<svg xmlns:xlink="http://www.w3.org/1999/xlink" xmlns="http://www.w3.org/2000/svg" version="1.1" width="958" height="500" style="direction: ltr;"><defs><clipPath id="highcharts-15"><rect rx="0" ry="0" fill="none" x="0" y="0" width="418" height="843" stroke-width="0.000001"></rect></clipPath></defs><rect rx="5" ry="5" fill="#ffffff" x="0" y="0" width="958" height="500" stroke-width="0.000001" stroke="#d3d3d3"></rect><rect rx="0" ry="0" fill="#ffffff" x="105" y="40" width="843" height="418" stroke-width="0.000001"></rect><rect rx="5" ry="5" fill="none" x="-5" y="-5" width="10" height="10" stroke-width="0.000001" border="0"></rect><text x="479" y="25" style="font-family:'lucida grande', 'lucida sans unicode', verdana, arial, helvetica, sans-serif;font-size:16px;color:#000000;font:normal 15px arial;font-weight:normal;text-decoration:none;width:600px;fill:#000000;" text-anchor="middle" class="highcharts-title" ><tspan x="479">E2 : Temperature - Percent, 2014.07</tspan></text><g class="highcharts-grid" ></g><g class="highcharts-grid" ></g><g class="highcharts-series-group" ><g class="highcharts-series" width="843" height="418" transform="translate(948,458) rotate(90) scale(-1,1)" clip-path="url(#highcharts-15)" visibility="visible"><rect rx="0" ry="0" fill="#C48189" x="410" y="329" width="3" height="514" stroke-width="0.000001" stroke="#FFFFFF" r="0"></rect><rect rx="0" ry="0" fill="#C48189" x="399" y="279" width="3" height="564" stroke-width="0.000001" stroke="#FFFFFF" r="0"></rect><rect rx="0" ry="0" fill="#C48189" x="389" y="329" width="3" height="514" stroke-width="0.000001" stroke="#FFFFFF" r="0"></rect><rect rx="0" ry="0" fill="#C48189" x="378" y="515" width="3" height="328" stroke-width="0.000001" stroke="#FFFFFF" r="0"></rect><rect rx="0" ry="0" fill="#C48189" x="367" y="279" width="3" height="564" stroke-width="0.000001" stroke="#FFFFFF" r="0"></rect><rect rx="0" ry="0" fill="#C48189" x="357" y="355" width="3" height="488" stroke-width="0.000001" stroke="#FFFFFF" r="0"></rect><rect rx="0" ry="0" fill="#C48189" x="346" y="119" width="3" height="724" stroke-width="0.000001" stroke="#FFFFFF" r="0"></rect><rect rx="0" ry="0" fill="#C48189" x="335" y="237" width="3" height="606" stroke-width="0.000001" stroke="#FFFFFF" r="0"></rect><rect rx="0" ry="0" fill="#C48189" x="324" y="119" width="3" height="724" stroke-width="0.000001" stroke="#FFFFFF" r="0"></rect><rect rx="0" ry="0" fill="#C48189" x="314" y="237" width="3" height="606" stroke-width="0.000001" stroke="#FFFFFF" r="0"></rect><rect rx="0" ry="0" fill="#C48189" x="303" y="329" width="3" height="514" stroke-width="0.000001" stroke="#FFFFFF" r="0"></rect><rect rx="0" ry="0" fill="#C48189" x="292" y="397" width="3" height="446" stroke-width="0.000001" stroke="#FFFFFF" r="0"></rect><rect rx="0" ry="0" fill="#C48189" x="282" y="279" width="3" height="564" stroke-width="0.000001" stroke="#FFFFFF" r="0"></rect><rect rx="0" ry="0" fill="#C48189" x="271" y="329" width="3" height="514" stroke-width="0.000001" stroke="#FFFFFF" r="0"></rect><rect rx="0" ry="0" fill="#C48189" x="260" y="473" width="3" height="370" stroke-width="0.000001" stroke="#FFFFFF" r="0"></rect><rect rx="0" ry="0" fill="#C48189" x="249" y="237" width="3" height="606" stroke-width="0.000001" stroke="#FFFFFF" r="0"></rect><rect rx="0" ry="0" fill="#C48189" x="239" y="237" width="3" height="606" stroke-width="0.000001" stroke="#FFFFFF" r="0"></rect><rect rx="0" ry="0" fill="#C48189" x="228" y="473" width="3" height="370" stroke-width="0.000001" stroke="#FFFFFF" r="0"></rect><rect rx="0" ry="0" fill="#C48189" x="217" y="607" width="3" height="236" stroke-width="0.000001" stroke="#FFFFFF" r="0"></rect><rect rx="0" ry="0" fill="#C48189" x="207" y="93" width="3" height="750" stroke-width="0.000001" stroke="#FFFFFF" r="0"></rect><rect rx="0" ry="0" fill="#C48189" x="196" y="51" width="3" height="792" stroke-width="0.000001" stroke="#FFFFFF" r="0"></rect><rect rx="0" ry="0" fill="#C48189" x="185" y="607" width="3" height="236" stroke-width="0.000001" stroke="#FFFFFF" r="0"></rect><rect rx="0" ry="0" fill="#C48189" x="174" y="279" width="3" height="564" stroke-width="0.000001" stroke="#FFFFFF" r="0"></rect><rect rx="0" ry="0" fill="#C48189" x="164" y="329" width="3" height="514" stroke-width="0.000001" stroke="#FFFFFF" r="0"></rect><rect rx="0" ry="0" fill="#C48189" x="153" y="515" width="3" height="328" stroke-width="0.000001" stroke="#FFFFFF" r="0"></rect><rect rx="0" ry="0" fill="#C48189" x="142" y="51" width="3" height="792" stroke-width="0.000001" stroke="#FFFFFF" r="0"></rect><rect rx="0" ry="0" fill="#C48189" x="132" y="565" width="3" height="278" stroke-width="0.000001" stroke="#FFFFFF" r="0"></rect><rect rx="0" ry="0" fill="#C48189" x="121" y="565" width="3" height="278" stroke-width="0.000001" stroke="#FFFFFF" r="0"></rect><rect rx="0" ry="0" fill="#C48189" x="110" y="237" width="3" height="606" stroke-width="0.000001" stroke="#FFFFFF" r="0"></rect><rect rx="0" ry="0" fill="#C48189" x="99" y="237" width="3" height="606" stroke-width="0.000001" stroke="#FFFFFF" r="0"></rect><rect rx="0" ry="0" fill="#C48189" x="89" y="237" width="3" height="606" stroke-width="0.000001" stroke="#FFFFFF" r="0"></rect><rect rx="0" ry="0" fill="#C48189" x="78" y="279" width="3" height="564" stroke-width="0.000001" stroke="#FFFFFF" r="0"></rect><rect rx="0" ry="0" fill="#C48189" x="67" y="329" width="3" height="514" stroke-width="0.000001" stroke="#FFFFFF" r="0"></rect><rect rx="0" ry="0" fill="#C48189" x="57" y="793" width="3" height="50" stroke-width="0.000001" stroke="#FFFFFF" r="0"></rect><rect rx="0" ry="0" fill="#C48189" x="46" y="371" width="3" height="472" stroke-width="0.000001" stroke="#FFFFFF" r="0"></rect><rect rx="0" ry="0" fill="#C48189" x="35" y="565" width="3" height="278" stroke-width="0.000001" stroke="#FFFFFF" r="0"></rect><rect rx="0" ry="0" fill="#C48189" x="24" y="93" width="3" height="750" stroke-width="0.000001" stroke="#FFFFFF" r="0"></rect><rect rx="0" ry="0" fill="#C48189" x="14" y="237" width="3" height="606" stroke-width="0.000001" stroke="#FFFFFF" r="0"></rect><rect rx="0" ry="0" fill="#C48189" x="3" y="211" width="3" height="632" stroke-width="0.000001" stroke="#FFFFFF" r="0"></rect></g></g><text x="20" y="500" style="font-family:'lucida grande', 'lucida sans unicode', verdana, arial, helvetica, sans-serif;font-size:12px;color:#4572a7;font:normal 10px arial;font-weight:normal;text-decoration:none;fill:#4572a7;" ><tspan x="20"> </tspan></text><text x="50" y="50" style="font-family:'lucida grande', 'lucida sans unicode', verdana, arial, helvetica, sans-serif;font-size:12px;color:#4572a7;font:normal 10px arial;font-weight:normal;text-decoration:none;fill:#4572a7;" ><tspan x="50"> </tspan></text><g class="highcharts-axis" ><text x="95" y="45.35897435897437" style="font-family:'lucida grande', 'lucida sans unicode', verdana, arial, helvetica, sans-serif;font-size:11px;width:100px;color:#050000;line-height:14px;font:normal 11px arial;font-weight:normal;text-decoration:none;fill:#050000;" text-anchor="end"><tspan x="95">Araria</tspan></text><text x="95" y="56.0769230769231" style="font-family:'lucida grande', 'lucida sans unicode', verdana, arial, helvetica, sans-serif;font-size:11px;width:100px;color:#050000;line-height:14px;font:normal 11px arial;font-weight:normal;text-decoration:none;fill:#050000;" text-anchor="end"><tspan x="95">Arwal</tspan></text><text x="95" y="66.79487179487177" style="font-family:'lucida grande', 'lucida sans unicode', verdana, arial, helvetica, sans-serif;font-size:11px;width:100px;color:#050000;line-height:14px;font:normal 11px arial;font-weight:normal;text-decoration:none;fill:#050000;" text-anchor="end"><tspan x="95">Aurangaabad</tspan></text><text x="95" y="77.5128205128205" style="font-family:'lucida grande', 'lucida sans unicode', verdana, arial, helvetica, sans-serif;font-size:11px;width:100px;color:#050000;line-height:14px;font:normal 11px arial;font-weight:normal;text-decoration:none;fill:#050000;" text-anchor="end"><tspan x="95">Banka</tspan></text><text x="95" y="88.23076923076923" style="font-family:'lucida grande', 'lucida sans unicode', verdana, arial, helvetica, sans-serif;font-size:11px;width:100px;color:#050000;line-height:14px;font:normal 11px arial;font-weight:normal;text-decoration:none;fill:#050000;" text-anchor="end"><tspan x="95">Begusarai</tspan></text><text x="95" y="98.94871794871796" style="font-family:'lucida grande', 'lucida sans unicode', verdana, arial, helvetica, sans-serif;font-size:11px;width:100px;color:#050000;line-height:14px;font:normal 11px arial;font-weight:normal;text-decoration:none;fill:#050000;" text-anchor="end"><tspan x="95">Bhagalpur</tspan></text><text x="95" y="109.66666666666663" style="font-family:'lucida grande', 'lucida sans unicode', verdana, arial, helvetica, sans-serif;font-size:11px;width:100px;color:#050000;line-height:14px;font:normal 11px arial;font-weight:normal;text-decoration:none;fill:#050000;" text-anchor="end"><tspan x="95">Bhojpur</tspan></text><text x="95" y="120.38461538461536" style="font-family:'lucida grande', 'lucida sans unicode', verdana, arial, helvetica, sans-serif;font-size:11px;width:100px;color:#050000;line-height:14px;font:normal 11px arial;font-weight:normal;text-decoration:none;fill:#050000;" text-anchor="end"><tspan x="95">Buxar</tspan></text><text x="95" y="131.1025641025641" style="font-family:'lucida grande', 'lucida sans unicode', verdana, arial, helvetica, sans-serif;font-size:11px;width:100px;color:#050000;line-height:14px;font:normal 11px arial;font-weight:normal;text-decoration:none;fill:#050000;" text-anchor="end"><tspan x="95">Champaran East</tspan></text><text x="95" y="141.82051282051282" style="font-family:'lucida grande', 'lucida sans unicode', verdana, arial, helvetica, sans-serif;font-size:11px;width:100px;color:#050000;line-height:14px;font:normal 11px arial;font-weight:normal;text-decoration:none;fill:#050000;" text-anchor="end"><tspan x="95">Champaran West</tspan></text><text x="95" y="152.53846153846155" style="font-family:'lucida grande', 'lucida sans unicode', verdana, arial, helvetica, sans-serif;font-size:11px;width:100px;color:#050000;line-height:14px;font:normal 11px arial;font-weight:normal;text-decoration:none;fill:#050000;" text-anchor="end"><tspan x="95">DVS</tspan></text><text x="95" y="163.25641025641028" style="font-family:'lucida grande', 'lucida sans unicode', verdana, arial, helvetica, sans-serif;font-size:11px;width:100px;color:#050000;line-height:14px;font:normal 11px arial;font-weight:normal;text-decoration:none;fill:#050000;" text-anchor="end"><tspan x="95">Darbhanga</tspan></text><text x="95" y="173.97435897435895" style="font-family:'lucida grande', 'lucida sans unicode', verdana, arial, helvetica, sans-serif;font-size:11px;width:100px;color:#050000;line-height:14px;font:normal 11px arial;font-weight:normal;text-decoration:none;fill:#050000;" text-anchor="end"><tspan x="95">Gaya</tspan></text><text x="95" y="184.69230769230768" style="font-family:'lucida grande', 'lucida sans unicode', verdana, arial, helvetica, sans-serif;font-size:11px;width:100px;color:#050000;line-height:14px;font:normal 11px arial;font-weight:normal;text-decoration:none;fill:#050000;" text-anchor="end"><tspan x="95">Gopalganj</tspan></text><text x="95" y="195.41025641025635" style="font-family:'lucida grande', 'lucida sans unicode', verdana, arial, helvetica, sans-serif;font-size:11px;width:100px;color:#050000;line-height:14px;font:normal 11px arial;font-weight:normal;text-decoration:none;fill:#050000;" text-anchor="end"><tspan x="95">Jamui</tspan></text><text x="95" y="206.1282051282051" style="font-family:'lucida grande', 'lucida sans unicode', verdana, arial, helvetica, sans-serif;font-size:11px;width:100px;color:#050000;line-height:14px;font:normal 11px arial;font-weight:normal;text-decoration:none;fill:#050000;" text-anchor="end"><tspan x="95">Jehanabad</tspan></text><text x="95" y="216.8461538461538" style="font-family:'lucida grande', 'lucida sans unicode', verdana, arial, helvetica, sans-serif;font-size:11px;width:100px;color:#050000;line-height:14px;font:normal 11px arial;font-weight:normal;text-decoration:none;fill:#050000;" text-anchor="end"><tspan x="95">Kaimur</tspan></text><text x="95" y="227.56410256410254" style="font-family:'lucida grande', 'lucida sans unicode', verdana, arial, helvetica, sans-serif;font-size:11px;width:100px;color:#050000;line-height:14px;font:normal 11px arial;font-weight:normal;text-decoration:none;fill:#050000;" text-anchor="end"><tspan x="95">Katihar</tspan></text><text x="95" y="238.28205128205127" style="font-family:'lucida grande', 'lucida sans unicode', verdana, arial, helvetica, sans-serif;font-size:11px;width:100px;color:#050000;line-height:14px;font:normal 11px arial;font-weight:normal;text-decoration:none;fill:#050000;" text-anchor="end"><tspan x="95">Khagaria</tspan></text><text x="95" y="249" style="font-family:'lucida grande', 'lucida sans unicode', verdana, arial, helvetica, sans-serif;font-size:11px;width:100px;color:#050000;line-height:14px;font:normal 11px arial;font-weight:normal;text-decoration:none;fill:#050000;" text-anchor="end"><tspan x="95">Kishanganj</tspan></text><text x="95" y="259.71794871794873" style="font-family:'lucida grande', 'lucida sans unicode', verdana, arial, helvetica, sans-serif;font-size:11px;width:100px;color:#050000;line-height:14px;font:normal 11px arial;font-weight:normal;text-decoration:none;fill:#050000;" text-anchor="end"><tspan x="95">Lakhisarai</tspan></text><text x="95" y="270.4358974358974" style="font-family:'lucida grande', 'lucida sans unicode', verdana, arial, helvetica, sans-serif;font-size:11px;width:100px;color:#050000;line-height:14px;font:normal 11px arial;font-weight:normal;text-decoration:none;fill:#050000;" text-anchor="end"><tspan x="95">Madhepura</tspan></text><text x="95" y="281.15384615384613" style="font-family:'lucida grande', 'lucida sans unicode', verdana, arial, helvetica, sans-serif;font-size:11px;width:100px;color:#050000;line-height:14px;font:normal 11px arial;font-weight:normal;text-decoration:none;fill:#050000;" text-anchor="end"><tspan x="95">Madhubani</tspan></text><text x="95" y="291.87179487179486" style="font-family:'lucida grande', 'lucida sans unicode', verdana, arial, helvetica, sans-serif;font-size:11px;width:100px;color:#050000;line-height:14px;font:normal 11px arial;font-weight:normal;text-decoration:none;fill:#050000;" text-anchor="end"><tspan x="95">Munger</tspan></text><text x="95" y="302.5897435897436" style="font-family:'lucida grande', 'lucida sans unicode', verdana, arial, helvetica, sans-serif;font-size:11px;width:100px;color:#050000;line-height:14px;font:normal 11px arial;font-weight:normal;text-decoration:none;fill:#050000;" text-anchor="end"><tspan x="95">Muzaffarpur</tspan></text><text x="95" y="313.30769230769226" style="font-family:'lucida grande', 'lucida sans unicode', verdana, arial, helvetica, sans-serif;font-size:11px;width:100px;color:#050000;line-height:14px;font:normal 11px arial;font-weight:normal;text-decoration:none;fill:#050000;" text-anchor="end"><tspan x="95">Nalanda</tspan></text><text x="95" y="324.025641025641" style="font-family:'lucida grande', 'lucida sans unicode', verdana, arial, helvetica, sans-serif;font-size:11px;width:100px;color:#050000;line-height:14px;font:normal 11px arial;font-weight:normal;text-decoration:none;fill:#050000;" text-anchor="end"><tspan x="95">Nawada</tspan></text><text x="95" y="334.7435897435897" style="font-family:'lucida grande', 'lucida sans unicode', verdana, arial, helvetica, sans-serif;font-size:11px;width:100px;color:#050000;line-height:14px;font:normal 11px arial;font-weight:normal;text-decoration:none;fill:#050000;" text-anchor="end"><tspan x="95">Patna</tspan></text><text x="95" y="345.46153846153845" style="font-family:'lucida grande', 'lucida sans unicode', verdana, arial, helvetica, sans-serif;font-size:11px;width:100px;color:#050000;line-height:14px;font:normal 11px arial;font-weight:normal;text-decoration:none;fill:#050000;" text-anchor="end"><tspan x="95">Purnia</tspan></text><text x="95" y="356.1794871794871" style="font-family:'lucida grande', 'lucida sans unicode', verdana, arial, helvetica, sans-serif;font-size:11px;width:100px;color:#050000;line-height:14px;font:normal 11px arial;font-weight:normal;text-decoration:none;fill:#050000;" text-anchor="end"><tspan x="95">Rohtas</tspan></text><text x="95" y="366.89743589743586" style="font-family:'lucida grande', 'lucida sans unicode', verdana, arial, helvetica, sans-serif;font-size:11px;width:100px;color:#050000;line-height:14px;font:normal 11px arial;font-weight:normal;text-decoration:none;fill:#050000;" text-anchor="end"><tspan x="95">Saharsa</tspan></text><text x="95" y="377.6153846153846" style="font-family:'lucida grande', 'lucida sans unicode', verdana, arial, helvetica, sans-serif;font-size:11px;width:100px;color:#050000;line-height:14px;font:normal 11px arial;font-weight:normal;text-decoration:none;fill:#050000;" text-anchor="end"><tspan x="95">Samastipur</tspan></text><text x="95" y="388.3333333333333" style="font-family:'lucida grande', 'lucida sans unicode', verdana, arial, helvetica, sans-serif;font-size:11px;width:100px;color:#050000;line-height:14px;font:normal 11px arial;font-weight:normal;text-decoration:none;fill:#050000;" text-anchor="end"><tspan x="95">Saran</tspan></text><text x="95" y="399.05128205128204" style="font-family:'lucida grande', 'lucida sans unicode', verdana, arial, helvetica, sans-serif;font-size:11px;width:100px;color:#050000;line-height:14px;font:normal 11px arial;font-weight:normal;text-decoration:none;fill:#050000;" text-anchor="end"><tspan x="95">Sheikhpura</tspan></text><text x="95" y="409.7692307692307" style="font-family:'lucida grande', 'lucida sans unicode', verdana, arial, helvetica, sans-serif;font-size:11px;width:100px;color:#050000;line-height:14px;font:normal 11px arial;font-weight:normal;text-decoration:none;fill:#050000;" text-anchor="end"><tspan x="95">Sheohar</tspan></text><text x="95" y="420.48717948717945" style="font-family:'lucida grande', 'lucida sans unicode', verdana, arial, helvetica, sans-serif;font-size:11px;width:100px;color:#050000;line-height:14px;font:normal 11px arial;font-weight:normal;text-decoration:none;fill:#050000;" text-anchor="end"><tspan x="95">Sitamarhi</tspan></text><text x="95" y="431.2051282051282" style="font-family:'lucida grande', 'lucida sans unicode', verdana, arial, helvetica, sans-serif;font-size:11px;width:100px;color:#050000;line-height:14px;font:normal 11px arial;font-weight:normal;text-decoration:none;fill:#050000;" text-anchor="end"><tspan x="95">Siwan</tspan></text><text x="95" y="441.9230769230769" style="font-family:'lucida grande', 'lucida sans unicode', verdana, arial, helvetica, sans-serif;font-size:11px;width:100px;color:#050000;line-height:14px;font:normal 11px arial;font-weight:normal;text-decoration:none;fill:#050000;" text-anchor="end"><tspan x="95">Supaul</tspan></text><text x="95" y="452.6410256410256" style="font-family:'lucida grande', 'lucida sans unicode', verdana, arial, helvetica, sans-serif;font-size:11px;width:100px;color:#050000;line-height:14px;font:normal 11px arial;font-weight:normal;text-decoration:none;fill:#050000;" text-anchor="end"><tspan x="95">Vaishali</tspan></text><path d="M 105 51.5 L 100 51.5" fill="none" stroke="#C0D0E0" stroke-width="1"></path><path d="M 105 61.5 L 100 61.5" fill="none" stroke="#C0D0E0" stroke-width="1"></path><path d="M 105 72.5 L 100 72.5" fill="none" stroke="#C0D0E0" stroke-width="1"></path><path d="M 105 83.5 L 100 83.5" fill="none" stroke="#C0D0E0" stroke-width="1"></path><path d="M 105 94.5 L 100 94.5" fill="none" stroke="#C0D0E0" stroke-width="1"></path><path d="M 105 104.5 L 100 104.5" fill="none" stroke="#C0D0E0" stroke-width="1"></path><path d="M 105 115.5 L 100 115.5" fill="none" stroke="#C0D0E0" stroke-width="1"></path><path d="M 105 126.5 L 100 126.5" fill="none" stroke="#C0D0E0" stroke-width="1"></path><path d="M 105 136.5 L 100 136.5" fill="none" stroke="#C0D0E0" stroke-width="1"></path><path d="M 105 147.5 L 100 147.5" fill="none" stroke="#C0D0E0" stroke-width="1"></path><path d="M 105 158.5 L 100 158.5" fill="none" stroke="#C0D0E0" stroke-width="1"></path><path d="M 105 169.5 L 100 169.5" fill="none" stroke="#C0D0E0" stroke-width="1"></path><path d="M 105 179.5 L 100 179.5" fill="none" stroke="#C0D0E0" stroke-width="1"></path><path d="M 105 190.5 L 100 190.5" fill="none" stroke="#C0D0E0" stroke-width="1"></path><path d="M 105 201.5 L 100 201.5" fill="none" stroke="#C0D0E0" stroke-width="1"></path><path d="M 105 211.5 L 100 211.5" fill="none" stroke="#C0D0E0" stroke-width="1"></path><path d="M 105 222.5 L 100 222.5" fill="none" stroke="#C0D0E0" stroke-width="1"></path><path d="M 105 233.5 L 100 233.5" fill="none" stroke="#C0D0E0" stroke-width="1"></path><path d="M 105 244.5 L 100 244.5" fill="none" stroke="#C0D0E0" stroke-width="1"></path><path d="M 105 254.5 L 100 254.5" fill="none" stroke="#C0D0E0" stroke-width="1"></path><path d="M 105 265.5 L 100 265.5" fill="none" stroke="#C0D0E0" stroke-width="1"></path><path d="M 105 276.5 L 100 276.5" fill="none" stroke="#C0D0E0" stroke-width="1"></path><path d="M 105 287.5 L 100 287.5" fill="none" stroke="#C0D0E0" stroke-width="1"></path><path d="M 105 297.5 L 100 297.5" fill="none" stroke="#C0D0E0" stroke-width="1"></path><path d="M 105 308.5 L 100 308.5" fill="none" stroke="#C0D0E0" stroke-width="1"></path><path d="M 105 319.5 L 100 319.5" fill="none" stroke="#C0D0E0" stroke-width="1"></path><path d="M 105 329.5 L 100 329.5" fill="none" stroke="#C0D0E0" stroke-width="1"></path><path d="M 105 340.5 L 100 340.5" fill="none" stroke="#C0D0E0" stroke-width="1"></path><path d="M 105 351.5 L 100 351.5" fill="none" stroke="#C0D0E0" stroke-width="1"></path><path d="M 105 362.5 L 100 362.5" fill="none" stroke="#C0D0E0" stroke-width="1"></path><path d="M 105 372.5 L 100 372.5" fill="none" stroke="#C0D0E0" stroke-width="1"></path><path d="M 105 383.5 L 100 383.5" fill="none" stroke="#C0D0E0" stroke-width="1"></path><path d="M 105 394.5 L 100 394.5" fill="none" stroke="#C0D0E0" stroke-width="1"></path><path d="M 105 404.5 L 100 404.5" fill="none" stroke="#C0D0E0" stroke-width="1"></path><path d="M 105 415.5 L 100 415.5" fill="none" stroke="#C0D0E0" stroke-width="1"></path><path d="M 105 426.5 L 100 426.5" fill="none" stroke="#C0D0E0" stroke-width="1"></path><path d="M 105 437.5 L 100 437.5" fill="none" stroke="#C0D0E0" stroke-width="1"></path><path d="M 105 447.5 L 100 447.5" fill="none" stroke="#C0D0E0" stroke-width="1"></path><path d="M 105 458.5 L 100 458.5" fill="none" stroke="#C0D0E0" stroke-width="1"></path></g><g class="highcharts-axis" ><text x="100" y="478" style="font-family:'lucida grande', 'lucida sans unicode', verdana, arial, helvetica, sans-serif;font-size:11px;color:#050000;line-height:14px;font:normal 11px arial;font-weight:normal;text-decoration:none;width:100px;fill:#050000;" text-anchor="start"><tspan x="100">0</tspan></text><text x="184.3" y="478" style="font-family:'lucida grande', 'lucida sans unicode', verdana, arial, helvetica, sans-serif;font-size:11px;color:#050000;line-height:14px;font:normal 11px arial;font-weight:normal;text-decoration:none;width:100px;fill:#050000;" text-anchor="start"><tspan x="184.3">10</tspan></text><text x="268.6" y="478" style="font-family:'lucida grande', 'lucida sans unicode', verdana, arial, helvetica, sans-serif;font-size:11px;color:#050000;line-height:14px;font:normal 11px arial;font-weight:normal;text-decoration:none;width:100px;fill:#050000;" text-anchor="start"><tspan x="268.6">20</tspan></text><text x="352.9" y="478" style="font-family:'lucida grande', 'lucida sans unicode', verdana, arial, helvetica, sans-serif;font-size:11px;color:#050000;line-height:14px;font:normal 11px arial;font-weight:normal;text-decoration:none;width:100px;fill:#050000;" text-anchor="start"><tspan x="352.9">30</tspan></text><text x="437.2" y="478" style="font-family:'lucida grande', 'lucida sans unicode', verdana, arial, helvetica, sans-serif;font-size:11px;color:#050000;line-height:14px;font:normal 11px arial;font-weight:normal;text-decoration:none;width:100px;fill:#050000;" text-anchor="start"><tspan x="437.2">40</tspan></text><text x="521.5" y="478" style="font-family:'lucida grande', 'lucida sans unicode', verdana, arial, helvetica, sans-serif;font-size:11px;color:#050000;line-height:14px;font:normal 11px arial;font-weight:normal;text-decoration:none;width:100px;fill:#050000;" text-anchor="start"><tspan x="521.5">50</tspan></text><text x="605.8" y="478" style="font-family:'lucida grande', 'lucida sans unicode', verdana, arial, helvetica, sans-serif;font-size:11px;color:#050000;line-height:14px;font:normal 11px arial;font-weight:normal;text-decoration:none;width:100px;fill:#050000;" text-anchor="start"><tspan x="605.8">60</tspan></text><text x="690.1" y="478" style="font-family:'lucida grande', 'lucida sans unicode', verdana, arial, helvetica, sans-serif;font-size:11px;color:#050000;line-height:14px;font:normal 11px arial;font-weight:normal;text-decoration:none;width:100px;fill:#050000;" text-anchor="start"><tspan x="690.1">70</tspan></text><text x="774.4" y="478" style="font-family:'lucida grande', 'lucida sans unicode', verdana, arial, helvetica, sans-serif;font-size:11px;color:#050000;line-height:14px;font:normal 11px arial;font-weight:normal;text-decoration:none;width:100px;fill:#050000;" text-anchor="start"><tspan x="774.4">80</tspan></text><text x="858.6999999999999" y="478" style="font-family:'lucida grande', 'lucida sans unicode', verdana, arial, helvetica, sans-serif;font-size:11px;color:#050000;line-height:14px;font:normal 11px arial;font-weight:normal;text-decoration:none;width:100px;fill:#050000;" text-anchor="start"><tspan x="858.6999999999999">90</tspan></text><text x="943" y="478" style="font-family:'lucida grande', 'lucida sans unicode', verdana, arial, helvetica, sans-serif;font-size:11px;color:#050000;line-height:14px;font:normal 11px arial;font-weight:normal;text-decoration:none;width:100px;fill:#050000;" text-anchor="start"><tspan x="943">100</tspan></text></g><path d="M 105.5 40 L 105.5 458" fill="none" stroke="#C0D0E0" stroke-width="1" ></path><path d="M 105 458.5 L 948 458.5" fill="none" stroke="#C0D0E0" stroke-width="1" ></path><g class="highcharts-tooltip"  visibility="hidden"><rect rx="5" ry="5" fill="none" x="7" y="7" width="0" height="0" stroke-width="5" fill-opacity="0.85"  stroke="rgb(0, 0, 0)" stroke-opacity="0.05" transform="translate(1,1)"></rect><rect rx="5" ry="5" fill="none" x="7" y="7" width="0" height="0" stroke-width="3" fill-opacity="0.85"  stroke="rgb(0, 0, 0)" stroke-opacity="0.1" transform="translate(1,1)"></rect><rect rx="5" ry="5" fill="none" x="7" y="7" width="0" height="0" stroke-width="1" fill-opacity="0.85"  stroke="rgb(0, 0, 0)" stroke-opacity="0.15000000000000002" transform="translate(1,1)"></rect><rect rx="5" ry="5" fill="rgb(255,255,255)" x="7" y="7" width="0" height="0" stroke-width="2" fill-opacity="0.85"></rect><text x="12" y="24" style="font-family:'lucida grande', 'lucida sans unicode', verdana, arial, helvetica, sans-serif;font-size:12px;color:#333333;padding:0;white-space:nowrap;width:500px;fill:#333333;" ><tspan x="12"> </tspan></text></g><text x="948" y="495" style="font-family:'lucida grande', 'lucida sans unicode', verdana, arial, helvetica, sans-serif;font-size:10px;cursor:pointer;color:#909090;fill:#909090;" text-anchor="end" ><tspan x="948"> </tspan></text><g class="highcharts-tracker"  transform="translate(948,458) rotate(90) scale(-1,1)" width="843" height="418"><rect rx="0" ry="0" fill="rgb(192,192,192)" x="410" y="329" width="3" height="514" stroke-width="0.000001"  fill-opacity="0.000001" visibility="visible"  style=""></rect><rect rx="0" ry="0" fill="rgb(192,192,192)" x="399" y="279" width="3" height="564" stroke-width="0.000001"  fill-opacity="0.000001" visibility="visible"  style=""></rect><rect rx="0" ry="0" fill="rgb(192,192,192)" x="389" y="329" width="3" height="514" stroke-width="0.000001"  fill-opacity="0.000001" visibility="visible"  style=""></rect><rect rx="0" ry="0" fill="rgb(192,192,192)" x="378" y="515" width="3" height="328" stroke-width="0.000001"  fill-opacity="0.000001" visibility="visible"  style=""></rect><rect rx="0" ry="0" fill="rgb(192,192,192)" x="367" y="279" width="3" height="564" stroke-width="0.000001"  fill-opacity="0.000001" visibility="visible"  style=""></rect><rect rx="0" ry="0" fill="rgb(192,192,192)" x="357" y="355" width="3" height="488" stroke-width="0.000001"  fill-opacity="0.000001" visibility="visible"  style=""></rect><rect rx="0" ry="0" fill="rgb(192,192,192)" x="346" y="119" width="3" height="724" stroke-width="0.000001"  fill-opacity="0.000001" visibility="visible"  style=""></rect><rect rx="0" ry="0" fill="rgb(192,192,192)" x="335" y="237" width="3" height="606" stroke-width="0.000001"  fill-opacity="0.000001" visibility="visible"  style=""></rect><rect rx="0" ry="0" fill="rgb(192,192,192)" x="324" y="119" width="3" height="724" stroke-width="0.000001"  fill-opacity="0.000001" visibility="visible"  style=""></rect><rect rx="0" ry="0" fill="rgb(192,192,192)" x="314" y="237" width="3" height="606" stroke-width="0.000001"  fill-opacity="0.000001" visibility="visible"  style=""></rect><rect rx="0" ry="0" fill="rgb(192,192,192)" x="303" y="329" width="3" height="514" stroke-width="0.000001"  fill-opacity="0.000001" visibility="visible"  style=""></rect><rect rx="0" ry="0" fill="rgb(192,192,192)" x="292" y="397" width="3" height="446" stroke-width="0.000001"  fill-opacity="0.000001" visibility="visible"  style=""></rect><rect rx="0" ry="0" fill="rgb(192,192,192)" x="282" y="279" width="3" height="564" stroke-width="0.000001"  fill-opacity="0.000001" visibility="visible"  style=""></rect><rect rx="0" ry="0" fill="rgb(192,192,192)" x="271" y="329" width="3" height="514" stroke-width="0.000001"  fill-opacity="0.000001" visibility="visible"  style=""></rect><rect rx="0" ry="0" fill="rgb(192,192,192)" x="260" y="473" width="3" height="370" stroke-width="0.000001"  fill-opacity="0.000001" visibility="visible"  style=""></rect><rect rx="0" ry="0" fill="rgb(192,192,192)" x="249" y="237" width="3" height="606" stroke-width="0.000001"  fill-opacity="0.000001" visibility="visible"  style=""></rect><rect rx="0" ry="0" fill="rgb(192,192,192)" x="239" y="237" width="3" height="606" stroke-width="0.000001"  fill-opacity="0.000001" visibility="visible"  style=""></rect><rect rx="0" ry="0" fill="rgb(192,192,192)" x="228" y="473" width="3" height="370" stroke-width="0.000001"  fill-opacity="0.000001" visibility="visible"  style=""></rect><rect rx="0" ry="0" fill="rgb(192,192,192)" x="217" y="607" width="3" height="236" stroke-width="0.000001"  fill-opacity="0.000001" visibility="visible"  style=""></rect><rect rx="0" ry="0" fill="rgb(192,192,192)" x="207" y="93" width="3" height="750" stroke-width="0.000001"  fill-opacity="0.000001" visibility="visible"  style=""></rect><rect rx="0" ry="0" fill="rgb(192,192,192)" x="196" y="51" width="3" height="792" stroke-width="0.000001"  fill-opacity="0.000001" visibility="visible"  style=""></rect><rect rx="0" ry="0" fill="rgb(192,192,192)" x="185" y="607" width="3" height="236" stroke-width="0.000001"  fill-opacity="0.000001" visibility="visible"  style=""></rect><rect rx="0" ry="0" fill="rgb(192,192,192)" x="174" y="279" width="3" height="564" stroke-width="0.000001"  fill-opacity="0.000001" visibility="visible"  style=""></rect><rect rx="0" ry="0" fill="rgb(192,192,192)" x="164" y="329" width="3" height="514" stroke-width="0.000001"  fill-opacity="0.000001" visibility="visible"  style=""></rect><rect rx="0" ry="0" fill="rgb(192,192,192)" x="153" y="515" width="3" height="328" stroke-width="0.000001"  fill-opacity="0.000001" visibility="visible"  style=""></rect><rect rx="0" ry="0" fill="rgb(192,192,192)" x="142" y="51" width="3" height="792" stroke-width="0.000001"  fill-opacity="0.000001" visibility="visible"  style=""></rect><rect rx="0" ry="0" fill="rgb(192,192,192)" x="132" y="565" width="3" height="278" stroke-width="0.000001"  fill-opacity="0.000001" visibility="visible"  style=""></rect><rect rx="0" ry="0" fill="rgb(192,192,192)" x="121" y="565" width="3" height="278" stroke-width="0.000001"  fill-opacity="0.000001" visibility="visible"  style=""></rect><rect rx="0" ry="0" fill="rgb(192,192,192)" x="110" y="237" width="3" height="606" stroke-width="0.000001"  fill-opacity="0.000001" visibility="visible"  style=""></rect><rect rx="0" ry="0" fill="rgb(192,192,192)" x="99" y="237" width="3" height="606" stroke-width="0.000001"  fill-opacity="0.000001" visibility="visible"  style=""></rect><rect rx="0" ry="0" fill="rgb(192,192,192)" x="89" y="237" width="3" height="606" stroke-width="0.000001"  fill-opacity="0.000001" visibility="visible"  style=""></rect><rect rx="0" ry="0" fill="rgb(192,192,192)" x="78" y="279" width="3" height="564" stroke-width="0.000001"  fill-opacity="0.000001" visibility="visible"  style=""></rect><rect rx="0" ry="0" fill="rgb(192,192,192)" x="67" y="329" width="3" height="514" stroke-width="0.000001"  fill-opacity="0.000001" visibility="visible"  style=""></rect><rect rx="0" ry="0" fill="rgb(192,192,192)" x="57" y="793" width="3" height="50" stroke-width="0.000001"  fill-opacity="0.000001" visibility="visible"  style=""></rect><rect rx="0" ry="0" fill="rgb(192,192,192)" x="46" y="371" width="3" height="472" stroke-width="0.000001"  fill-opacity="0.000001" visibility="visible"  style=""></rect><rect rx="0" ry="0" fill="rgb(192,192,192)" x="35" y="565" width="3" height="278" stroke-width="0.000001"  fill-opacity="0.000001" visibility="visible"  style=""></rect><rect rx="0" ry="0" fill="rgb(192,192,192)" x="24" y="93" width="3" height="750" stroke-width="0.000001"  fill-opacity="0.000001" visibility="visible"  style=""></rect><rect rx="0" ry="0" fill="rgb(192,192,192)" x="14" y="237" width="3" height="606" stroke-width="0.000001"  fill-opacity="0.000001" visibility="visible"  style=""></rect><rect rx="0" ry="0" fill="rgb(192,192,192)" x="3" y="211" width="3" height="632" stroke-width="0.000001"  fill-opacity="0.000001" visibility="visible"  style=""></rect></g></svg>