<svg xmlns:xlink="http://www.w3.org/1999/xlink" xmlns="http://www.w3.org/2000/svg" version="1.1" width="958" height="500" style="direction: ltr;"><defs><clipPath id="highcharts-9"><rect rx="0" ry="0" fill="none" x="0" y="0" width="910" height="345" stroke-width="0.000001"></rect></clipPath></defs><rect rx="5" ry="5" fill="#FFFFFF" x="0" y="0" width="958" height="500" stroke-width="0.000001" stroke="#d3d3d3"></rect><rect rx="0" ry="0" fill="#ffffff" x="38" y="40" width="910" height="345" stroke-width="0.000001"></rect><rect rx="5" ry="5" fill="none" x="-5" y="-5" width="10" height="10" stroke-width="0.000001" border="0"></rect><text x="479" y="25" style="font-family:'lucida grande', 'lucida sans unicode', verdana, arial, helvetica, sans-serif;font-size:16px;color:#000000;font:normal 15px arial;font-weight:normal;text-decoration:none;width:600px;fill:#000000;" text-anchor="middle" class="highcharts-title" ><tspan x="479">E2 : Temperature - Percent, 2014.07</tspan></text><g class="highcharts-grid" ></g><g class="highcharts-grid" ></g><g class="highcharts-series-group" ><g class="highcharts-series" clip-path="url(#highcharts-9)" visibility="visible" transform="translate(38,40)"><path d="M 11.666666666666666 134.54999999999998 L 35 113.85 L 58.33333333333333 134.54999999999998 L 81.66666666666666 210.45 L 105 113.85 L 128.33333333333331 144.89999999999998 L 151.66666666666666 48.30000000000001 L 175 96.6 L 198.33333333333331 48.30000000000001 L 221.66666666666666 96.6 L 245 134.54999999999998 L 268.3333333333333 162.14999999999998 L 291.66666666666663 113.85 L 315 134.54999999999998 L 338.3333333333333 193.2 L 361.66666666666663 96.6 L 385 96.6 L 408.3333333333333 193.2 L 431.66666666666663 248.39999999999998 L 455 37.94999999999999 L 478.3333333333333 20.69999999999999 L 501.66666666666663 248.39999999999998 L 525 113.85 L 548.3333333333333 134.54999999999998 L 571.6666666666666 210.45 L 595 20.69999999999999 L 618.3333333333333 231.14999999999998 L 641.6666666666666 231.14999999999998 L 665 96.6 L 688.3333333333333 96.6 L 711.6666666666666 96.6 L 735 113.85 L 758.3333333333333 134.54999999999998 L 781.6666666666666 324.3 L 805 151.79999999999998 L 828.3333333333333 231.14999999999998 L 851.6666666666666 37.94999999999999 L 875 96.6 L 898.3333333333333 86.25" fill="none" stroke="#827B60" stroke-width="2"></path><circle cx="898.3333333333333" cy="86.25" r="3" stroke="#FFFFFF" stroke-width="1" fill="#827B60"></circle><circle cx="875" cy="96.6" r="3" stroke="#FFFFFF" stroke-width="1" fill="#827B60"></circle><circle cx="851.6666666666666" cy="37.94999999999999" r="3" stroke="#FFFFFF" stroke-width="1" fill="#827B60"></circle><circle cx="828.3333333333333" cy="231.14999999999998" r="3" stroke="#FFFFFF" stroke-width="1" fill="#827B60"></circle><circle cx="805" cy="151.79999999999998" r="3" stroke="#FFFFFF" stroke-width="1" fill="#827B60"></circle><circle cx="781.6666666666666" cy="324.3" r="3" stroke="#FFFFFF" stroke-width="1" fill="#827B60"></circle><circle cx="758.3333333333333" cy="134.54999999999998" r="3" stroke="#FFFFFF" stroke-width="1" fill="#827B60"></circle><circle cx="735" cy="113.85" r="3" stroke="#FFFFFF" stroke-width="1" fill="#827B60"></circle><circle cx="711.6666666666666" cy="96.6" r="3" stroke="#FFFFFF" stroke-width="1" fill="#827B60"></circle><circle cx="688.3333333333333" cy="96.6" r="3" stroke="#FFFFFF" stroke-width="1" fill="#827B60"></circle><circle cx="665" cy="96.6" r="3" stroke="#FFFFFF" stroke-width="1" fill="#827B60"></circle><circle cx="641.6666666666666" cy="231.14999999999998" r="3" stroke="#FFFFFF" stroke-width="1" fill="#827B60"></circle><circle cx="618.3333333333333" cy="231.14999999999998" r="3" stroke="#FFFFFF" stroke-width="1" fill="#827B60"></circle><circle cx="595" cy="20.69999999999999" r="3" stroke="#FFFFFF" stroke-width="1" fill="#827B60"></circle><circle cx="571.6666666666666" cy="210.45" r="3" stroke="#FFFFFF" stroke-width="1" fill="#827B60"></circle><circle cx="548.3333333333333" cy="134.54999999999998" r="3" stroke="#FFFFFF" stroke-width="1" fill="#827B60"></circle><circle cx="525" cy="113.85" r="3" stroke="#FFFFFF" stroke-width="1" fill="#827B60"></circle><circle cx="501.66666666666663" cy="248.39999999999998" r="3" stroke="#FFFFFF" stroke-width="1" fill="#827B60"></circle><circle cx="478.3333333333333" cy="20.69999999999999" r="3" stroke="#FFFFFF" stroke-width="1" fill="#827B60"></circle><circle cx="455" cy="37.94999999999999" r="3" stroke="#FFFFFF" stroke-width="1" fill="#827B60"></circle><circle cx="431.66666666666663" cy="248.39999999999998" r="3" stroke="#FFFFFF" stroke-width="1" fill="#827B60"></circle><circle cx="408.3333333333333" cy="193.2" r="3" stroke="#FFFFFF" stroke-width="1" fill="#827B60"></circle><circle cx="385" cy="96.6" r="3" stroke="#FFFFFF" stroke-width="1" fill="#827B60"></circle><circle cx="361.66666666666663" cy="96.6" r="3" stroke="#FFFFFF" stroke-width="1" fill="#827B60"></circle><circle cx="338.3333333333333" cy="193.2" r="3" stroke="#FFFFFF" stroke-width="1" fill="#827B60"></circle><circle cx="315" cy="134.54999999999998" r="3" stroke="#FFFFFF" stroke-width="1" fill="#827B60"></circle><circle cx="291.66666666666663" cy="113.85" r="3" stroke="#FFFFFF" stroke-width="1" fill="#827B60"></circle><circle cx="268.3333333333333" cy="162.14999999999998" r="3" stroke="#FFFFFF" stroke-width="1" fill="#827B60"></circle><circle cx="245" cy="134.54999999999998" r="3" stroke="#FFFFFF" stroke-width="1" fill="#827B60"></circle><circle cx="221.66666666666666" cy="96.6" r="3" stroke="#FFFFFF" stroke-width="1" fill="#827B60"></circle><circle cx="198.33333333333331" cy="48.30000000000001" r="3" stroke="#FFFFFF" stroke-width="1" fill="#827B60"></circle><circle cx="175" cy="96.6" r="3" stroke="#FFFFFF" stroke-width="1" fill="#827B60"></circle><circle cx="151.66666666666666" cy="48.30000000000001" r="3" stroke="#FFFFFF" stroke-width="1" fill="#827B60"></circle><circle cx="128.33333333333331" cy="144.89999999999998" r="3" stroke="#FFFFFF" stroke-width="1" fill="#827B60"></circle><circle cx="105" cy="113.85" r="3" stroke="#FFFFFF" stroke-width="1" fill="#827B60"></circle><circle cx="81.66666666666666" cy="210.45" r="3" stroke="#FFFFFF" stroke-width="1" fill="#827B60"></circle><circle cx="58.33333333333333" cy="134.54999999999998" r="3" stroke="#FFFFFF" stroke-width="1" fill="#827B60"></circle><circle cx="35" cy="113.85" r="3" stroke="#FFFFFF" stroke-width="1" fill="#827B60"></circle><circle cx="11.666666666666666" cy="134.54999999999998" r="3" stroke="#FFFFFF" stroke-width="1" fill="#827B60"></circle></g></g><text x="20" y="500" style="font-family:'lucida grande', 'lucida sans unicode', verdana, arial, helvetica, sans-serif;font-size:12px;color:#4572a7;font:normal 10px arial;font-weight:normal;text-decoration:none;fill:#4572a7;" ><tspan x="20"> </tspan></text><text x="50" y="50" style="font-family:'lucida grande', 'lucida sans unicode', verdana, arial, helvetica, sans-serif;font-size:12px;color:#4572a7;font:normal 10px arial;font-weight:normal;text-decoration:none;fill:#4572a7;" ><tspan x="50"> </tspan></text><g class="highcharts-axis" ><text x="49.666666666666664" y="405" style="font-family:'lucida grande', 'lucida sans unicode', verdana, arial, helvetica, sans-serif;font-size:11px;color:#000000;line-height:14px;font:normal 11px arial;font-weight:normal;text-decoration:none;width:100px;fill:#000000;" text-anchor="end" transform="rotate(270 49.666666666666664 405)"><tspan x="49.666666666666664">Araria</tspan></text><text x="72.99999999999999" y="405" style="font-family:'lucida grande', 'lucida sans unicode', verdana, arial, helvetica, sans-serif;font-size:11px;color:#000000;line-height:14px;font:normal 11px arial;font-weight:normal;text-decoration:none;width:100px;fill:#000000;" text-anchor="end" transform="rotate(270 72.99999999999999 405)"><tspan x="72.99999999999999">Arwal</tspan></text><text x="96.33333333333333" y="405" style="font-family:'lucida grande', 'lucida sans unicode', verdana, arial, helvetica, sans-serif;font-size:11px;color:#000000;line-height:14px;font:normal 11px arial;font-weight:normal;text-decoration:none;width:100px;fill:#000000;" text-anchor="end" transform="rotate(270 96.33333333333333 405)"><tspan x="96.33333333333333">Aurangaabad</tspan></text><text x="119.66666666666664" y="405" style="font-family:'lucida grande', 'lucida sans unicode', verdana, arial, helvetica, sans-serif;font-size:11px;color:#000000;line-height:14px;font:normal 11px arial;font-weight:normal;text-decoration:none;width:100px;fill:#000000;" text-anchor="end" transform="rotate(270 119.66666666666664 405)"><tspan x="119.66666666666664">Banka</tspan></text><text x="143" y="405" style="font-family:'lucida grande', 'lucida sans unicode', verdana, arial, helvetica, sans-serif;font-size:11px;color:#000000;line-height:14px;font:normal 11px arial;font-weight:normal;text-decoration:none;width:100px;fill:#000000;" text-anchor="end" transform="rotate(270 143 405)"><tspan x="143">Begusarai</tspan></text><text x="166.33333333333334" y="405" style="font-family:'lucida grande', 'lucida sans unicode', verdana, arial, helvetica, sans-serif;font-size:11px;color:#000000;line-height:14px;font:normal 11px arial;font-weight:normal;text-decoration:none;width:100px;fill:#000000;" text-anchor="end" transform="rotate(270 166.33333333333334 405)"><tspan x="166.33333333333334">Bhagalpur</tspan></text><text x="189.66666666666666" y="405" style="font-family:'lucida grande', 'lucida sans unicode', verdana, arial, helvetica, sans-serif;font-size:11px;color:#000000;line-height:14px;font:normal 11px arial;font-weight:normal;text-decoration:none;width:100px;fill:#000000;" text-anchor="end" transform="rotate(270 189.66666666666666 405)"><tspan x="189.66666666666666">Bhojpur</tspan></text><text x="213" y="405" style="font-family:'lucida grande', 'lucida sans unicode', verdana, arial, helvetica, sans-serif;font-size:11px;color:#000000;line-height:14px;font:normal 11px arial;font-weight:normal;text-decoration:none;width:100px;fill:#000000;" text-anchor="end" transform="rotate(270 213 405)"><tspan x="213">Buxar</tspan></text><text x="236.33333333333334" y="405" style="font-family:'lucida grande', 'lucida sans unicode', verdana, arial, helvetica, sans-serif;font-size:11px;color:#000000;line-height:14px;font:normal 11px arial;font-weight:normal;text-decoration:none;width:100px;fill:#000000;" text-anchor="end" transform="rotate(270 236.33333333333334 405)"><tspan x="236.33333333333334">Champaran East</tspan></text><text x="259.66666666666663" y="405" style="font-family:'lucida grande', 'lucida sans unicode', verdana, arial, helvetica, sans-serif;font-size:11px;color:#000000;line-height:14px;font:normal 11px arial;font-weight:normal;text-decoration:none;width:100px;fill:#000000;" text-anchor="end" transform="rotate(270 259.66666666666663 405)"><tspan x="259.66666666666663">Champaran West</tspan></text><text x="282.99999999999994" y="405" style="font-family:'lucida grande', 'lucida sans unicode', verdana, arial, helvetica, sans-serif;font-size:11px;color:#000000;line-height:14px;font:normal 11px arial;font-weight:normal;text-decoration:none;width:100px;fill:#000000;" text-anchor="end" transform="rotate(270 282.99999999999994 405)"><tspan x="282.99999999999994">DVS</tspan></text><text x="306.3333333333333" y="405" style="font-family:'lucida grande', 'lucida sans unicode', verdana, arial, helvetica, sans-serif;font-size:11px;color:#000000;line-height:14px;font:normal 11px arial;font-weight:normal;text-decoration:none;width:100px;fill:#000000;" text-anchor="end" transform="rotate(270 306.3333333333333 405)"><tspan x="306.3333333333333">Darbhanga</tspan></text><text x="329.66666666666663" y="405" style="font-family:'lucida grande', 'lucida sans unicode', verdana, arial, helvetica, sans-serif;font-size:11px;color:#000000;line-height:14px;font:normal 11px arial;font-weight:normal;text-decoration:none;width:100px;fill:#000000;" text-anchor="end" transform="rotate(270 329.66666666666663 405)"><tspan x="329.66666666666663">Gaya</tspan></text><text x="352.99999999999994" y="405" style="font-family:'lucida grande', 'lucida sans unicode', verdana, arial, helvetica, sans-serif;font-size:11px;color:#000000;line-height:14px;font:normal 11px arial;font-weight:normal;text-decoration:none;width:100px;fill:#000000;" text-anchor="end" transform="rotate(270 352.99999999999994 405)"><tspan x="352.99999999999994">Gopalganj</tspan></text><text x="376.3333333333333" y="405" style="font-family:'lucida grande', 'lucida sans unicode', verdana, arial, helvetica, sans-serif;font-size:11px;color:#000000;line-height:14px;font:normal 11px arial;font-weight:normal;text-decoration:none;width:100px;fill:#000000;" text-anchor="end" transform="rotate(270 376.3333333333333 405)"><tspan x="376.3333333333333">Jamui</tspan></text><text x="399.66666666666663" y="405" style="font-family:'lucida grande', 'lucida sans unicode', verdana, arial, helvetica, sans-serif;font-size:11px;color:#000000;line-height:14px;font:normal 11px arial;font-weight:normal;text-decoration:none;width:100px;fill:#000000;" text-anchor="end" transform="rotate(270 399.66666666666663 405)"><tspan x="399.66666666666663">Jehanabad</tspan></text><text x="422.99999999999994" y="405" style="font-family:'lucida grande', 'lucida sans unicode', verdana, arial, helvetica, sans-serif;font-size:11px;color:#000000;line-height:14px;font:normal 11px arial;font-weight:normal;text-decoration:none;width:100px;fill:#000000;" text-anchor="end" transform="rotate(270 422.99999999999994 405)"><tspan x="422.99999999999994">Kaimur</tspan></text><text x="446.3333333333333" y="405" style="font-family:'lucida grande', 'lucida sans unicode', verdana, arial, helvetica, sans-serif;font-size:11px;color:#000000;line-height:14px;font:normal 11px arial;font-weight:normal;text-decoration:none;width:100px;fill:#000000;" text-anchor="end" transform="rotate(270 446.3333333333333 405)"><tspan x="446.3333333333333">Katihar</tspan></text><text x="469.66666666666663" y="405" style="font-family:'lucida grande', 'lucida sans unicode', verdana, arial, helvetica, sans-serif;font-size:11px;color:#000000;line-height:14px;font:normal 11px arial;font-weight:normal;text-decoration:none;width:100px;fill:#000000;" text-anchor="end" transform="rotate(270 469.66666666666663 405)"><tspan x="469.66666666666663">Khagaria</tspan></text><text x="492.99999999999994" y="405" style="font-family:'lucida grande', 'lucida sans unicode', verdana, arial, helvetica, sans-serif;font-size:11px;color:#000000;line-height:14px;font:normal 11px arial;font-weight:normal;text-decoration:none;width:100px;fill:#000000;" text-anchor="end" transform="rotate(270 492.99999999999994 405)"><tspan x="492.99999999999994">Kishanganj</tspan></text><text x="516.3333333333334" y="405" style="font-family:'lucida grande', 'lucida sans unicode', verdana, arial, helvetica, sans-serif;font-size:11px;color:#000000;line-height:14px;font:normal 11px arial;font-weight:normal;text-decoration:none;width:100px;fill:#000000;" text-anchor="end" transform="rotate(270 516.3333333333334 405)"><tspan x="516.3333333333334">Lakhisarai</tspan></text><text x="539.6666666666666" y="405" style="font-family:'lucida grande', 'lucida sans unicode', verdana, arial, helvetica, sans-serif;font-size:11px;color:#000000;line-height:14px;font:normal 11px arial;font-weight:normal;text-decoration:none;width:100px;fill:#000000;" text-anchor="end" transform="rotate(270 539.6666666666666 405)"><tspan x="539.6666666666666">Madhepura</tspan></text><text x="563" y="405" style="font-family:'lucida grande', 'lucida sans unicode', verdana, arial, helvetica, sans-serif;font-size:11px;color:#000000;line-height:14px;font:normal 11px arial;font-weight:normal;text-decoration:none;width:100px;fill:#000000;" text-anchor="end" transform="rotate(270 563 405)"><tspan x="563">Madhubani</tspan></text><text x="586.3333333333334" y="405" style="font-family:'lucida grande', 'lucida sans unicode', verdana, arial, helvetica, sans-serif;font-size:11px;color:#000000;line-height:14px;font:normal 11px arial;font-weight:normal;text-decoration:none;width:100px;fill:#000000;" text-anchor="end" transform="rotate(270 586.3333333333334 405)"><tspan x="586.3333333333334">Munger</tspan></text><text x="609.6666666666666" y="405" style="font-family:'lucida grande', 'lucida sans unicode', verdana, arial, helvetica, sans-serif;font-size:11px;color:#000000;line-height:14px;font:normal 11px arial;font-weight:normal;text-decoration:none;width:100px;fill:#000000;" text-anchor="end" transform="rotate(270 609.6666666666666 405)"><tspan x="609.6666666666666">Muzaffarpur</tspan></text><text x="633" y="405" style="font-family:'lucida grande', 'lucida sans unicode', verdana, arial, helvetica, sans-serif;font-size:11px;color:#000000;line-height:14px;font:normal 11px arial;font-weight:normal;text-decoration:none;width:100px;fill:#000000;" text-anchor="end" transform="rotate(270 633 405)"><tspan x="633">Nalanda</tspan></text><text x="656.3333333333334" y="405" style="font-family:'lucida grande', 'lucida sans unicode', verdana, arial, helvetica, sans-serif;font-size:11px;color:#000000;line-height:14px;font:normal 11px arial;font-weight:normal;text-decoration:none;width:100px;fill:#000000;" text-anchor="end" transform="rotate(270 656.3333333333334 405)"><tspan x="656.3333333333334">Nawada</tspan></text><text x="679.6666666666666" y="405" style="font-family:'lucida grande', 'lucida sans unicode', verdana, arial, helvetica, sans-serif;font-size:11px;color:#000000;line-height:14px;font:normal 11px arial;font-weight:normal;text-decoration:none;width:100px;fill:#000000;" text-anchor="end" transform="rotate(270 679.6666666666666 405)"><tspan x="679.6666666666666">Patna</tspan></text><text x="703" y="405" style="font-family:'lucida grande', 'lucida sans unicode', verdana, arial, helvetica, sans-serif;font-size:11px;color:#000000;line-height:14px;font:normal 11px arial;font-weight:normal;text-decoration:none;width:100px;fill:#000000;" text-anchor="end" transform="rotate(270 703 405)"><tspan x="703">Purnia</tspan></text><text x="726.3333333333334" y="405" style="font-family:'lucida grande', 'lucida sans unicode', verdana, arial, helvetica, sans-serif;font-size:11px;color:#000000;line-height:14px;font:normal 11px arial;font-weight:normal;text-decoration:none;width:100px;fill:#000000;" text-anchor="end" transform="rotate(270 726.3333333333334 405)"><tspan x="726.3333333333334">Rohtas</tspan></text><text x="749.6666666666666" y="405" style="font-family:'lucida grande', 'lucida sans unicode', verdana, arial, helvetica, sans-serif;font-size:11px;color:#000000;line-height:14px;font:normal 11px arial;font-weight:normal;text-decoration:none;width:100px;fill:#000000;" text-anchor="end" transform="rotate(270 749.6666666666666 405)"><tspan x="749.6666666666666">Saharsa</tspan></text><text x="773" y="405" style="font-family:'lucida grande', 'lucida sans unicode', verdana, arial, helvetica, sans-serif;font-size:11px;color:#000000;line-height:14px;font:normal 11px arial;font-weight:normal;text-decoration:none;width:100px;fill:#000000;" text-anchor="end" transform="rotate(270 773 405)"><tspan x="773">Samastipur</tspan></text><text x="796.3333333333334" y="405" style="font-family:'lucida grande', 'lucida sans unicode', verdana, arial, helvetica, sans-serif;font-size:11px;color:#000000;line-height:14px;font:normal 11px arial;font-weight:normal;text-decoration:none;width:100px;fill:#000000;" text-anchor="end" transform="rotate(270 796.3333333333334 405)"><tspan x="796.3333333333334">Saran</tspan></text><text x="819.6666666666666" y="405" style="font-family:'lucida grande', 'lucida sans unicode', verdana, arial, helvetica, sans-serif;font-size:11px;color:#000000;line-height:14px;font:normal 11px arial;font-weight:normal;text-decoration:none;width:100px;fill:#000000;" text-anchor="end" transform="rotate(270 819.6666666666666 405)"><tspan x="819.6666666666666">Sheikhpura</tspan></text><text x="843" y="405" style="font-family:'lucida grande', 'lucida sans unicode', verdana, arial, helvetica, sans-serif;font-size:11px;color:#000000;line-height:14px;font:normal 11px arial;font-weight:normal;text-decoration:none;width:100px;fill:#000000;" text-anchor="end" transform="rotate(270 843 405)"><tspan x="843">Sheohar</tspan></text><text x="866.3333333333334" y="405" style="font-family:'lucida grande', 'lucida sans unicode', verdana, arial, helvetica, sans-serif;font-size:11px;color:#000000;line-height:14px;font:normal 11px arial;font-weight:normal;text-decoration:none;width:100px;fill:#000000;" text-anchor="end" transform="rotate(270 866.3333333333334 405)"><tspan x="866.3333333333334">Sitamarhi</tspan></text><text x="889.6666666666666" y="405" style="font-family:'lucida grande', 'lucida sans unicode', verdana, arial, helvetica, sans-serif;font-size:11px;color:#000000;line-height:14px;font:normal 11px arial;font-weight:normal;text-decoration:none;width:100px;fill:#000000;" text-anchor="end" transform="rotate(270 889.6666666666666 405)"><tspan x="889.6666666666666">Siwan</tspan></text><text x="913" y="405" style="font-family:'lucida grande', 'lucida sans unicode', verdana, arial, helvetica, sans-serif;font-size:11px;color:#000000;line-height:14px;font:normal 11px arial;font-weight:normal;text-decoration:none;width:100px;fill:#000000;" text-anchor="end" transform="rotate(270 913 405)"><tspan x="913">Supaul</tspan></text><text x="936.3333333333334" y="405" style="font-family:'lucida grande', 'lucida sans unicode', verdana, arial, helvetica, sans-serif;font-size:11px;color:#000000;line-height:14px;font:normal 11px arial;font-weight:normal;text-decoration:none;width:100px;fill:#000000;" text-anchor="end" transform="rotate(270 936.3333333333334 405)"><tspan x="936.3333333333334">Vaishali</tspan></text><path d="M 61.5 385 L 61.5 390" fill="none" stroke="#C0D0E0" stroke-width="1"></path><path d="M 85.5 385 L 85.5 390" fill="none" stroke="#C0D0E0" stroke-width="1"></path><path d="M 108.5 385 L 108.5 390" fill="none" stroke="#C0D0E0" stroke-width="1"></path><path d="M 131.5 385 L 131.5 390" fill="none" stroke="#C0D0E0" stroke-width="1"></path><path d="M 155.5 385 L 155.5 390" fill="none" stroke="#C0D0E0" stroke-width="1"></path><path d="M 178.5 385 L 178.5 390" fill="none" stroke="#C0D0E0" stroke-width="1"></path><path d="M 201.5 385 L 201.5 390" fill="none" stroke="#C0D0E0" stroke-width="1"></path><path d="M 225.5 385 L 225.5 390" fill="none" stroke="#C0D0E0" stroke-width="1"></path><path d="M 248.5 385 L 248.5 390" fill="none" stroke="#C0D0E0" stroke-width="1"></path><path d="M 271.5 385 L 271.5 390" fill="none" stroke="#C0D0E0" stroke-width="1"></path><path d="M 295.5 385 L 295.5 390" fill="none" stroke="#C0D0E0" stroke-width="1"></path><path d="M 318.5 385 L 318.5 390" fill="none" stroke="#C0D0E0" stroke-width="1"></path><path d="M 341.5 385 L 341.5 390" fill="none" stroke="#C0D0E0" stroke-width="1"></path><path d="M 365.5 385 L 365.5 390" fill="none" stroke="#C0D0E0" stroke-width="1"></path><path d="M 388.5 385 L 388.5 390" fill="none" stroke="#C0D0E0" stroke-width="1"></path><path d="M 411.5 385 L 411.5 390" fill="none" stroke="#C0D0E0" stroke-width="1"></path><path d="M 435.5 385 L 435.5 390" fill="none" stroke="#C0D0E0" stroke-width="1"></path><path d="M 458.5 385 L 458.5 390" fill="none" stroke="#C0D0E0" stroke-width="1"></path><path d="M 481.5 385 L 481.5 390" fill="none" stroke="#C0D0E0" stroke-width="1"></path><path d="M 505.5 385 L 505.5 390" fill="none" stroke="#C0D0E0" stroke-width="1"></path><path d="M 528.5 385 L 528.5 390" fill="none" stroke="#C0D0E0" stroke-width="1"></path><path d="M 551.5 385 L 551.5 390" fill="none" stroke="#C0D0E0" stroke-width="1"></path><path d="M 575.5 385 L 575.5 390" fill="none" stroke="#C0D0E0" stroke-width="1"></path><path d="M 598.5 385 L 598.5 390" fill="none" stroke="#C0D0E0" stroke-width="1"></path><path d="M 621.5 385 L 621.5 390" fill="none" stroke="#C0D0E0" stroke-width="1"></path><path d="M 645.5 385 L 645.5 390" fill="none" stroke="#C0D0E0" stroke-width="1"></path><path d="M 668.5 385 L 668.5 390" fill="none" stroke="#C0D0E0" stroke-width="1"></path><path d="M 691.5 385 L 691.5 390" fill="none" stroke="#C0D0E0" stroke-width="1"></path><path d="M 715.5 385 L 715.5 390" fill="none" stroke="#C0D0E0" stroke-width="1"></path><path d="M 738.5 385 L 738.5 390" fill="none" stroke="#C0D0E0" stroke-width="1"></path><path d="M 761.5 385 L 761.5 390" fill="none" stroke="#C0D0E0" stroke-width="1"></path><path d="M 785.5 385 L 785.5 390" fill="none" stroke="#C0D0E0" stroke-width="1"></path><path d="M 808.5 385 L 808.5 390" fill="none" stroke="#C0D0E0" stroke-width="1"></path><path d="M 831.5 385 L 831.5 390" fill="none" stroke="#C0D0E0" stroke-width="1"></path><path d="M 855.5 385 L 855.5 390" fill="none" stroke="#C0D0E0" stroke-width="1"></path><path d="M 878.5 385 L 878.5 390" fill="none" stroke="#C0D0E0" stroke-width="1"></path><path d="M 901.5 385 L 901.5 390" fill="none" stroke="#C0D0E0" stroke-width="1"></path><path d="M 925.5 385 L 925.5 390" fill="none" stroke="#C0D0E0" stroke-width="1"></path><path d="M 948.5 385 L 948.5 390" fill="none" stroke="#C0D0E0" stroke-width="1"></path></g><g class="highcharts-axis" ><text x="28" y="390" style="font-family:'lucida grande', 'lucida sans unicode', verdana, arial, helvetica, sans-serif;font-size:11px;width:100px;color:#000000;line-height:14px;font:normal 11px arial;font-weight:normal;text-decoration:none;fill:#000000;" text-anchor="end"><tspan x="28">0</tspan></text><text x="28" y="321" style="font-family:'lucida grande', 'lucida sans unicode', verdana, arial, helvetica, sans-serif;font-size:11px;width:100px;color:#000000;line-height:14px;font:normal 11px arial;font-weight:normal;text-decoration:none;fill:#000000;" text-anchor="end"><tspan x="28">20</tspan></text><text x="28" y="252" style="font-family:'lucida grande', 'lucida sans unicode', verdana, arial, helvetica, sans-serif;font-size:11px;width:100px;color:#000000;line-height:14px;font:normal 11px arial;font-weight:normal;text-decoration:none;fill:#000000;" text-anchor="end"><tspan x="28">40</tspan></text><text x="28" y="183" style="font-family:'lucida grande', 'lucida sans unicode', verdana, arial, helvetica, sans-serif;font-size:11px;width:100px;color:#000000;line-height:14px;font:normal 11px arial;font-weight:normal;text-decoration:none;fill:#000000;" text-anchor="end"><tspan x="28">60</tspan></text><text x="28" y="114" style="font-family:'lucida grande', 'lucida sans unicode', verdana, arial, helvetica, sans-serif;font-size:11px;width:100px;color:#000000;line-height:14px;font:normal 11px arial;font-weight:normal;text-decoration:none;fill:#000000;" text-anchor="end"><tspan x="28">80</tspan></text><text x="28" y="45" style="font-family:'lucida grande', 'lucida sans unicode', verdana, arial, helvetica, sans-serif;font-size:11px;width:100px;color:#000000;line-height:14px;font:normal 11px arial;font-weight:normal;text-decoration:none;fill:#000000;" text-anchor="end"><tspan x="28">100</tspan></text></g><path d="M 38 385.5 L 948 385.5" fill="none" stroke="#C0D0E0" stroke-width="1" ></path><path d="M 38.5 40 L 38.5 385" fill="none" stroke="#C0D0E0" stroke-width="1" ></path><g class="highcharts-tooltip"  visibility="hidden"><rect rx="5" ry="5" fill="none" x="7" y="7" width="0" height="0" stroke-width="5" fill-opacity="0.85"  stroke="rgb(0, 0, 0)" stroke-opacity="0.05" transform="translate(1,1)"></rect><rect rx="5" ry="5" fill="none" x="7" y="7" width="0" height="0" stroke-width="3" fill-opacity="0.85"  stroke="rgb(0, 0, 0)" stroke-opacity="0.1" transform="translate(1,1)"></rect><rect rx="5" ry="5" fill="none" x="7" y="7" width="0" height="0" stroke-width="1" fill-opacity="0.85"  stroke="rgb(0, 0, 0)" stroke-opacity="0.15000000000000002" transform="translate(1,1)"></rect><rect rx="5" ry="5" fill="rgb(255,255,255)" x="7" y="7" width="0" height="0" stroke-width="2" fill-opacity="0.85"></rect><text x="12" y="24" style="font-family:'lucida grande', 'lucida sans unicode', verdana, arial, helvetica, sans-serif;font-size:12px;color:#333333;padding:0;white-space:nowrap;width:500px;fill:#333333;" ><tspan x="12"> </tspan></text></g><text x="948" y="495" style="font-family:'lucida grande', 'lucida sans unicode', verdana, arial, helvetica, sans-serif;font-size:10px;cursor:pointer;color:#909090;fill:#909090;" text-anchor="end" ><tspan x="948"> </tspan></text><g class="highcharts-tracker"  transform="translate(38,40)"><path d="M 1.666666666666666 134.54999999999998 L 11.666666666666666 134.54999999999998 L 35 113.85 L 58.33333333333333 134.54999999999998 L 81.66666666666666 210.45 L 105 113.85 L 128.33333333333331 144.89999999999998 L 151.66666666666666 48.30000000000001 L 175 96.6 L 198.33333333333331 48.30000000000001 L 221.66666666666666 96.6 L 245 134.54999999999998 L 268.3333333333333 162.14999999999998 L 291.66666666666663 113.85 L 315 134.54999999999998 L 338.3333333333333 193.2 L 361.66666666666663 96.6 L 385 96.6 L 408.3333333333333 193.2 L 431.66666666666663 248.39999999999998 L 455 37.94999999999999 L 478.3333333333333 20.69999999999999 L 501.66666666666663 248.39999999999998 L 525 113.85 L 548.3333333333333 134.54999999999998 L 571.6666666666666 210.45 L 595 20.69999999999999 L 618.3333333333333 231.14999999999998 L 641.6666666666666 231.14999999999998 L 665 96.6 L 688.3333333333333 96.6 L 711.6666666666666 96.6 L 735 113.85 L 758.3333333333333 134.54999999999998 L 781.6666666666666 324.3 L 805 151.79999999999998 L 828.3333333333333 231.14999999999998 L 851.6666666666666 37.94999999999999 L 875 96.6 L 898.3333333333333 86.25 L 908.3333333333333 86.25" fill="none"  stroke-opacity="0.000001" stroke="rgb(192,192,192)" stroke-width="22" visibility="visible"  style=""></path></g></svg>