<svg xmlns:xlink="http://www.w3.org/1999/xlink" style="direction: ltr;" height="500" width="958" version="1.1" xmlns="http://www.w3.org/2000/svg"><defs><clipPath id="highcharts-12"><rect stroke-width="0" height="344" width="913" y="0" x="0" fill="none" ry="0" rx="0"></rect></clipPath></defs><rect stroke="#d3d3d3" stroke-width="0" height="500" width="958" y="0" x="0" fill="#ffffff" ry="5" rx="5"></rect><rect stroke-width="0" height="344" width="913" y="40" x="35" fill="#ffffff" ry="0" rx="0"></rect><rect border="0" stroke-width="0" height="10" width="10" y="-5" x="-5" fill="none" ry="5" rx="5"></rect><text  class="highcharts-title" text-anchor="middle" style="font-family:'lucida grande', 'lucida sans unicode', verdana, arial, helvetica, sans-serif;font-size:16px;color:#000000;font:normal 15px arial;font-weight:normal;text-decoration:none;width:600px;fill:#000000;" y="25" x="479"><tspan x="479">E0 : Overall score - Percent, 2014.07</tspan></text><g  class="highcharts-grid"><path  stroke-dasharray="none" stroke-width="1" stroke="#C0C0C0" fill="none" d="M 58.5 40 L 58.5 384"></path><path  stroke-dasharray="none" stroke-width="1" stroke="#C0C0C0" fill="none" d="M 82.5 40 L 82.5 384"></path><path  stroke-dasharray="none" stroke-width="1" stroke="#C0C0C0" fill="none" d="M 105.5 40 L 105.5 384"></path><path  stroke-dasharray="none" stroke-width="1" stroke="#C0C0C0" fill="none" d="M 129.5 40 L 129.5 384"></path><path  stroke-dasharray="none" stroke-width="1" stroke="#C0C0C0" fill="none" d="M 152.5 40 L 152.5 384"></path><path  stroke-dasharray="none" stroke-width="1" stroke="#C0C0C0" fill="none" d="M 175.5 40 L 175.5 384"></path><path  stroke-dasharray="none" stroke-width="1" stroke="#C0C0C0" fill="none" d="M 199.5 40 L 199.5 384"></path><path  stroke-dasharray="none" stroke-width="1" stroke="#C0C0C0" fill="none" d="M 222.5 40 L 222.5 384"></path><path  stroke-dasharray="none" stroke-width="1" stroke="#C0C0C0" fill="none" d="M 246.5 40 L 246.5 384"></path><path  stroke-dasharray="none" stroke-width="1" stroke="#C0C0C0" fill="none" d="M 269.5 40 L 269.5 384"></path><path  stroke-dasharray="none" stroke-width="1" stroke="#C0C0C0" fill="none" d="M 293.5 40 L 293.5 384"></path><path  stroke-dasharray="none" stroke-width="1" stroke="#C0C0C0" fill="none" d="M 316.5 40 L 316.5 384"></path><path  stroke-dasharray="none" stroke-width="1" stroke="#C0C0C0" fill="none" d="M 339.5 40 L 339.5 384"></path><path  stroke-dasharray="none" stroke-width="1" stroke="#C0C0C0" fill="none" d="M 363.5 40 L 363.5 384"></path><path  stroke-dasharray="none" stroke-width="1" stroke="#C0C0C0" fill="none" d="M 386.5 40 L 386.5 384"></path><path  stroke-dasharray="none" stroke-width="1" stroke="#C0C0C0" fill="none" d="M 410.5 40 L 410.5 384"></path><path  stroke-dasharray="none" stroke-width="1" stroke="#C0C0C0" fill="none" d="M 433.5 40 L 433.5 384"></path><path  stroke-dasharray="none" stroke-width="1" stroke="#C0C0C0" fill="none" d="M 456.5 40 L 456.5 384"></path><path  stroke-dasharray="none" stroke-width="1" stroke="#C0C0C0" fill="none" d="M 480.5 40 L 480.5 384"></path><path  stroke-dasharray="none" stroke-width="1" stroke="#C0C0C0" fill="none" d="M 503.5 40 L 503.5 384"></path><path  stroke-dasharray="none" stroke-width="1" stroke="#C0C0C0" fill="none" d="M 527.5 40 L 527.5 384"></path><path  stroke-dasharray="none" stroke-width="1" stroke="#C0C0C0" fill="none" d="M 550.5 40 L 550.5 384"></path><path  stroke-dasharray="none" stroke-width="1" stroke="#C0C0C0" fill="none" d="M 573.5 40 L 573.5 384"></path><path  stroke-dasharray="none" stroke-width="1" stroke="#C0C0C0" fill="none" d="M 597.5 40 L 597.5 384"></path><path  stroke-dasharray="none" stroke-width="1" stroke="#C0C0C0" fill="none" d="M 620.5 40 L 620.5 384"></path><path  stroke-dasharray="none" stroke-width="1" stroke="#C0C0C0" fill="none" d="M 644.5 40 L 644.5 384"></path><path  stroke-dasharray="none" stroke-width="1" stroke="#C0C0C0" fill="none" d="M 667.5 40 L 667.5 384"></path><path  stroke-dasharray="none" stroke-width="1" stroke="#C0C0C0" fill="none" d="M 690.5 40 L 690.5 384"></path><path  stroke-dasharray="none" stroke-width="1" stroke="#C0C0C0" fill="none" d="M 714.5 40 L 714.5 384"></path><path  stroke-dasharray="none" stroke-width="1" stroke="#C0C0C0" fill="none" d="M 737.5 40 L 737.5 384"></path><path  stroke-dasharray="none" stroke-width="1" stroke="#C0C0C0" fill="none" d="M 761.5 40 L 761.5 384"></path><path  stroke-dasharray="none" stroke-width="1" stroke="#C0C0C0" fill="none" d="M 784.5 40 L 784.5 384"></path><path  stroke-dasharray="none" stroke-width="1" stroke="#C0C0C0" fill="none" d="M 808.5 40 L 808.5 384"></path><path  stroke-dasharray="none" stroke-width="1" stroke="#C0C0C0" fill="none" d="M 831.5 40 L 831.5 384"></path><path  stroke-dasharray="none" stroke-width="1" stroke="#C0C0C0" fill="none" d="M 854.5 40 L 854.5 384"></path><path  stroke-dasharray="none" stroke-width="1" stroke="#C0C0C0" fill="none" d="M 878.5 40 L 878.5 384"></path><path  stroke-dasharray="none" stroke-width="1" stroke="#C0C0C0" fill="none" d="M 901.5 40 L 901.5 384"></path><path  stroke-dasharray="none" stroke-width="1" stroke="#C0C0C0" fill="none" d="M 925.5 40 L 925.5 384"></path><path  stroke-dasharray="none" stroke-width="1" stroke="#C0C0C0" fill="none" d="M 948.5 40 L 948.5 384"></path></g><g  class="highcharts-grid"><path stroke-dasharray="none" stroke-width="1" stroke="#E0E0E0" fill="none" d="M 35 384.5 L 948 384.5"></path><path stroke-dasharray="none" stroke-width="1" stroke="#E0E0E0" fill="none" d="M 35 374.5 L 948 374.5"></path><path stroke-dasharray="none" stroke-width="1" stroke="#E0E0E0" fill="none" d="M 35 364.5 L 948 364.5"></path><path stroke-dasharray="none" stroke-width="1" stroke="#E0E0E0" fill="none" d="M 35 355.5 L 948 355.5"></path><path stroke-dasharray="none" stroke-width="1" stroke="#E0E0E0" fill="none" d="M 35 345.5 L 948 345.5"></path><path stroke-dasharray="none" stroke-width="1" stroke="#E0E0E0" fill="none" d="M 35 335.5 L 948 335.5"></path><path stroke-dasharray="none" stroke-width="1" stroke="#E0E0E0" fill="none" d="M 35 325.5 L 948 325.5"></path><path stroke-dasharray="none" stroke-width="1" stroke="#E0E0E0" fill="none" d="M 35 315.5 L 948 315.5"></path><path stroke-dasharray="none" stroke-width="1" stroke="#E0E0E0" fill="none" d="M 35 305.5 L 948 305.5"></path><path stroke-dasharray="none" stroke-width="1" stroke="#E0E0E0" fill="none" d="M 35 296.5 L 948 296.5"></path><path stroke-dasharray="none" stroke-width="1" stroke="#E0E0E0" fill="none" d="M 35 286.5 L 948 286.5"></path><path stroke-dasharray="none" stroke-width="1" stroke="#E0E0E0" fill="none" d="M 35 276.5 L 948 276.5"></path><path stroke-dasharray="none" stroke-width="1" stroke="#E0E0E0" fill="none" d="M 35 266.5 L 948 266.5"></path><path stroke-dasharray="none" stroke-width="1" stroke="#E0E0E0" fill="none" d="M 35 256.5 L 948 256.5"></path><path stroke-dasharray="none" stroke-width="1" stroke="#E0E0E0" fill="none" d="M 35 246.5 L 948 246.5"></path><path stroke-dasharray="none" stroke-width="1" stroke="#E0E0E0" fill="none" d="M 35 237.5 L 948 237.5"></path><path stroke-dasharray="none" stroke-width="1" stroke="#E0E0E0" fill="none" d="M 35 227.5 L 948 227.5"></path><path stroke-dasharray="none" stroke-width="1" stroke="#E0E0E0" fill="none" d="M 35 217.5 L 948 217.5"></path><path stroke-dasharray="none" stroke-width="1" stroke="#E0E0E0" fill="none" d="M 35 207.5 L 948 207.5"></path><path stroke-dasharray="none" stroke-width="1" stroke="#E0E0E0" fill="none" d="M 35 197.5 L 948 197.5"></path><path stroke-dasharray="none" stroke-width="1" stroke="#E0E0E0" fill="none" d="M 35 187.5 L 948 187.5"></path><path stroke-dasharray="none" stroke-width="1" stroke="#E0E0E0" fill="none" d="M 35 178.5 L 948 178.5"></path><path stroke-dasharray="none" stroke-width="1" stroke="#E0E0E0" fill="none" d="M 35 168.5 L 948 168.5"></path><path stroke-dasharray="none" stroke-width="1" stroke="#E0E0E0" fill="none" d="M 35 158.5 L 948 158.5"></path><path stroke-dasharray="none" stroke-width="1" stroke="#E0E0E0" fill="none" d="M 35 148.5 L 948 148.5"></path><path stroke-dasharray="none" stroke-width="1" stroke="#E0E0E0" fill="none" d="M 35 138.5 L 948 138.5"></path><path stroke-dasharray="none" stroke-width="1" stroke="#E0E0E0" fill="none" d="M 35 128.5 L 948 128.5"></path><path stroke-dasharray="none" stroke-width="1" stroke="#E0E0E0" fill="none" d="M 35 119.5 L 948 119.5"></path><path stroke-dasharray="none" stroke-width="1" stroke="#E0E0E0" fill="none" d="M 35 109.5 L 948 109.5"></path><path stroke-dasharray="none" stroke-width="1" stroke="#E0E0E0" fill="none" d="M 35 99.5 L 948 99.5"></path><path stroke-dasharray="none" stroke-width="1" stroke="#E0E0E0" fill="none" d="M 35 89.5 L 948 89.5"></path><path stroke-dasharray="none" stroke-width="1" stroke="#E0E0E0" fill="none" d="M 35 79.5 L 948 79.5"></path><path stroke-dasharray="none" stroke-width="1" stroke="#E0E0E0" fill="none" d="M 35 69.5 L 948 69.5"></path><path stroke-dasharray="none" stroke-width="1" stroke="#E0E0E0" fill="none" d="M 35 60.5 L 948 60.5"></path><path stroke-dasharray="none" stroke-width="1" stroke="#E0E0E0" fill="none" d="M 35 50.5 L 948 50.5"></path><path stroke-dasharray="none" stroke-width="1" stroke="#E0E0E0" fill="none" d="M 35 40.5 L 948 40.5"></path><path  stroke-dasharray="none" stroke-width="1" stroke="#C0C0C0" fill="none" d="M 35 384.5 L 948 384.5"></path><path  stroke-dasharray="none" stroke-width="1" stroke="#C0C0C0" fill="none" d="M 35 335.5 L 948 335.5"></path><path  stroke-dasharray="none" stroke-width="1" stroke="#C0C0C0" fill="none" d="M 35 286.5 L 948 286.5"></path><path  stroke-dasharray="none" stroke-width="1" stroke="#C0C0C0" fill="none" d="M 35 237.5 L 948 237.5"></path><path  stroke-dasharray="none" stroke-width="1" stroke="#C0C0C0" fill="none" d="M 35 187.5 L 948 187.5"></path><path  stroke-dasharray="none" stroke-width="1" stroke="#C0C0C0" fill="none" d="M 35 138.5 L 948 138.5"></path><path  stroke-dasharray="none" stroke-width="1" stroke="#C0C0C0" fill="none" d="M 35 89.5 L 948 89.5"></path><path  stroke-dasharray="none" stroke-width="1" stroke="#C0C0C0" fill="none" d="M 35 40.5 L 948 40.5"></path></g><g  class="highcharts-series-group"><g transform="translate(35,40)" visibility="visible" clip-path="url(#highcharts-12)" class="highcharts-series"><path fill-opacity="0.75" fill="rgb(130,123,96)" d="M 11.705128205128204 157.25714285714284 L 35.11538461538461 132.68571428571428 L 58.52564102564102 108.1142857142857 L 81.93589743589743 147.42857142857142 L 105.34615384615384 127.77142857142854 L 128.75641025641025 103.19999999999999 L 152.16666666666666 54.05714285714282 L 175.57692307692307 88.45714285714286 L 198.98717948717947 103.19999999999999 L 222.39743589743588 127.77142857142854 L 245.8076923076923 117.94285714285712 L 269.21794871794873 58.97142857142853 L 292.6282051282051 108.1142857142857 L 316.03846153846155 181.82857142857142 L 339.4487179487179 93.37142857142857 L 362.85897435897436 78.62857142857143 L 386.2692307692307 73.71428571428572 L 409.6794871794872 122.85714285714283 L 433.08974358974353 191.65714285714284 L 456.5 157.25714285714284 L 479.91025641025635 78.62857142857143 L 503.3205128205128 147.42857142857142 L 526.7307692307692 83.54285714285714 L 550.1410256410256 113.02857142857141 L 573.551282051282 127.77142857142854 L 596.9615384615385 58.97142857142853 L 620.3717948717948 206.39999999999998 L 643.7820512820513 83.54285714285714 L 667.1923076923076 142.5142857142857 L 690.6025641025641 78.62857142857143 L 714.0128205128204 103.19999999999999 L 737.4230769230769 73.71428571428572 L 760.8333333333333 162.17142857142855 L 784.2435897435897 206.39999999999998 L 807.6538461538461 186.74285714285713 L 831.0641025641025 162.17142857142855 L 854.4743589743589 54.05714285714282 L 877.8846153846154 63.88571428571424 L 901.2948717948717 147.42857142857142 L 901.2948717948717 344 L 11.705128205128204 344"></path><path stroke-width="2" stroke="#827B60" fill="none" d="M 11.705128205128204 157.25714285714284 L 35.11538461538461 132.68571428571428 L 58.52564102564102 108.1142857142857 L 81.93589743589743 147.42857142857142 L 105.34615384615384 127.77142857142854 L 128.75641025641025 103.19999999999999 L 152.16666666666666 54.05714285714282 L 175.57692307692307 88.45714285714286 L 198.98717948717947 103.19999999999999 L 222.39743589743588 127.77142857142854 L 245.8076923076923 117.94285714285712 L 269.21794871794873 58.97142857142853 L 292.6282051282051 108.1142857142857 L 316.03846153846155 181.82857142857142 L 339.4487179487179 93.37142857142857 L 362.85897435897436 78.62857142857143 L 386.2692307692307 73.71428571428572 L 409.6794871794872 122.85714285714283 L 433.08974358974353 191.65714285714284 L 456.5 157.25714285714284 L 479.91025641025635 78.62857142857143 L 503.3205128205128 147.42857142857142 L 526.7307692307692 83.54285714285714 L 550.1410256410256 113.02857142857141 L 573.551282051282 127.77142857142854 L 596.9615384615385 58.97142857142853 L 620.3717948717948 206.39999999999998 L 643.7820512820513 83.54285714285714 L 667.1923076923076 142.5142857142857 L 690.6025641025641 78.62857142857143 L 714.0128205128204 103.19999999999999 L 737.4230769230769 73.71428571428572 L 760.8333333333333 162.17142857142855 L 784.2435897435897 206.39999999999998 L 807.6538461538461 186.74285714285713 L 831.0641025641025 162.17142857142855 L 854.4743589743589 54.05714285714282 L 877.8846153846154 63.88571428571424 L 901.2948717948717 147.42857142857142"></path><circle fill="#827B60" stroke-width="0" stroke="#FFFFFF" r="4" cy="147.42857142857142" cx="901.2948717948717"></circle><circle fill="#827B60" stroke-width="0" stroke="#FFFFFF" r="4" cy="63.88571428571424" cx="877.8846153846154"></circle><circle fill="#827B60" stroke-width="0" stroke="#FFFFFF" r="4" cy="54.05714285714282" cx="854.4743589743589"></circle><circle fill="#827B60" stroke-width="0" stroke="#FFFFFF" r="4" cy="162.17142857142855" cx="831.0641025641025"></circle><circle fill="#827B60" stroke-width="0" stroke="#FFFFFF" r="4" cy="186.74285714285713" cx="807.6538461538461"></circle><circle fill="#827B60" stroke-width="0" stroke="#FFFFFF" r="4" cy="206.39999999999998" cx="784.2435897435897"></circle><circle fill="#827B60" stroke-width="0" stroke="#FFFFFF" r="4" cy="162.17142857142855" cx="760.8333333333333"></circle><circle fill="#827B60" stroke-width="0" stroke="#FFFFFF" r="4" cy="73.71428571428572" cx="737.4230769230769"></circle><circle fill="#827B60" stroke-width="0" stroke="#FFFFFF" r="4" cy="103.19999999999999" cx="714.0128205128204"></circle><circle fill="#827B60" stroke-width="0" stroke="#FFFFFF" r="4" cy="78.62857142857143" cx="690.6025641025641"></circle><circle fill="#827B60" stroke-width="0" stroke="#FFFFFF" r="4" cy="142.5142857142857" cx="667.1923076923076"></circle><circle fill="#827B60" stroke-width="0" stroke="#FFFFFF" r="4" cy="83.54285714285714" cx="643.7820512820513"></circle><circle fill="#827B60" stroke-width="0" stroke="#FFFFFF" r="4" cy="206.39999999999998" cx="620.3717948717948"></circle><circle fill="#827B60" stroke-width="0" stroke="#FFFFFF" r="4" cy="58.97142857142853" cx="596.9615384615385"></circle><circle fill="#827B60" stroke-width="0" stroke="#FFFFFF" r="4" cy="127.77142857142854" cx="573.551282051282"></circle><circle fill="#827B60" stroke-width="0" stroke="#FFFFFF" r="4" cy="113.02857142857141" cx="550.1410256410256"></circle><circle fill="#827B60" stroke-width="0" stroke="#FFFFFF" r="4" cy="83.54285714285714" cx="526.7307692307692"></circle><circle fill="#827B60" stroke-width="0" stroke="#FFFFFF" r="4" cy="147.42857142857142" cx="503.3205128205128"></circle><circle fill="#827B60" stroke-width="0" stroke="#FFFFFF" r="4" cy="78.62857142857143" cx="479.91025641025635"></circle><circle fill="#827B60" stroke-width="0" stroke="#FFFFFF" r="4" cy="157.25714285714284" cx="456.5"></circle><circle fill="#827B60" stroke-width="0" stroke="#FFFFFF" r="4" cy="191.65714285714284" cx="433.08974358974353"></circle><circle fill="#827B60" stroke-width="0" stroke="#FFFFFF" r="4" cy="122.85714285714283" cx="409.6794871794872"></circle><circle fill="#827B60" stroke-width="0" stroke="#FFFFFF" r="4" cy="73.71428571428572" cx="386.2692307692307"></circle><circle fill="#827B60" stroke-width="0" stroke="#FFFFFF" r="4" cy="78.62857142857143" cx="362.85897435897436"></circle><circle fill="#827B60" stroke-width="0" stroke="#FFFFFF" r="4" cy="93.37142857142857" cx="339.4487179487179"></circle><circle fill="#827B60" stroke-width="0" stroke="#FFFFFF" r="4" cy="181.82857142857142" cx="316.03846153846155"></circle><circle fill="#827B60" stroke-width="0" stroke="#FFFFFF" r="4" cy="108.1142857142857" cx="292.6282051282051"></circle><circle fill="#827B60" stroke-width="0" stroke="#FFFFFF" r="4" cy="58.97142857142853" cx="269.21794871794873"></circle><circle fill="#827B60" stroke-width="0" stroke="#FFFFFF" r="4" cy="117.94285714285712" cx="245.8076923076923"></circle><circle fill="#827B60" stroke-width="0" stroke="#FFFFFF" r="4" cy="127.77142857142854" cx="222.39743589743588"></circle><circle fill="#827B60" stroke-width="0" stroke="#FFFFFF" r="4" cy="103.19999999999999" cx="198.98717948717947"></circle><circle fill="#827B60" stroke-width="0" stroke="#FFFFFF" r="4" cy="88.45714285714286" cx="175.57692307692307"></circle><circle fill="#827B60" stroke-width="0" stroke="#FFFFFF" r="4" cy="54.05714285714282" cx="152.16666666666666"></circle><circle fill="#827B60" stroke-width="0" stroke="#FFFFFF" r="4" cy="103.19999999999999" cx="128.75641025641025"></circle><circle fill="#827B60" stroke-width="0" stroke="#FFFFFF" r="4" cy="127.77142857142854" cx="105.34615384615384"></circle><circle fill="#827B60" stroke-width="0" stroke="#FFFFFF" r="4" cy="147.42857142857142" cx="81.93589743589743"></circle><circle fill="#827B60" stroke-width="0" stroke="#FFFFFF" r="4" cy="108.1142857142857" cx="58.52564102564102"></circle><circle fill="#827B60" stroke-width="0" stroke="#FFFFFF" r="4" cy="132.68571428571428" cx="35.11538461538461"></circle><circle fill="#827B60" stroke-width="0" stroke="#FFFFFF" r="4" cy="157.25714285714284" cx="11.705128205128204"></circle></g></g><text  style="font-family:'lucida grande', 'lucida sans unicode', verdana, arial, helvetica, sans-serif;font-size:12px;color:#4572a7;font:normal 10px arial;font-weight:normal;text-decoration:none;fill:#4572a7;" y="500" x="20"><tspan x="20"> </tspan></text><text  style="font-family:'lucida grande', 'lucida sans unicode', verdana, arial, helvetica, sans-serif;font-size:12px;color:#4572a7;font:normal 10px arial;font-weight:normal;text-decoration:none;fill:#4572a7;" y="50" x="50"><tspan x="50"> </tspan></text><g  class="highcharts-axis"><text transform="rotate(270 46.705128205128204 404)" text-anchor="end" style="font-family:'lucida grande', 'lucida sans unicode', verdana, arial, helvetica, sans-serif;font-size:11px;color:#030000;line-height:14px;font:normal 11px arial;font-weight:normal;text-decoration:none;width:100px;fill:#030000;" y="404" x="46.705128205128204"><tspan x="46.705128205128204">Araria</tspan></text><text transform="rotate(270 70.11538461538461 404)" text-anchor="end" style="font-family:'lucida grande', 'lucida sans unicode', verdana, arial, helvetica, sans-serif;font-size:11px;color:#030000;line-height:14px;font:normal 11px arial;font-weight:normal;text-decoration:none;width:100px;fill:#030000;" y="404" x="70.11538461538461"><tspan x="70.11538461538461">Arwal</tspan></text><text transform="rotate(270 93.52564102564102 404)" text-anchor="end" style="font-family:'lucida grande', 'lucida sans unicode', verdana, arial, helvetica, sans-serif;font-size:11px;color:#030000;line-height:14px;font:normal 11px arial;font-weight:normal;text-decoration:none;width:100px;fill:#030000;" y="404" x="93.52564102564102"><tspan x="93.52564102564102">Aurangaabad</tspan></text><text transform="rotate(270 116.93589743589743 404)" text-anchor="end" style="font-family:'lucida grande', 'lucida sans unicode', verdana, arial, helvetica, sans-serif;font-size:11px;color:#030000;line-height:14px;font:normal 11px arial;font-weight:normal;text-decoration:none;width:100px;fill:#030000;" y="404" x="116.93589743589743"><tspan x="116.93589743589743">Banka</tspan></text><text transform="rotate(270 140.34615384615384 404)" text-anchor="end" style="font-family:'lucida grande', 'lucida sans unicode', verdana, arial, helvetica, sans-serif;font-size:11px;color:#030000;line-height:14px;font:normal 11px arial;font-weight:normal;text-decoration:none;width:100px;fill:#030000;" y="404" x="140.34615384615384"><tspan x="140.34615384615384">Begusarai</tspan></text><text transform="rotate(270 163.75641025641025 404)" text-anchor="end" style="font-family:'lucida grande', 'lucida sans unicode', verdana, arial, helvetica, sans-serif;font-size:11px;color:#030000;line-height:14px;font:normal 11px arial;font-weight:normal;text-decoration:none;width:100px;fill:#030000;" y="404" x="163.75641025641025"><tspan x="163.75641025641025">Bhagalpur</tspan></text><text transform="rotate(270 187.16666666666666 404)" text-anchor="end" style="font-family:'lucida grande', 'lucida sans unicode', verdana, arial, helvetica, sans-serif;font-size:11px;color:#030000;line-height:14px;font:normal 11px arial;font-weight:normal;text-decoration:none;width:100px;fill:#030000;" y="404" x="187.16666666666666"><tspan x="187.16666666666666">Bhojpur</tspan></text><text transform="rotate(270 210.57692307692307 404)" text-anchor="end" style="font-family:'lucida grande', 'lucida sans unicode', verdana, arial, helvetica, sans-serif;font-size:11px;color:#030000;line-height:14px;font:normal 11px arial;font-weight:normal;text-decoration:none;width:100px;fill:#030000;" y="404" x="210.57692307692307"><tspan x="210.57692307692307">Buxar</tspan></text><text transform="rotate(270 233.98717948717947 404)" text-anchor="end" style="font-family:'lucida grande', 'lucida sans unicode', verdana, arial, helvetica, sans-serif;font-size:11px;color:#030000;line-height:14px;font:normal 11px arial;font-weight:normal;text-decoration:none;width:100px;fill:#030000;" y="404" x="233.98717948717947"><tspan x="233.98717948717947">Champaran East</tspan></text><text transform="rotate(270 257.3974358974359 404)" text-anchor="end" style="font-family:'lucida grande', 'lucida sans unicode', verdana, arial, helvetica, sans-serif;font-size:11px;color:#030000;line-height:14px;font:normal 11px arial;font-weight:normal;text-decoration:none;width:100px;fill:#030000;" y="404" x="257.3974358974359"><tspan x="257.3974358974359">Champaran West</tspan></text><text transform="rotate(270 280.80769230769226 404)" text-anchor="end" style="font-family:'lucida grande', 'lucida sans unicode', verdana, arial, helvetica, sans-serif;font-size:11px;color:#030000;line-height:14px;font:normal 11px arial;font-weight:normal;text-decoration:none;width:100px;fill:#030000;" y="404" x="280.80769230769226"><tspan x="280.80769230769226">DVS</tspan></text><text transform="rotate(270 304.21794871794873 404)" text-anchor="end" style="font-family:'lucida grande', 'lucida sans unicode', verdana, arial, helvetica, sans-serif;font-size:11px;color:#030000;line-height:14px;font:normal 11px arial;font-weight:normal;text-decoration:none;width:100px;fill:#030000;" y="404" x="304.21794871794873"><tspan x="304.21794871794873">Darbhanga</tspan></text><text transform="rotate(270 327.6282051282051 404)" text-anchor="end" style="font-family:'lucida grande', 'lucida sans unicode', verdana, arial, helvetica, sans-serif;font-size:11px;color:#030000;line-height:14px;font:normal 11px arial;font-weight:normal;text-decoration:none;width:100px;fill:#030000;" y="404" x="327.6282051282051"><tspan x="327.6282051282051">Gaya</tspan></text><text transform="rotate(270 351.03846153846155 404)" text-anchor="end" style="font-family:'lucida grande', 'lucida sans unicode', verdana, arial, helvetica, sans-serif;font-size:11px;color:#030000;line-height:14px;font:normal 11px arial;font-weight:normal;text-decoration:none;width:100px;fill:#030000;" y="404" x="351.03846153846155"><tspan x="351.03846153846155">Gopalganj</tspan></text><text transform="rotate(270 374.4487179487179 404)" text-anchor="end" style="font-family:'lucida grande', 'lucida sans unicode', verdana, arial, helvetica, sans-serif;font-size:11px;color:#030000;line-height:14px;font:normal 11px arial;font-weight:normal;text-decoration:none;width:100px;fill:#030000;" y="404" x="374.4487179487179"><tspan x="374.4487179487179">Jamui</tspan></text><text transform="rotate(270 397.85897435897436 404)" text-anchor="end" style="font-family:'lucida grande', 'lucida sans unicode', verdana, arial, helvetica, sans-serif;font-size:11px;color:#030000;line-height:14px;font:normal 11px arial;font-weight:normal;text-decoration:none;width:100px;fill:#030000;" y="404" x="397.85897435897436"><tspan x="397.85897435897436">Jehanabad</tspan></text><text transform="rotate(270 421.2692307692307 404)" text-anchor="end" style="font-family:'lucida grande', 'lucida sans unicode', verdana, arial, helvetica, sans-serif;font-size:11px;color:#030000;line-height:14px;font:normal 11px arial;font-weight:normal;text-decoration:none;width:100px;fill:#030000;" y="404" x="421.2692307692307"><tspan x="421.2692307692307">Kaimur</tspan></text><text transform="rotate(270 444.6794871794872 404)" text-anchor="end" style="font-family:'lucida grande', 'lucida sans unicode', verdana, arial, helvetica, sans-serif;font-size:11px;color:#030000;line-height:14px;font:normal 11px arial;font-weight:normal;text-decoration:none;width:100px;fill:#030000;" y="404" x="444.6794871794872"><tspan x="444.6794871794872">Katihar</tspan></text><text transform="rotate(270 468.08974358974353 404)" text-anchor="end" style="font-family:'lucida grande', 'lucida sans unicode', verdana, arial, helvetica, sans-serif;font-size:11px;color:#030000;line-height:14px;font:normal 11px arial;font-weight:normal;text-decoration:none;width:100px;fill:#030000;" y="404" x="468.08974358974353"><tspan x="468.08974358974353">Khagaria</tspan></text><text transform="rotate(270 491.5 404)" text-anchor="end" style="font-family:'lucida grande', 'lucida sans unicode', verdana, arial, helvetica, sans-serif;font-size:11px;color:#030000;line-height:14px;font:normal 11px arial;font-weight:normal;text-decoration:none;width:100px;fill:#030000;" y="404" x="491.5"><tspan x="491.5">Kishanganj</tspan></text><text transform="rotate(270 514.9102564102564 404)" text-anchor="end" style="font-family:'lucida grande', 'lucida sans unicode', verdana, arial, helvetica, sans-serif;font-size:11px;color:#030000;line-height:14px;font:normal 11px arial;font-weight:normal;text-decoration:none;width:100px;fill:#030000;" y="404" x="514.9102564102564"><tspan x="514.9102564102564">Lakhisarai</tspan></text><text transform="rotate(270 538.3205128205128 404)" text-anchor="end" style="font-family:'lucida grande', 'lucida sans unicode', verdana, arial, helvetica, sans-serif;font-size:11px;color:#030000;line-height:14px;font:normal 11px arial;font-weight:normal;text-decoration:none;width:100px;fill:#030000;" y="404" x="538.3205128205128"><tspan x="538.3205128205128">Madhepura</tspan></text><text transform="rotate(270 561.7307692307693 404)" text-anchor="end" style="font-family:'lucida grande', 'lucida sans unicode', verdana, arial, helvetica, sans-serif;font-size:11px;color:#030000;line-height:14px;font:normal 11px arial;font-weight:normal;text-decoration:none;width:100px;fill:#030000;" y="404" x="561.7307692307693"><tspan x="561.7307692307693">Madhubani</tspan></text><text transform="rotate(270 585.1410256410256 404)" text-anchor="end" style="font-family:'lucida grande', 'lucida sans unicode', verdana, arial, helvetica, sans-serif;font-size:11px;color:#030000;line-height:14px;font:normal 11px arial;font-weight:normal;text-decoration:none;width:100px;fill:#030000;" y="404" x="585.1410256410256"><tspan x="585.1410256410256">Munger</tspan></text><text transform="rotate(270 608.551282051282 404)" text-anchor="end" style="font-family:'lucida grande', 'lucida sans unicode', verdana, arial, helvetica, sans-serif;font-size:11px;color:#030000;line-height:14px;font:normal 11px arial;font-weight:normal;text-decoration:none;width:100px;fill:#030000;" y="404" x="608.551282051282"><tspan x="608.551282051282">Muzaffarpur</tspan></text><text transform="rotate(270 631.9615384615385 404)" text-anchor="end" style="font-family:'lucida grande', 'lucida sans unicode', verdana, arial, helvetica, sans-serif;font-size:11px;color:#030000;line-height:14px;font:normal 11px arial;font-weight:normal;text-decoration:none;width:100px;fill:#030000;" y="404" x="631.9615384615385"><tspan x="631.9615384615385">Nalanda</tspan></text><text transform="rotate(270 655.3717948717949 404)" text-anchor="end" style="font-family:'lucida grande', 'lucida sans unicode', verdana, arial, helvetica, sans-serif;font-size:11px;color:#030000;line-height:14px;font:normal 11px arial;font-weight:normal;text-decoration:none;width:100px;fill:#030000;" y="404" x="655.3717948717949"><tspan x="655.3717948717949">Nawada</tspan></text><text transform="rotate(270 678.7820512820513 404)" text-anchor="end" style="font-family:'lucida grande', 'lucida sans unicode', verdana, arial, helvetica, sans-serif;font-size:11px;color:#030000;line-height:14px;font:normal 11px arial;font-weight:normal;text-decoration:none;width:100px;fill:#030000;" y="404" x="678.7820512820513"><tspan x="678.7820512820513">Patna</tspan></text><text transform="rotate(270 702.1923076923076 404)" text-anchor="end" style="font-family:'lucida grande', 'lucida sans unicode', verdana, arial, helvetica, sans-serif;font-size:11px;color:#030000;line-height:14px;font:normal 11px arial;font-weight:normal;text-decoration:none;width:100px;fill:#030000;" y="404" x="702.1923076923076"><tspan x="702.1923076923076">Purnia</tspan></text><text transform="rotate(270 725.6025641025641 404)" text-anchor="end" style="font-family:'lucida grande', 'lucida sans unicode', verdana, arial, helvetica, sans-serif;font-size:11px;color:#030000;line-height:14px;font:normal 11px arial;font-weight:normal;text-decoration:none;width:100px;fill:#030000;" y="404" x="725.6025641025641"><tspan x="725.6025641025641">Rohtas</tspan></text><text transform="rotate(270 749.0128205128206 404)" text-anchor="end" style="font-family:'lucida grande', 'lucida sans unicode', verdana, arial, helvetica, sans-serif;font-size:11px;color:#030000;line-height:14px;font:normal 11px arial;font-weight:normal;text-decoration:none;width:100px;fill:#030000;" y="404" x="749.0128205128206"><tspan x="749.0128205128206">Saharsa</tspan></text><text transform="rotate(270 772.4230769230769 404)" text-anchor="end" style="font-family:'lucida grande', 'lucida sans unicode', verdana, arial, helvetica, sans-serif;font-size:11px;color:#030000;line-height:14px;font:normal 11px arial;font-weight:normal;text-decoration:none;width:100px;fill:#030000;" y="404" x="772.4230769230769"><tspan x="772.4230769230769">Samastipur</tspan></text><text transform="rotate(270 795.8333333333333 404)" text-anchor="end" style="font-family:'lucida grande', 'lucida sans unicode', verdana, arial, helvetica, sans-serif;font-size:11px;color:#030000;line-height:14px;font:normal 11px arial;font-weight:normal;text-decoration:none;width:100px;fill:#030000;" y="404" x="795.8333333333333"><tspan x="795.8333333333333">Saran</tspan></text><text transform="rotate(270 819.2435897435897 404)" text-anchor="end" style="font-family:'lucida grande', 'lucida sans unicode', verdana, arial, helvetica, sans-serif;font-size:11px;color:#030000;line-height:14px;font:normal 11px arial;font-weight:normal;text-decoration:none;width:100px;fill:#030000;" y="404" x="819.2435897435897"><tspan x="819.2435897435897">Sheikhpura</tspan></text><text transform="rotate(270 842.6538461538462 404)" text-anchor="end" style="font-family:'lucida grande', 'lucida sans unicode', verdana, arial, helvetica, sans-serif;font-size:11px;color:#030000;line-height:14px;font:normal 11px arial;font-weight:normal;text-decoration:none;width:100px;fill:#030000;" y="404" x="842.6538461538462"><tspan x="842.6538461538462">Sheohar</tspan></text><text transform="rotate(270 866.0641025641025 404)" text-anchor="end" style="font-family:'lucida grande', 'lucida sans unicode', verdana, arial, helvetica, sans-serif;font-size:11px;color:#030000;line-height:14px;font:normal 11px arial;font-weight:normal;text-decoration:none;width:100px;fill:#030000;" y="404" x="866.0641025641025"><tspan x="866.0641025641025">Sitamarhi</tspan></text><text transform="rotate(270 889.4743589743589 404)" text-anchor="end" style="font-family:'lucida grande', 'lucida sans unicode', verdana, arial, helvetica, sans-serif;font-size:11px;color:#030000;line-height:14px;font:normal 11px arial;font-weight:normal;text-decoration:none;width:100px;fill:#030000;" y="404" x="889.4743589743589"><tspan x="889.4743589743589">Siwan</tspan></text><text transform="rotate(270 912.8846153846154 404)" text-anchor="end" style="font-family:'lucida grande', 'lucida sans unicode', verdana, arial, helvetica, sans-serif;font-size:11px;color:#030000;line-height:14px;font:normal 11px arial;font-weight:normal;text-decoration:none;width:100px;fill:#030000;" y="404" x="912.8846153846154"><tspan x="912.8846153846154">Supaul</tspan></text><text transform="rotate(270 936.2948717948718 404)" text-anchor="end" style="font-family:'lucida grande', 'lucida sans unicode', verdana, arial, helvetica, sans-serif;font-size:11px;color:#030000;line-height:14px;font:normal 11px arial;font-weight:normal;text-decoration:none;width:100px;fill:#030000;" y="404" x="936.2948717948718"><tspan x="936.2948717948718">Vaishali</tspan></text><path stroke-width="1" stroke="#C0D0E0" fill="none" d="M 58.5 384 L 58.5 389"></path><path stroke-width="1" stroke="#C0D0E0" fill="none" d="M 82.5 384 L 82.5 389"></path><path stroke-width="1" stroke="#C0D0E0" fill="none" d="M 105.5 384 L 105.5 389"></path><path stroke-width="1" stroke="#C0D0E0" fill="none" d="M 129.5 384 L 129.5 389"></path><path stroke-width="1" stroke="#C0D0E0" fill="none" d="M 152.5 384 L 152.5 389"></path><path stroke-width="1" stroke="#C0D0E0" fill="none" d="M 175.5 384 L 175.5 389"></path><path stroke-width="1" stroke="#C0D0E0" fill="none" d="M 199.5 384 L 199.5 389"></path><path stroke-width="1" stroke="#C0D0E0" fill="none" d="M 222.5 384 L 222.5 389"></path><path stroke-width="1" stroke="#C0D0E0" fill="none" d="M 246.5 384 L 246.5 389"></path><path stroke-width="1" stroke="#C0D0E0" fill="none" d="M 269.5 384 L 269.5 389"></path><path stroke-width="1" stroke="#C0D0E0" fill="none" d="M 293.5 384 L 293.5 389"></path><path stroke-width="1" stroke="#C0D0E0" fill="none" d="M 316.5 384 L 316.5 389"></path><path stroke-width="1" stroke="#C0D0E0" fill="none" d="M 339.5 384 L 339.5 389"></path><path stroke-width="1" stroke="#C0D0E0" fill="none" d="M 363.5 384 L 363.5 389"></path><path stroke-width="1" stroke="#C0D0E0" fill="none" d="M 386.5 384 L 386.5 389"></path><path stroke-width="1" stroke="#C0D0E0" fill="none" d="M 410.5 384 L 410.5 389"></path><path stroke-width="1" stroke="#C0D0E0" fill="none" d="M 433.5 384 L 433.5 389"></path><path stroke-width="1" stroke="#C0D0E0" fill="none" d="M 456.5 384 L 456.5 389"></path><path stroke-width="1" stroke="#C0D0E0" fill="none" d="M 480.5 384 L 480.5 389"></path><path stroke-width="1" stroke="#C0D0E0" fill="none" d="M 503.5 384 L 503.5 389"></path><path stroke-width="1" stroke="#C0D0E0" fill="none" d="M 527.5 384 L 527.5 389"></path><path stroke-width="1" stroke="#C0D0E0" fill="none" d="M 550.5 384 L 550.5 389"></path><path stroke-width="1" stroke="#C0D0E0" fill="none" d="M 573.5 384 L 573.5 389"></path><path stroke-width="1" stroke="#C0D0E0" fill="none" d="M 597.5 384 L 597.5 389"></path><path stroke-width="1" stroke="#C0D0E0" fill="none" d="M 620.5 384 L 620.5 389"></path><path stroke-width="1" stroke="#C0D0E0" fill="none" d="M 644.5 384 L 644.5 389"></path><path stroke-width="1" stroke="#C0D0E0" fill="none" d="M 667.5 384 L 667.5 389"></path><path stroke-width="1" stroke="#C0D0E0" fill="none" d="M 690.5 384 L 690.5 389"></path><path stroke-width="1" stroke="#C0D0E0" fill="none" d="M 714.5 384 L 714.5 389"></path><path stroke-width="1" stroke="#C0D0E0" fill="none" d="M 737.5 384 L 737.5 389"></path><path stroke-width="1" stroke="#C0D0E0" fill="none" d="M 761.5 384 L 761.5 389"></path><path stroke-width="1" stroke="#C0D0E0" fill="none" d="M 784.5 384 L 784.5 389"></path><path stroke-width="1" stroke="#C0D0E0" fill="none" d="M 808.5 384 L 808.5 389"></path><path stroke-width="1" stroke="#C0D0E0" fill="none" d="M 831.5 384 L 831.5 389"></path><path stroke-width="1" stroke="#C0D0E0" fill="none" d="M 854.5 384 L 854.5 389"></path><path stroke-width="1" stroke="#C0D0E0" fill="none" d="M 878.5 384 L 878.5 389"></path><path stroke-width="1" stroke="#C0D0E0" fill="none" d="M 901.5 384 L 901.5 389"></path><path stroke-width="1" stroke="#C0D0E0" fill="none" d="M 925.5 384 L 925.5 389"></path><path stroke-width="1" stroke="#C0D0E0" fill="none" d="M 948.5 384 L 948.5 389"></path></g><g  class="highcharts-axis"><text text-anchor="end" style="font-family:'lucida grande', 'lucida sans unicode', verdana, arial, helvetica, sans-serif;font-size:11px;width:100px;color:#000000;line-height:14px;font:normal 11px arial;font-weight:normal;text-decoration:none;fill:#000000;" y="389" x="25"><tspan x="25">0</tspan></text><text text-anchor="end" style="font-family:'lucida grande', 'lucida sans unicode', verdana, arial, helvetica, sans-serif;font-size:11px;width:100px;color:#000000;line-height:14px;font:normal 11px arial;font-weight:normal;text-decoration:none;fill:#000000;" y="339.85714285714283" x="25"><tspan x="25">10</tspan></text><text text-anchor="end" style="font-family:'lucida grande', 'lucida sans unicode', verdana, arial, helvetica, sans-serif;font-size:11px;width:100px;color:#000000;line-height:14px;font:normal 11px arial;font-weight:normal;text-decoration:none;fill:#000000;" y="290.7142857142857" x="25"><tspan x="25">20</tspan></text><text text-anchor="end" style="font-family:'lucida grande', 'lucida sans unicode', verdana, arial, helvetica, sans-serif;font-size:11px;width:100px;color:#000000;line-height:14px;font:normal 11px arial;font-weight:normal;text-decoration:none;fill:#000000;" y="241.57142857142856" x="25"><tspan x="25">30</tspan></text><text text-anchor="end" style="font-family:'lucida grande', 'lucida sans unicode', verdana, arial, helvetica, sans-serif;font-size:11px;width:100px;color:#000000;line-height:14px;font:normal 11px arial;font-weight:normal;text-decoration:none;fill:#000000;" y="192.42857142857144" x="25"><tspan x="25">40</tspan></text><text text-anchor="end" style="font-family:'lucida grande', 'lucida sans unicode', verdana, arial, helvetica, sans-serif;font-size:11px;width:100px;color:#000000;line-height:14px;font:normal 11px arial;font-weight:normal;text-decoration:none;fill:#000000;" y="143.28571428571428" x="25"><tspan x="25">50</tspan></text><text text-anchor="end" style="font-family:'lucida grande', 'lucida sans unicode', verdana, arial, helvetica, sans-serif;font-size:11px;width:100px;color:#000000;line-height:14px;font:normal 11px arial;font-weight:normal;text-decoration:none;fill:#000000;" y="94.14285714285711" x="25"><tspan x="25">60</tspan></text><text text-anchor="end" style="font-family:'lucida grande', 'lucida sans unicode', verdana, arial, helvetica, sans-serif;font-size:11px;width:100px;color:#000000;line-height:14px;font:normal 11px arial;font-weight:normal;text-decoration:none;fill:#000000;" y="45" x="25"><tspan x="25">70</tspan></text></g><path  stroke-width="1" stroke="#C0D0E0" fill="none" d="M 35 384.5 L 948 384.5"></path><path  stroke-width="1" stroke="#C0D0E0" fill="none" d="M 35.5 40 L 35.5 384"></path><g visibility="hidden"  class="highcharts-tooltip"><rect transform="translate(1,1)" stroke-opacity="0.05" stroke="rgb(0, 0, 0)"  fill-opacity="0.85" stroke-width="5" height="0" width="0" y="7" x="7" fill="none" ry="5" rx="5"></rect><rect transform="translate(1,1)" stroke-opacity="0.1" stroke="rgb(0, 0, 0)"  fill-opacity="0.85" stroke-width="3" height="0" width="0" y="7" x="7" fill="none" ry="5" rx="5"></rect><rect transform="translate(1,1)" stroke-opacity="0.15000000000000002" stroke="rgb(0, 0, 0)"  fill-opacity="0.85" stroke-width="1" height="0" width="0" y="7" x="7" fill="none" ry="5" rx="5"></rect><rect fill-opacity="0.85" stroke-width="2" height="0" width="0" y="7" x="7" fill="rgb(255,255,255)" ry="5" rx="5"></rect><text  style="font-family:'lucida grande', 'lucida sans unicode', verdana, arial, helvetica, sans-serif;font-size:12px;color:#333333;padding:0;white-space:nowrap;width:500px;fill:#333333;" y="24" x="12"><tspan x="12"> </tspan></text></g><text  text-anchor="end" style="font-family:'lucida grande', 'lucida sans unicode', verdana, arial, helvetica, sans-serif;font-size:10px;cursor:pointer;color:#909090;fill:#909090;" y="495" x="948"><tspan x="948"> </tspan></text><g transform="translate(35,40)"  class="highcharts-tracker"><path style=""  visibility="visible" stroke-width="22" stroke="rgb(192,192,192)" stroke-opacity="0.000001"  fill="none" d="M 1.7051282051282044 157.25714285714284 L 11.705128205128204 157.25714285714284 L 35.11538461538461 132.68571428571428 L 58.52564102564102 108.1142857142857 L 81.93589743589743 147.42857142857142 L 105.34615384615384 127.77142857142854 L 128.75641025641025 103.19999999999999 L 152.16666666666666 54.05714285714282 L 175.57692307692307 88.45714285714286 L 198.98717948717947 103.19999999999999 L 222.39743589743588 127.77142857142854 L 245.8076923076923 117.94285714285712 L 269.21794871794873 58.97142857142853 L 292.6282051282051 108.1142857142857 L 316.03846153846155 181.82857142857142 L 339.4487179487179 93.37142857142857 L 362.85897435897436 78.62857142857143 L 386.2692307692307 73.71428571428572 L 409.6794871794872 122.85714285714283 L 433.08974358974353 191.65714285714284 L 456.5 157.25714285714284 L 479.91025641025635 78.62857142857143 L 503.3205128205128 147.42857142857142 L 526.7307692307692 83.54285714285714 L 550.1410256410256 113.02857142857141 L 573.551282051282 127.77142857142854 L 596.9615384615385 58.97142857142853 L 620.3717948717948 206.39999999999998 L 643.7820512820513 83.54285714285714 L 667.1923076923076 142.5142857142857 L 690.6025641025641 78.62857142857143 L 714.0128205128204 103.19999999999999 L 737.4230769230769 73.71428571428572 L 760.8333333333333 162.17142857142855 L 784.2435897435897 206.39999999999998 L 807.6538461538461 186.74285714285713 L 831.0641025641025 162.17142857142855 L 854.4743589743589 54.05714285714282 L 877.8846153846154 63.88571428571424 L 901.2948717948717 147.42857142857142 L 911.2948717948717 147.42857142857142"></path></g></svg>