<svg xmlns:xlink="http://www.w3.org/1999/xlink" xmlns="http://www.w3.org/2000/svg" version="1.1" width="958" height="500" style="direction: ltr;"><defs></defs><rect rx="5" ry="5" fill="#ffffff" x="0" y="0" width="958" height="500" stroke-width="0.000001" stroke="#d3d3d3"></rect><rect rx="0" ry="0" fill="#ffffff" x="10" y="40" width="749" height="430" stroke-width="0.000001"></rect><rect rx="5" ry="5" fill="none" x="-5" y="-5" width="10" height="10" stroke-width="0.000001" border="0"></rect><text x="479" y="25" style="font-family:'lucida grande', 'lucida sans unicode', verdana, arial, helvetica, sans-serif;font-size:16px;color:#000000;font:normal 15px arial;font-weight:normal;text-decoration:none;width:600px;fill:#000000;" text-anchor="middle" class="highcharts-title" ><tspan x="479">2014.12</tspan></text><g class="highcharts-series-group" ></g><path d="M 279.5959228960027 46.19887612910124 C 284.5959228960027 46.19887612910124 288.3566163173464 53.259838173374135 293.52756977169395 62.968660984249354 L 298.6985232260415 72.67748379512457" fill="none" stroke-width="1" stroke="#EE9A4D" visibility="visible"  transform="translate(10,40)"></path><path d="M 183.93377663834755 168.72107123870185 C 188.93377663834755 168.72107123870185 196.6960238900768 170.65692185355354 207.3691138612045 173.3187164489746 L 218.04220383233223 175.98051104439568" fill="none" stroke-width="1" stroke="#C25283" visibility="visible"  transform="translate(10,40)"></path><path d="M 202.59626412953304 308.37936309742855 C 207.59626412953304 308.37936309742855 214.57785830973563 304.47329823583675 224.1775503075141 299.10245905114806 L 233.7772423052926 293.73161986645937" fill="none" stroke-width="1" stroke="#F660AB" visibility="visible"  transform="translate(10,40)"></path><path d="M 262.8463549614923 373.75 C 267.8463549614923 373.75 309.99657054768204 386.52221456385706 313.86853629925366 376.22620168417126 L 317.7405020508253 365.93018880448545" fill="none" stroke-width="1" stroke="#7D2252" visibility="visible"  transform="translate(10,40)"></path><path d="M 287.4390470442854 387.75 C 292.4390470442854 387.75 362.55989168315426 397.86059256543496 363.27662396956794 386.8839676365412 L 363.9933562559816 375.9073427076474" fill="none" stroke-width="1" stroke="#F75D59" visibility="visible"  transform="translate(10,40)"></path><path d="M 366.11434936112033 406.22002999098044 C 371.11434936112033 406.22002999098044 371.25597134862903 398.22128363841654 371.4507015814535 387.2230074036412 L 371.6454318142779 376.22473116886584" fill="none" stroke-width="1" stroke="#C24641" visibility="visible"  transform="translate(10,40)"></path><path d="M 379.53895250020344 23.75 C 374.53895250020344 23.75 374.4626768854229 31.75000380085919 374.46491729066355 42.75000357270393 L 374.4671576959042 53.750003344548674" fill="none" stroke-width="1" stroke="#827B60" visibility="visible"  transform="translate(10,40)"></path><path d="M 451.32617907142213 37.75 C 446.32617907142213 37.75 374.4626768854229 31.75000380085919 374.46491729066355 42.75000357270393 L 374.4671576959042 53.750003344548674" fill="none" stroke-width="1" stroke="#7F525D" visibility="visible"  transform="translate(10,40)"></path><path d="M 479.1293129555755 51.75 C 474.1293129555755 51.75 374.4626768854229 31.75000380085919 374.46491729066355 42.75000357270393 L 374.4671576959042 53.750003344548674" fill="none" stroke-width="1" stroke="#7F5A58" visibility="visible"  transform="translate(10,40)"></path><path d="M 499.0867885679685 65.75 C 494.0867885679685 65.75 459.6563641669728 52.73800154730657 454.54465881452154 62.478148794125815 L 449.43295346207026 72.21829604094506" fill="none" stroke-width="1" stroke="#C48189" visibility="visible"  transform="translate(10,40)"></path><path d="M 569.3516617139059 191.91517718351176 C 564.3516617139059 191.91517718351176 556.4101542958077 192.88081683073742 545.490581595923 194.20857134567268 L 534.5710088960383 195.53632586060795" fill="none" stroke-width="1" stroke="#C11B17" visibility="visible"  transform="translate(10,40)"></path><path d="M 490.51341722180825 370.7324105532844 C 485.51341722180825 370.7324105532844 480.8697187236411 364.2181136412516 474.48463328866126 355.2609553872065 L 468.09954785368143 346.30379713316137" fill="none" stroke-width="1" stroke="#FF0000" visibility="visible"  transform="translate(10,40)"></path><g class="highcharts-point"  transform="translate(10,40)"><path d="M 374.4671576959042 53.750003344548674 A 161.25 161.25 0 0 1 374.4669964459075 53.750003377471614 L 374.5 215 A 0 0 0 0 0 374.5 215 Z" fill="#827B60" stroke="#FFFFFF" stroke-width="1" stroke-linejoin="round"></path><path d="M 374.9671576959042 53.750003344548674 A 161.25 161.25 0 0 1 374.9669964459075 53.750003377471614 L 375 215 A 0 0 0 0 0 375 215 Z" fill="rgb(192,192,192)"  fill-opacity="0.000001" visibility="visible"  style="cursor:pointer;"></path></g><g class="highcharts-point"  transform="translate(10,40)"><path d="M 374.4671576959042 53.750003344548674 A 161.25 161.25 0 0 1 374.4669964459075 53.750003377471614 L 374.5 215 A 0 0 0 0 0 374.5 215 Z" fill="#7F525D" stroke="#FFFFFF" stroke-width="1" stroke-linejoin="round"></path><path d="M 374.9671576959042 53.750003344548674 A 161.25 161.25 0 0 1 374.9669964459075 53.750003377471614 L 375 215 A 0 0 0 0 0 375 215 Z" fill="rgb(192,192,192)"  fill-opacity="0.000001" visibility="visible"  style="cursor:pointer;"></path></g><g class="highcharts-point"  transform="translate(10,40)"><path d="M 374.4671576959042 53.750003344548674 A 161.25 161.25 0 0 1 374.4669964459075 53.750003377471614 L 374.5 215 A 0 0 0 0 0 374.5 215 Z" fill="#7F5A58" stroke="#FFFFFF" stroke-width="1" stroke-linejoin="round"></path><path d="M 374.9671576959042 53.750003344548674 A 161.25 161.25 0 0 1 374.9669964459075 53.750003377471614 L 375 215 A 0 0 0 0 0 375 215 Z" fill="rgb(192,192,192)"  fill-opacity="0.000001" visibility="visible"  style="cursor:pointer;"></path></g><g class="highcharts-point"  transform="translate(10,40)"><path d="M 374.4671576959042 53.750003344548674 A 161.25 161.25 0 0 1 507.2200182182296 123.41965678076541 L 374.5 215 A 0 0 0 0 0 374.5 215 Z" fill="#C48189" stroke="#FFFFFF" stroke-width="1" stroke-linejoin="round"></path><path d="M 374.9671576959042 53.750003344548674 A 161.25 161.25 0 0 1 507.7200182182296 123.41965678076541 L 375 215 A 0 0 0 0 0 375 215 Z" fill="rgb(192,192,192)"  fill-opacity="0.000001" visibility="visible"  style="cursor:pointer;"></path></g><g class="highcharts-point"  transform="translate(10,40)"><path d="M 507.2201097985064 123.41978950082942 A 161.25 161.25 0 0 1 525.2995097328073 272.1057822321431 L 374.5 215 A 0 0 0 0 0 374.5 215 Z" fill="#C11B17" stroke="#FFFFFF" stroke-width="1" stroke-linejoin="round"></path><path d="M 507.7201097985064 123.41978950082942 A 161.25 161.25 0 0 1 525.7995097328073 272.1057822321431 L 375 215 A 0 0 0 0 0 375 215 Z" fill="rgb(192,192,192)"  fill-opacity="0.000001" visibility="visible"  style="cursor:pointer;"></path></g><g class="highcharts-point"  transform="translate(10,40)"><path d="M 525.2994526269497 272.10593303162426 A 161.25 161.25 0 0 1 379.3041079595859 376.1784199162923 L 374.5 215 A 0 0 0 0 0 374.5 215 Z" fill="#FF0000" stroke="#FFFFFF" stroke-width="1" stroke-linejoin="round"></path><path d="M 525.7994526269497 272.10593303162426 A 161.25 161.25 0 0 1 379.8041079595859 376.1784199162923 L 375 215 A 0 0 0 0 0 375 215 Z" fill="rgb(192,192,192)"  fill-opacity="0.000001" visibility="visible"  style="cursor:pointer;"></path></g><g class="highcharts-point"  transform="translate(10,40)"><path d="M 379.30394678116363 376.17842472031964 A 161.25 161.25 0 0 1 363.99351716332956 375.9073532142106 L 374.5 215 A 0 0 0 0 0 374.5 215 Z" fill="#C24641" stroke="#FFFFFF" stroke-width="1" stroke-linejoin="round"></path><path d="M 379.80394678116363 376.17842472031964 A 161.25 161.25 0 0 1 364.49351716332956 375.9073532142106 L 375 215 A 0 0 0 0 0 375 215 Z" fill="rgb(192,192,192)"  fill-opacity="0.000001" visibility="visible"  style="cursor:pointer;"></path></g><g class="highcharts-point"  transform="translate(10,40)"><path d="M 363.9933562559816 375.9073427076474 A 161.25 161.25 0 0 1 363.99351716332956 375.9073532142106 L 374.5 215 A 0 0 0 0 0 374.5 215 Z" fill="#F75D59" stroke="#FFFFFF" stroke-width="1" stroke-linejoin="round"></path><path d="M 364.4933562559816 375.9073427076474 A 161.25 161.25 0 0 1 364.49351716332956 375.9073532142106 L 375 215 A 0 0 0 0 0 375 215 Z" fill="rgb(192,192,192)"  fill-opacity="0.000001" visibility="visible"  style="cursor:pointer;"></path></g><g class="highcharts-point"  transform="translate(10,40)"><path d="M 363.9933562559816 375.9073427076474 A 161.25 161.25 0 0 1 276.37506456121764 342.9572567115082 L 374.5 215 A 0 0 0 0 0 374.5 215 Z" fill="#7D2252" stroke="#FFFFFF" stroke-width="1" stroke-linejoin="round"></path><path d="M 364.4933562559816 375.9073427076474 A 161.25 161.25 0 0 1 276.87506456121764 342.9572567115082 L 375 215 A 0 0 0 0 0 375 215 Z" fill="rgb(192,192,192)"  fill-opacity="0.000001" visibility="visible"  style="cursor:pointer;"></path></g><g class="highcharts-point"  transform="translate(10,40)"><path d="M 276.37493660401003 342.95715858650874 A 161.25 161.25 0 0 1 214.11446537365603 231.67461491674743 L 374.5 215 A 0 0 0 0 0 374.5 215 Z" fill="#F660AB" stroke="#FFFFFF" stroke-width="1" stroke-linejoin="round"></path><path d="M 276.87493660401003 342.95715858650874 A 161.25 161.25 0 0 1 214.61446537365603 231.67461491674743 L 375 215 A 0 0 0 0 0 375 215 Z" fill="rgb(192,192,192)"  fill-opacity="0.000001" visibility="visible"  style="cursor:pointer;"></path></g><g class="highcharts-point"  transform="translate(10,40)"><path d="M 214.1144486991213 231.67445453120445 A 161.25 161.25 0 0 1 240.7270842916889 124.96462071553708 L 374.5 215 A 0 0 0 0 0 374.5 215 Z" fill="#C25283" stroke="#FFFFFF" stroke-width="1" stroke-linejoin="round"></path><path d="M 214.6144486991213 231.67445453120445 A 161.25 161.25 0 0 1 241.2270842916889 124.96462071553708 L 375 215 A 0 0 0 0 0 375 215 Z" fill="rgb(192,192,192)"  fill-opacity="0.000001" visibility="visible"  style="cursor:pointer;"></path></g><g class="highcharts-point"  transform="translate(10,40)"><path d="M 240.7271743271351 124.96448694266635 A 161.25 161.25 0 0 1 374.43711566456267 53.75001226182883 L 374.5 215 A 0 0 0 0 0 374.5 215 Z" fill="#EE9A4D" stroke="#FFFFFF" stroke-width="1" stroke-linejoin="round"></path><path d="M 241.2271743271351 124.96448694266635 A 161.25 161.25 0 0 1 374.93711566456267 53.75001226182883 L 375 215 A 0 0 0 0 0 375 215 Z" fill="rgb(192,192,192)"  fill-opacity="0.000001" visibility="visible"  style="cursor:pointer;"></path></g><text x="20" y="500" style="font-family:'lucida grande', 'lucida sans unicode', verdana, arial, helvetica, sans-serif;font-size:12px;color:#4572a7;font:normal 10px arial;font-weight:normal;text-decoration:none;fill:#4572a7;" ><tspan x="20"> </tspan></text><text x="50" y="50" style="font-family:'lucida grande', 'lucida sans unicode', verdana, arial, helvetica, sans-serif;font-size:12px;color:#4572a7;font:normal 10px arial;font-weight:normal;text-decoration:none;fill:#4572a7;" ><tspan x="50"> </tspan></text><g class="highcharts-data-labels" visibility="visible"  transform="translate(10,40)"><text x="384.53895250020344" y="28.75" style="font-family:'lucida grande', 'lucida sans unicode', verdana, arial, helvetica, sans-serif;font-size:11px;color:#000000;line-height:14px;font:normal 10px arial;font-weight:normal;text-decoration:none;width:150px;fill:#000000;" text-anchor="start"  visibility="visible"><tspan x="384.53895250020344">Cachar C0 : Overall score -</tspan><tspan dy="14px" x="384.53895250020344">Percent:0</tspan></text><text x="456.32617907142213" y="42.75" style="font-family:'lucida grande', 'lucida sans unicode', verdana, arial, helvetica, sans-serif;font-size:11px;color:#000000;line-height:14px;font:normal 10px arial;font-weight:normal;text-decoration:none;width:150px;fill:#000000;" text-anchor="start"  visibility="visible"><tspan x="456.32617907142213">Cachar C1 : Buildings -</tspan><tspan dy="14px" x="456.32617907142213">Percent:0</tspan></text><text x="484.1293129555755" y="56.75" style="font-family:'lucida grande', 'lucida sans unicode', verdana, arial, helvetica, sans-serif;font-size:11px;color:#000000;line-height:14px;font:normal 10px arial;font-weight:normal;text-decoration:none;width:150px;fill:#000000;" text-anchor="start"  visibility="visible"><tspan x="484.1293129555755">Cachar C2 : Capacity -</tspan><tspan dy="14px" x="484.1293129555755">Percent:0</tspan></text><text x="504.0867885679685" y="70.75" style="font-family:'lucida grande', 'lucida sans unicode', verdana, arial, helvetica, sans-serif;font-size:11px;color:#000000;line-height:14px;font:normal 10px arial;font-weight:normal;text-decoration:none;width:150px;fill:#000000;" text-anchor="start"  visibility="visible"><tspan x="504.0867885679685">Dibrugarh C0 : Overall score -</tspan><tspan dy="14px" x="504.0867885679685">Percent:82</tspan></text><text x="574.3516617139059" y="196.91517718351176" style="font-family:'lucida grande', 'lucida sans unicode', verdana, arial, helvetica, sans-serif;font-size:11px;color:#000000;line-height:14px;font:normal 10px arial;font-weight:normal;text-decoration:none;width:150px;fill:#000000;" text-anchor="start"  visibility="visible"><tspan x="574.3516617139059">Dibrugarh C1 : Buildings -</tspan><tspan dy="14px" x="574.3516617139059">Percent:82</tspan></text><text x="495.51341722180825" y="375.7324105532844" style="font-family:'lucida grande', 'lucida sans unicode', verdana, arial, helvetica, sans-serif;font-size:11px;color:#000000;line-height:14px;font:normal 10px arial;font-weight:normal;text-decoration:none;width:150px;fill:#000000;" text-anchor="start"  visibility="visible"><tspan x="495.51341722180825">Dibrugarh C2 : Capacity -</tspan><tspan dy="14px" x="495.51341722180825">Percent:100</tspan></text><text x="361.11434936112033" y="411.22002999098044" style="font-family:'lucida grande', 'lucida sans unicode', verdana, arial, helvetica, sans-serif;font-size:11px;color:#000000;line-height:14px;font:normal 10px arial;font-weight:normal;text-decoration:none;width:150px;fill:#000000;" text-anchor="end"  visibility="visible"><tspan x="361.11434936112033">Goalpara C0 : Overall score -</tspan><tspan dy="14px" x="361.11434936112033">Percent:8</tspan></text><text x="282.4390470442854" y="392.75" style="font-family:'lucida grande', 'lucida sans unicode', verdana, arial, helvetica, sans-serif;font-size:11px;color:#000000;line-height:14px;font:normal 10px arial;font-weight:normal;text-decoration:none;width:150px;fill:#000000;" text-anchor="end"  visibility="visible"><tspan x="282.4390470442854">Goalpara C1 : Buildings -</tspan><tspan dy="14px" x="282.4390470442854">Percent:0</tspan></text><text x="257.8463549614923" y="378.75" style="font-family:'lucida grande', 'lucida sans unicode', verdana, arial, helvetica, sans-serif;font-size:11px;color:#000000;line-height:14px;font:normal 10px arial;font-weight:normal;text-decoration:none;width:150px;fill:#000000;" text-anchor="end"  visibility="visible"><tspan x="257.8463549614923">Goalpara C2 : Capacity -</tspan><tspan dy="14px" x="257.8463549614923">Percent:50</tspan></text><text x="197.59626412953304" y="313.37936309742855" style="font-family:'lucida grande', 'lucida sans unicode', verdana, arial, helvetica, sans-serif;font-size:11px;color:#000000;line-height:14px;font:normal 10px arial;font-weight:normal;text-decoration:none;width:150px;fill:#000000;" text-anchor="end"  visibility="visible"><tspan x="197.59626412953304">Sonitpur C0 : Overall score -</tspan><tspan dy="14px" x="197.59626412953304">Percent:69</tspan></text><text x="178.93377663834755" y="173.72107123870185" style="font-family:'lucida grande', 'lucida sans unicode', verdana, arial, helvetica, sans-serif;font-size:11px;color:#000000;line-height:14px;font:normal 10px arial;font-weight:normal;text-decoration:none;width:150px;fill:#000000;" text-anchor="end"  visibility="visible"><tspan x="178.93377663834755">Sonitpur C1 : Buildings -</tspan><tspan dy="14px" x="178.93377663834755">Percent:59</tspan></text><text x="274.5959228960027" y="51.19887612910124" style="font-family:'lucida grande', 'lucida sans unicode', verdana, arial, helvetica, sans-serif;font-size:11px;color:#000000;line-height:14px;font:normal 10px arial;font-weight:normal;text-decoration:none;width:150px;fill:#000000;" text-anchor="end"  visibility="visible"><tspan x="274.5959228960027">Sonitpur C2 : Capacity -</tspan><tspan dy="14px" x="274.5959228960027">Percent:83</tspan></text></g><g class="highcharts-legend"  transform="translate(769,35)"><rect rx="5" ry="5" fill="#ffffff" x="0" y="0" width="179" height="346" stroke-width="0.000001" stroke="#909090" visibility="visible"></rect><text x="24" y="18" style="font-family:'lucida grande', 'lucida sans unicode', verdana, arial, helvetica, sans-serif;font-size:12px;cursor:pointer;color:#3c414d;font:normal 11px arial;font-weight:bold;text-decoration:none;width:150px;fill:#3c414d;" ><tspan x="24">Cachar C0 : Overall score -</tspan><tspan dy="16" x="24">Percent</tspan></text><text x="24" y="46" style="font-family:'lucida grande', 'lucida sans unicode', verdana, arial, helvetica, sans-serif;font-size:12px;cursor:pointer;color:#3c414d;font:normal 11px arial;font-weight:bold;text-decoration:none;width:150px;fill:#3c414d;" ><tspan x="24">Cachar C1 : Buildings -</tspan><tspan dy="16" x="24">Percent</tspan></text><text x="24" y="74" style="font-family:'lucida grande', 'lucida sans unicode', verdana, arial, helvetica, sans-serif;font-size:12px;cursor:pointer;color:#3c414d;font:normal 11px arial;font-weight:bold;text-decoration:none;width:150px;fill:#3c414d;" ><tspan x="24">Cachar C2 : Capacity -</tspan><tspan dy="16" x="24">Percent</tspan></text><text x="24" y="102" style="font-family:'lucida grande', 'lucida sans unicode', verdana, arial, helvetica, sans-serif;font-size:12px;cursor:pointer;color:#3c414d;font:normal 11px arial;font-weight:bold;text-decoration:none;width:150px;fill:#3c414d;" ><tspan x="24">Dibrugarh C0 : Overall score</tspan><tspan dy="16" x="24">- Percent</tspan></text><text x="24" y="130" style="font-family:'lucida grande', 'lucida sans unicode', verdana, arial, helvetica, sans-serif;font-size:12px;cursor:pointer;color:#3c414d;font:normal 11px arial;font-weight:bold;text-decoration:none;width:150px;fill:#3c414d;" ><tspan x="24">Dibrugarh C1 : Buildings -</tspan><tspan dy="16" x="24">Percent</tspan></text><text x="24" y="158" style="font-family:'lucida grande', 'lucida sans unicode', verdana, arial, helvetica, sans-serif;font-size:12px;cursor:pointer;color:#3c414d;font:normal 11px arial;font-weight:bold;text-decoration:none;width:150px;fill:#3c414d;" ><tspan x="24">Dibrugarh C2 : Capacity -</tspan><tspan dy="16" x="24">Percent</tspan></text><text x="24" y="186" style="font-family:'lucida grande', 'lucida sans unicode', verdana, arial, helvetica, sans-serif;font-size:12px;cursor:pointer;color:#3c414d;font:normal 11px arial;font-weight:bold;text-decoration:none;width:150px;fill:#3c414d;" ><tspan x="24">Goalpara C0 : Overall score</tspan><tspan dy="16" x="24">- Percent</tspan></text><text x="24" y="214" style="font-family:'lucida grande', 'lucida sans unicode', verdana, arial, helvetica, sans-serif;font-size:12px;cursor:pointer;color:#3c414d;font:normal 11px arial;font-weight:bold;text-decoration:none;width:150px;fill:#3c414d;" ><tspan x="24">Goalpara C1 : Buildings -</tspan><tspan dy="16" x="24">Percent</tspan></text><text x="24" y="242" style="font-family:'lucida grande', 'lucida sans unicode', verdana, arial, helvetica, sans-serif;font-size:12px;cursor:pointer;color:#3c414d;font:normal 11px arial;font-weight:bold;text-decoration:none;width:150px;fill:#3c414d;" ><tspan x="24">Goalpara C2 : Capacity -</tspan><tspan dy="16" x="24">Percent</tspan></text><text x="24" y="270" style="font-family:'lucida grande', 'lucida sans unicode', verdana, arial, helvetica, sans-serif;font-size:12px;cursor:pointer;color:#3c414d;font:normal 11px arial;font-weight:bold;text-decoration:none;width:150px;fill:#3c414d;" ><tspan x="24">Sonitpur C0 : Overall score -</tspan><tspan dy="16" x="24">Percent</tspan></text><text x="24" y="298" style="font-family:'lucida grande', 'lucida sans unicode', verdana, arial, helvetica, sans-serif;font-size:12px;cursor:pointer;color:#3c414d;font:normal 11px arial;font-weight:bold;text-decoration:none;width:150px;fill:#3c414d;" ><tspan x="24">Sonitpur C1 : Buildings -</tspan><tspan dy="16" x="24">Percent</tspan></text><text x="24" y="326" style="font-family:'lucida grande', 'lucida sans unicode', verdana, arial, helvetica, sans-serif;font-size:12px;cursor:pointer;color:#3c414d;font:normal 11px arial;font-weight:bold;text-decoration:none;width:150px;fill:#3c414d;" ><tspan x="24">Sonitpur C2 : Capacity -</tspan><tspan dy="16" x="24">Percent</tspan></text><rect rx="2" ry="2" fill="#827B60" x="9.5" y="7.5" width="10" height="12" stroke-width="1"  stroke="#FFFFFF"></rect><rect rx="2" ry="2" fill="#7F525D" x="9.5" y="35.5" width="10" height="12" stroke-width="1"  stroke="#FFFFFF"></rect><rect rx="2" ry="2" fill="#7F5A58" x="9.5" y="63.5" width="10" height="12" stroke-width="1"  stroke="#FFFFFF"></rect><rect rx="2" ry="2" fill="#C48189" x="9.5" y="91.5" width="10" height="12" stroke-width="1"  stroke="#FFFFFF"></rect><rect rx="2" ry="2" fill="#C11B17" x="9.5" y="119.5" width="10" height="12" stroke-width="1"  stroke="#FFFFFF"></rect><rect rx="2" ry="2" fill="#FF0000" x="9.5" y="147.5" width="10" height="12" stroke-width="1"  stroke="#FFFFFF"></rect><rect rx="2" ry="2" fill="#C24641" x="9.5" y="175.5" width="10" height="12" stroke-width="1"  stroke="#FFFFFF"></rect><rect rx="2" ry="2" fill="#F75D59" x="9.5" y="203.5" width="10" height="12" stroke-width="1"  stroke="#FFFFFF"></rect><rect rx="2" ry="2" fill="#7D2252" x="9.5" y="231.5" width="10" height="12" stroke-width="1"  stroke="#FFFFFF"></rect><rect rx="2" ry="2" fill="#F660AB" x="9.5" y="259.5" width="10" height="12" stroke-width="1"  stroke="#FFFFFF"></rect><rect rx="2" ry="2" fill="#C25283" x="9.5" y="287.5" width="10" height="12" stroke-width="1"  stroke="#FFFFFF"></rect><rect rx="2" ry="2" fill="#EE9A4D" x="9.5" y="315.5" width="10" height="12" stroke-width="1"  stroke="#FFFFFF"></rect></g><g class="highcharts-tooltip"  visibility="hidden"><rect rx="5" ry="5" fill="none" x="7" y="7" width="0" height="0" stroke-width="5" fill-opacity="0.85"  stroke="rgb(0, 0, 0)" stroke-opacity="0.05" transform="translate(1,1)"></rect><rect rx="5" ry="5" fill="none" x="7" y="7" width="0" height="0" stroke-width="3" fill-opacity="0.85"  stroke="rgb(0, 0, 0)" stroke-opacity="0.1" transform="translate(1,1)"></rect><rect rx="5" ry="5" fill="none" x="7" y="7" width="0" height="0" stroke-width="1" fill-opacity="0.85"  stroke="rgb(0, 0, 0)" stroke-opacity="0.15000000000000002" transform="translate(1,1)"></rect><rect rx="5" ry="5" fill="rgb(255,255,255)" x="7" y="7" width="0" height="0" stroke-width="2" fill-opacity="0.85"></rect><text x="12" y="24" style="font-family:'lucida grande', 'lucida sans unicode', verdana, arial, helvetica, sans-serif;font-size:12px;color:#333333;padding:0;white-space:nowrap;width:600px;fill:#333333;" ><tspan x="12"> </tspan></text></g><text x="948" y="495" style="font-family:'lucida grande', 'lucida sans unicode', verdana, arial, helvetica, sans-serif;font-size:10px;cursor:pointer;color:#909090;fill:#909090;" text-anchor="end" ><tspan x="948"> </tspan></text><g class="highcharts-tracker"  transform="translate(10,40)"></g></svg>