<svg xmlns:xlink="http://www.w3.org/1999/xlink" style="direction: ltr;" height="500" width="958" version="1.1" xmlns="http://www.w3.org/2000/svg"><defs><clipPath id="highcharts-13"><rect stroke-width="0" height="842" width="417" y="0" x="0" fill="none" ry="0" rx="0"></rect></clipPath></defs><rect stroke="#d3d3d3" stroke-width="0" height="500" width="958" y="0" x="0" fill="#ffffff" ry="5" rx="5"></rect><rect stroke-width="0" height="417" width="842" y="40" x="106" fill="#ffffff" ry="0" rx="0"></rect><rect border="0" stroke-width="0" height="10" width="10" y="-5" x="-5" fill="none" ry="5" rx="5"></rect><text  class="highcharts-title" text-anchor="middle" style="font-family:'lucida grande', 'lucida sans unicode', verdana, arial, helvetica, sans-serif;font-size:16px;color:#000000;font:normal 15px arial;font-weight:normal;text-decoration:none;width:600px;fill:#000000;" y="25" x="479"><tspan x="479">E2 : Temperature - Percent, 2014.07</tspan></text><g  class="highcharts-grid"></g><g  class="highcharts-grid"></g><g  class="highcharts-series-group"><g visibility="visible" clip-path="url(#highcharts-13)" transform="translate(948,457) rotate(90) scale(-1,1)" height="417" width="842" class="highcharts-series"><rect r="0" stroke="#FFFFFF" stroke-width="0" height="513" width="3" y="329" x="409" fill="#C48189" ry="0" rx="0"></rect><rect r="0" stroke="#FFFFFF" stroke-width="0" height="564" width="3" y="278" x="399" fill="#C48189" ry="0" rx="0"></rect><rect r="0" stroke="#FFFFFF" stroke-width="0" height="513" width="3" y="329" x="388" fill="#C48189" ry="0" rx="0"></rect><rect r="0" stroke="#FFFFFF" stroke-width="0" height="328" width="3" y="514" x="377" fill="#C48189" ry="0" rx="0"></rect><rect r="0" stroke="#FFFFFF" stroke-width="0" height="564" width="3" y="278" x="366" fill="#C48189" ry="0" rx="0"></rect><rect r="0" stroke="#FFFFFF" stroke-width="0" height="488" width="3" y="354" x="356" fill="#C48189" ry="0" rx="0"></rect><rect r="0" stroke="#FFFFFF" stroke-width="0" height="724" width="3" y="118" x="345" fill="#C48189" ry="0" rx="0"></rect><rect r="0" stroke="#FFFFFF" stroke-width="0" height="606" width="3" y="236" x="334" fill="#C48189" ry="0" rx="0"></rect><rect r="0" stroke="#FFFFFF" stroke-width="0" height="724" width="3" y="118" x="324" fill="#C48189" ry="0" rx="0"></rect><rect r="0" stroke="#FFFFFF" stroke-width="0" height="606" width="3" y="236" x="313" fill="#C48189" ry="0" rx="0"></rect><rect r="0" stroke="#FFFFFF" stroke-width="0" height="513" width="3" y="329" x="302" fill="#C48189" ry="0" rx="0"></rect><rect r="0" stroke="#FFFFFF" stroke-width="0" height="446" width="3" y="396" x="292" fill="#C48189" ry="0" rx="0"></rect><rect r="0" stroke="#FFFFFF" stroke-width="0" height="564" width="3" y="278" x="281" fill="#C48189" ry="0" rx="0"></rect><rect r="0" stroke="#FFFFFF" stroke-width="0" height="513" width="3" y="329" x="270" fill="#C48189" ry="0" rx="0"></rect><rect r="0" stroke="#FFFFFF" stroke-width="0" height="370" width="3" y="472" x="260" fill="#C48189" ry="0" rx="0"></rect><rect r="0" stroke="#FFFFFF" stroke-width="0" height="606" width="3" y="236" x="249" fill="#C48189" ry="0" rx="0"></rect><rect r="0" stroke="#FFFFFF" stroke-width="0" height="606" width="3" y="236" x="238" fill="#C48189" ry="0" rx="0"></rect><rect r="0" stroke="#FFFFFF" stroke-width="0" height="370" width="3" y="472" x="227" fill="#C48189" ry="0" rx="0"></rect><rect r="0" stroke="#FFFFFF" stroke-width="0" height="235" width="3" y="607" x="217" fill="#C48189" ry="0" rx="0"></rect><rect r="0" stroke="#FFFFFF" stroke-width="0" height="749" width="3" y="93" x="206" fill="#C48189" ry="0" rx="0"></rect><rect r="0" stroke="#FFFFFF" stroke-width="0" height="791" width="3" y="51" x="195" fill="#C48189" ry="0" rx="0"></rect><rect r="0" stroke="#FFFFFF" stroke-width="0" height="235" width="3" y="607" x="185" fill="#C48189" ry="0" rx="0"></rect><rect r="0" stroke="#FFFFFF" stroke-width="0" height="564" width="3" y="278" x="174" fill="#C48189" ry="0" rx="0"></rect><rect r="0" stroke="#FFFFFF" stroke-width="0" height="513" width="3" y="329" x="163" fill="#C48189" ry="0" rx="0"></rect><rect r="0" stroke="#FFFFFF" stroke-width="0" height="328" width="3" y="514" x="153" fill="#C48189" ry="0" rx="0"></rect><rect r="0" stroke="#FFFFFF" stroke-width="0" height="791" width="3" y="51" x="142" fill="#C48189" ry="0" rx="0"></rect><rect r="0" stroke="#FFFFFF" stroke-width="0" height="277" width="3" y="565" x="131" fill="#C48189" ry="0" rx="0"></rect><rect r="0" stroke="#FFFFFF" stroke-width="0" height="277" width="3" y="565" x="121" fill="#C48189" ry="0" rx="0"></rect><rect r="0" stroke="#FFFFFF" stroke-width="0" height="606" width="3" y="236" x="110" fill="#C48189" ry="0" rx="0"></rect><rect r="0" stroke="#FFFFFF" stroke-width="0" height="606" width="3" y="236" x="99" fill="#C48189" ry="0" rx="0"></rect><rect r="0" stroke="#FFFFFF" stroke-width="0" height="606" width="3" y="236" x="88" fill="#C48189" ry="0" rx="0"></rect><rect r="0" stroke="#FFFFFF" stroke-width="0" height="564" width="3" y="278" x="78" fill="#C48189" ry="0" rx="0"></rect><rect r="0" stroke="#FFFFFF" stroke-width="0" height="513" width="3" y="329" x="67" fill="#C48189" ry="0" rx="0"></rect><rect r="0" stroke="#FFFFFF" stroke-width="0" height="50" width="3" y="792" x="56" fill="#C48189" ry="0" rx="0"></rect><rect r="0" stroke="#FFFFFF" stroke-width="0" height="471" width="3" y="371" x="46" fill="#C48189" ry="0" rx="0"></rect><rect r="0" stroke="#FFFFFF" stroke-width="0" height="277" width="3" y="565" x="35" fill="#C48189" ry="0" rx="0"></rect><rect r="0" stroke="#FFFFFF" stroke-width="0" height="749" width="3" y="93" x="24" fill="#C48189" ry="0" rx="0"></rect><rect r="0" stroke="#FFFFFF" stroke-width="0" height="606" width="3" y="236" x="14" fill="#C48189" ry="0" rx="0"></rect><rect r="0" stroke="#FFFFFF" stroke-width="0" height="631" width="3" y="211" x="3" fill="#C48189" ry="0" rx="0"></rect></g></g><text  style="font-family:'lucida grande', 'lucida sans unicode', verdana, arial, helvetica, sans-serif;font-size:12px;color:#4572a7;font:normal 10px arial;font-weight:normal;text-decoration:none;fill:#4572a7;" y="500" x="20"><tspan x="20"> </tspan></text><text  style="font-family:'lucida grande', 'lucida sans unicode', verdana, arial, helvetica, sans-serif;font-size:12px;color:#4572a7;font:normal 10px arial;font-weight:normal;text-decoration:none;fill:#4572a7;" y="50" x="50"><tspan x="50"> </tspan></text><g  class="highcharts-axis"><text text-anchor="end" style="font-family:'lucida grande', 'lucida sans unicode', verdana, arial, helvetica, sans-serif;font-size:11px;width:100px;color:#050000;line-height:14px;font:normal 11px arial;font-weight:normal;text-decoration:none;fill:#050000;" y="45.34615384615383" x="96"><tspan x="96">Araria</tspan></text><text text-anchor="end" style="font-family:'lucida grande', 'lucida sans unicode', verdana, arial, helvetica, sans-serif;font-size:11px;width:100px;color:#050000;line-height:14px;font:normal 11px arial;font-weight:normal;text-decoration:none;fill:#050000;" y="56.03846153846151" x="96"><tspan x="96">Arwal</tspan></text><text text-anchor="end" style="font-family:'lucida grande', 'lucida sans unicode', verdana, arial, helvetica, sans-serif;font-size:11px;width:100px;color:#050000;line-height:14px;font:normal 11px arial;font-weight:normal;text-decoration:none;fill:#050000;" y="66.73076923076925" x="96"><tspan x="96">Aurangaabad</tspan></text><text text-anchor="end" style="font-family:'lucida grande', 'lucida sans unicode', verdana, arial, helvetica, sans-serif;font-size:11px;width:100px;color:#050000;line-height:14px;font:normal 11px arial;font-weight:normal;text-decoration:none;fill:#050000;" y="77.42307692307693" x="96"><tspan x="96">Banka</tspan></text><text text-anchor="end" style="font-family:'lucida grande', 'lucida sans unicode', verdana, arial, helvetica, sans-serif;font-size:11px;width:100px;color:#050000;line-height:14px;font:normal 11px arial;font-weight:normal;text-decoration:none;fill:#050000;" y="88.11538461538461" x="96"><tspan x="96">Begusarai</tspan></text><text text-anchor="end" style="font-family:'lucida grande', 'lucida sans unicode', verdana, arial, helvetica, sans-serif;font-size:11px;width:100px;color:#050000;line-height:14px;font:normal 11px arial;font-weight:normal;text-decoration:none;fill:#050000;" y="98.80769230769229" x="96"><tspan x="96">Bhagalpur</tspan></text><text text-anchor="end" style="font-family:'lucida grande', 'lucida sans unicode', verdana, arial, helvetica, sans-serif;font-size:11px;width:100px;color:#050000;line-height:14px;font:normal 11px arial;font-weight:normal;text-decoration:none;fill:#050000;" y="109.49999999999997" x="96"><tspan x="96">Bhojpur</tspan></text><text text-anchor="end" style="font-family:'lucida grande', 'lucida sans unicode', verdana, arial, helvetica, sans-serif;font-size:11px;width:100px;color:#050000;line-height:14px;font:normal 11px arial;font-weight:normal;text-decoration:none;fill:#050000;" y="120.19230769230771" x="96"><tspan x="96">Buxar</tspan></text><text text-anchor="end" style="font-family:'lucida grande', 'lucida sans unicode', verdana, arial, helvetica, sans-serif;font-size:11px;width:100px;color:#050000;line-height:14px;font:normal 11px arial;font-weight:normal;text-decoration:none;fill:#050000;" y="130.8846153846154" x="96"><tspan x="96">Champaran East</tspan></text><text text-anchor="end" style="font-family:'lucida grande', 'lucida sans unicode', verdana, arial, helvetica, sans-serif;font-size:11px;width:100px;color:#050000;line-height:14px;font:normal 11px arial;font-weight:normal;text-decoration:none;fill:#050000;" y="141.57692307692307" x="96"><tspan x="96">Champaran West</tspan></text><text text-anchor="end" style="font-family:'lucida grande', 'lucida sans unicode', verdana, arial, helvetica, sans-serif;font-size:11px;width:100px;color:#050000;line-height:14px;font:normal 11px arial;font-weight:normal;text-decoration:none;fill:#050000;" y="152.2692307692308" x="96"><tspan x="96">DVS</tspan></text><text text-anchor="end" style="font-family:'lucida grande', 'lucida sans unicode', verdana, arial, helvetica, sans-serif;font-size:11px;width:100px;color:#050000;line-height:14px;font:normal 11px arial;font-weight:normal;text-decoration:none;fill:#050000;" y="162.96153846153842" x="96"><tspan x="96">Darbhanga</tspan></text><text text-anchor="end" style="font-family:'lucida grande', 'lucida sans unicode', verdana, arial, helvetica, sans-serif;font-size:11px;width:100px;color:#050000;line-height:14px;font:normal 11px arial;font-weight:normal;text-decoration:none;fill:#050000;" y="173.65384615384616" x="96"><tspan x="96">Gaya</tspan></text><text text-anchor="end" style="font-family:'lucida grande', 'lucida sans unicode', verdana, arial, helvetica, sans-serif;font-size:11px;width:100px;color:#050000;line-height:14px;font:normal 11px arial;font-weight:normal;text-decoration:none;fill:#050000;" y="184.34615384615384" x="96"><tspan x="96">Gopalganj</tspan></text><text text-anchor="end" style="font-family:'lucida grande', 'lucida sans unicode', verdana, arial, helvetica, sans-serif;font-size:11px;width:100px;color:#050000;line-height:14px;font:normal 11px arial;font-weight:normal;text-decoration:none;fill:#050000;" y="195.03846153846152" x="96"><tspan x="96">Jamui</tspan></text><text text-anchor="end" style="font-family:'lucida grande', 'lucida sans unicode', verdana, arial, helvetica, sans-serif;font-size:11px;width:100px;color:#050000;line-height:14px;font:normal 11px arial;font-weight:normal;text-decoration:none;fill:#050000;" y="205.73076923076923" x="96"><tspan x="96">Jehanabad</tspan></text><text text-anchor="end" style="font-family:'lucida grande', 'lucida sans unicode', verdana, arial, helvetica, sans-serif;font-size:11px;width:100px;color:#050000;line-height:14px;font:normal 11px arial;font-weight:normal;text-decoration:none;fill:#050000;" y="216.42307692307688" x="96"><tspan x="96">Kaimur</tspan></text><text text-anchor="end" style="font-family:'lucida grande', 'lucida sans unicode', verdana, arial, helvetica, sans-serif;font-size:11px;width:100px;color:#050000;line-height:14px;font:normal 11px arial;font-weight:normal;text-decoration:none;fill:#050000;" y="227.1153846153846" x="96"><tspan x="96">Katihar</tspan></text><text text-anchor="end" style="font-family:'lucida grande', 'lucida sans unicode', verdana, arial, helvetica, sans-serif;font-size:11px;width:100px;color:#050000;line-height:14px;font:normal 11px arial;font-weight:normal;text-decoration:none;fill:#050000;" y="237.8076923076923" x="96"><tspan x="96">Khagaria</tspan></text><text text-anchor="end" style="font-family:'lucida grande', 'lucida sans unicode', verdana, arial, helvetica, sans-serif;font-size:11px;width:100px;color:#050000;line-height:14px;font:normal 11px arial;font-weight:normal;text-decoration:none;fill:#050000;" y="248.49999999999997" x="96"><tspan x="96">Kishanganj</tspan></text><text text-anchor="end" style="font-family:'lucida grande', 'lucida sans unicode', verdana, arial, helvetica, sans-serif;font-size:11px;width:100px;color:#050000;line-height:14px;font:normal 11px arial;font-weight:normal;text-decoration:none;fill:#050000;" y="259.1923076923077" x="96"><tspan x="96">Lakhisarai</tspan></text><text text-anchor="end" style="font-family:'lucida grande', 'lucida sans unicode', verdana, arial, helvetica, sans-serif;font-size:11px;width:100px;color:#050000;line-height:14px;font:normal 11px arial;font-weight:normal;text-decoration:none;fill:#050000;" y="269.88461538461536" x="96"><tspan x="96">Madhepura</tspan></text><text text-anchor="end" style="font-family:'lucida grande', 'lucida sans unicode', verdana, arial, helvetica, sans-serif;font-size:11px;width:100px;color:#050000;line-height:14px;font:normal 11px arial;font-weight:normal;text-decoration:none;fill:#050000;" y="280.57692307692304" x="96"><tspan x="96">Madhubani</tspan></text><text text-anchor="end" style="font-family:'lucida grande', 'lucida sans unicode', verdana, arial, helvetica, sans-serif;font-size:11px;width:100px;color:#050000;line-height:14px;font:normal 11px arial;font-weight:normal;text-decoration:none;fill:#050000;" y="291.2692307692307" x="96"><tspan x="96">Munger</tspan></text><text text-anchor="end" style="font-family:'lucida grande', 'lucida sans unicode', verdana, arial, helvetica, sans-serif;font-size:11px;width:100px;color:#050000;line-height:14px;font:normal 11px arial;font-weight:normal;text-decoration:none;fill:#050000;" y="301.9615384615384" x="96"><tspan x="96">Muzaffarpur</tspan></text><text text-anchor="end" style="font-family:'lucida grande', 'lucida sans unicode', verdana, arial, helvetica, sans-serif;font-size:11px;width:100px;color:#050000;line-height:14px;font:normal 11px arial;font-weight:normal;text-decoration:none;fill:#050000;" y="312.65384615384613" x="96"><tspan x="96">Nalanda</tspan></text><text text-anchor="end" style="font-family:'lucida grande', 'lucida sans unicode', verdana, arial, helvetica, sans-serif;font-size:11px;width:100px;color:#050000;line-height:14px;font:normal 11px arial;font-weight:normal;text-decoration:none;fill:#050000;" y="323.3461538461538" x="96"><tspan x="96">Nawada</tspan></text><text text-anchor="end" style="font-family:'lucida grande', 'lucida sans unicode', verdana, arial, helvetica, sans-serif;font-size:11px;width:100px;color:#050000;line-height:14px;font:normal 11px arial;font-weight:normal;text-decoration:none;fill:#050000;" y="334.0384615384615" x="96"><tspan x="96">Patna</tspan></text><text text-anchor="end" style="font-family:'lucida grande', 'lucida sans unicode', verdana, arial, helvetica, sans-serif;font-size:11px;width:100px;color:#050000;line-height:14px;font:normal 11px arial;font-weight:normal;text-decoration:none;fill:#050000;" y="344.73076923076917" x="96"><tspan x="96">Purnia</tspan></text><text text-anchor="end" style="font-family:'lucida grande', 'lucida sans unicode', verdana, arial, helvetica, sans-serif;font-size:11px;width:100px;color:#050000;line-height:14px;font:normal 11px arial;font-weight:normal;text-decoration:none;fill:#050000;" y="355.4230769230769" x="96"><tspan x="96">Rohtas</tspan></text><text text-anchor="end" style="font-family:'lucida grande', 'lucida sans unicode', verdana, arial, helvetica, sans-serif;font-size:11px;width:100px;color:#050000;line-height:14px;font:normal 11px arial;font-weight:normal;text-decoration:none;fill:#050000;" y="366.1153846153846" x="96"><tspan x="96">Saharsa</tspan></text><text text-anchor="end" style="font-family:'lucida grande', 'lucida sans unicode', verdana, arial, helvetica, sans-serif;font-size:11px;width:100px;color:#050000;line-height:14px;font:normal 11px arial;font-weight:normal;text-decoration:none;fill:#050000;" y="376.80769230769226" x="96"><tspan x="96">Samastipur</tspan></text><text text-anchor="end" style="font-family:'lucida grande', 'lucida sans unicode', verdana, arial, helvetica, sans-serif;font-size:11px;width:100px;color:#050000;line-height:14px;font:normal 11px arial;font-weight:normal;text-decoration:none;fill:#050000;" y="387.49999999999994" x="96"><tspan x="96">Saran</tspan></text><text text-anchor="end" style="font-family:'lucida grande', 'lucida sans unicode', verdana, arial, helvetica, sans-serif;font-size:11px;width:100px;color:#050000;line-height:14px;font:normal 11px arial;font-weight:normal;text-decoration:none;fill:#050000;" y="398.1923076923076" x="96"><tspan x="96">Sheikhpura</tspan></text><text text-anchor="end" style="font-family:'lucida grande', 'lucida sans unicode', verdana, arial, helvetica, sans-serif;font-size:11px;width:100px;color:#050000;line-height:14px;font:normal 11px arial;font-weight:normal;text-decoration:none;fill:#050000;" y="408.88461538461536" x="96"><tspan x="96">Sheohar</tspan></text><text text-anchor="end" style="font-family:'lucida grande', 'lucida sans unicode', verdana, arial, helvetica, sans-serif;font-size:11px;width:100px;color:#050000;line-height:14px;font:normal 11px arial;font-weight:normal;text-decoration:none;fill:#050000;" y="419.57692307692304" x="96"><tspan x="96">Sitamarhi</tspan></text><text text-anchor="end" style="font-family:'lucida grande', 'lucida sans unicode', verdana, arial, helvetica, sans-serif;font-size:11px;width:100px;color:#050000;line-height:14px;font:normal 11px arial;font-weight:normal;text-decoration:none;fill:#050000;" y="430.2692307692307" x="96"><tspan x="96">Siwan</tspan></text><text text-anchor="end" style="font-family:'lucida grande', 'lucida sans unicode', verdana, arial, helvetica, sans-serif;font-size:11px;width:100px;color:#050000;line-height:14px;font:normal 11px arial;font-weight:normal;text-decoration:none;fill:#050000;" y="440.9615384615384" x="96"><tspan x="96">Supaul</tspan></text><text text-anchor="end" style="font-family:'lucida grande', 'lucida sans unicode', verdana, arial, helvetica, sans-serif;font-size:11px;width:100px;color:#050000;line-height:14px;font:normal 11px arial;font-weight:normal;text-decoration:none;fill:#050000;" y="451.65384615384613" x="96"><tspan x="96">Vaishali</tspan></text><path stroke-width="1" stroke="#C0D0E0" fill="none" d="M 106 51.5 L 101 51.5"></path><path stroke-width="1" stroke="#C0D0E0" fill="none" d="M 106 61.5 L 101 61.5"></path><path stroke-width="1" stroke="#C0D0E0" fill="none" d="M 106 72.5 L 101 72.5"></path><path stroke-width="1" stroke="#C0D0E0" fill="none" d="M 106 83.5 L 101 83.5"></path><path stroke-width="1" stroke="#C0D0E0" fill="none" d="M 106 93.5 L 101 93.5"></path><path stroke-width="1" stroke="#C0D0E0" fill="none" d="M 106 104.5 L 101 104.5"></path><path stroke-width="1" stroke="#C0D0E0" fill="none" d="M 106 115.5 L 101 115.5"></path><path stroke-width="1" stroke="#C0D0E0" fill="none" d="M 106 126.5 L 101 126.5"></path><path stroke-width="1" stroke="#C0D0E0" fill="none" d="M 106 136.5 L 101 136.5"></path><path stroke-width="1" stroke="#C0D0E0" fill="none" d="M 106 147.5 L 101 147.5"></path><path stroke-width="1" stroke="#C0D0E0" fill="none" d="M 106 158.5 L 101 158.5"></path><path stroke-width="1" stroke="#C0D0E0" fill="none" d="M 106 168.5 L 101 168.5"></path><path stroke-width="1" stroke="#C0D0E0" fill="none" d="M 106 179.5 L 101 179.5"></path><path stroke-width="1" stroke="#C0D0E0" fill="none" d="M 106 190.5 L 101 190.5"></path><path stroke-width="1" stroke="#C0D0E0" fill="none" d="M 106 200.5 L 101 200.5"></path><path stroke-width="1" stroke="#C0D0E0" fill="none" d="M 106 211.5 L 101 211.5"></path><path stroke-width="1" stroke="#C0D0E0" fill="none" d="M 106 222.5 L 101 222.5"></path><path stroke-width="1" stroke="#C0D0E0" fill="none" d="M 106 232.5 L 101 232.5"></path><path stroke-width="1" stroke="#C0D0E0" fill="none" d="M 106 243.5 L 101 243.5"></path><path stroke-width="1" stroke="#C0D0E0" fill="none" d="M 106 254.5 L 101 254.5"></path><path stroke-width="1" stroke="#C0D0E0" fill="none" d="M 106 265.5 L 101 265.5"></path><path stroke-width="1" stroke="#C0D0E0" fill="none" d="M 106 275.5 L 101 275.5"></path><path stroke-width="1" stroke="#C0D0E0" fill="none" d="M 106 286.5 L 101 286.5"></path><path stroke-width="1" stroke="#C0D0E0" fill="none" d="M 106 297.5 L 101 297.5"></path><path stroke-width="1" stroke="#C0D0E0" fill="none" d="M 106 307.5 L 101 307.5"></path><path stroke-width="1" stroke="#C0D0E0" fill="none" d="M 106 318.5 L 101 318.5"></path><path stroke-width="1" stroke="#C0D0E0" fill="none" d="M 106 329.5 L 101 329.5"></path><path stroke-width="1" stroke="#C0D0E0" fill="none" d="M 106 339.5 L 101 339.5"></path><path stroke-width="1" stroke="#C0D0E0" fill="none" d="M 106 350.5 L 101 350.5"></path><path stroke-width="1" stroke="#C0D0E0" fill="none" d="M 106 361.5 L 101 361.5"></path><path stroke-width="1" stroke="#C0D0E0" fill="none" d="M 106 371.5 L 101 371.5"></path><path stroke-width="1" stroke="#C0D0E0" fill="none" d="M 106 382.5 L 101 382.5"></path><path stroke-width="1" stroke="#C0D0E0" fill="none" d="M 106 393.5 L 101 393.5"></path><path stroke-width="1" stroke="#C0D0E0" fill="none" d="M 106 404.5 L 101 404.5"></path><path stroke-width="1" stroke="#C0D0E0" fill="none" d="M 106 414.5 L 101 414.5"></path><path stroke-width="1" stroke="#C0D0E0" fill="none" d="M 106 425.5 L 101 425.5"></path><path stroke-width="1" stroke="#C0D0E0" fill="none" d="M 106 436.5 L 101 436.5"></path><path stroke-width="1" stroke="#C0D0E0" fill="none" d="M 106 446.5 L 101 446.5"></path><path stroke-width="1" stroke="#C0D0E0" fill="none" d="M 106 457.5 L 101 457.5"></path></g><g  class="highcharts-axis"><text text-anchor="start" style="font-family:'lucida grande', 'lucida sans unicode', verdana, arial, helvetica, sans-serif;font-size:11px;color:#050000;line-height:14px;font:normal 11px arial;font-weight:normal;text-decoration:none;width:100px;fill:#050000;" y="477" x="101"><tspan x="101">0</tspan></text><text text-anchor="start" style="font-family:'lucida grande', 'lucida sans unicode', verdana, arial, helvetica, sans-serif;font-size:11px;color:#050000;line-height:14px;font:normal 11px arial;font-weight:normal;text-decoration:none;width:100px;fill:#050000;" y="477" x="185.2"><tspan x="185.2">10</tspan></text><text text-anchor="start" style="font-family:'lucida grande', 'lucida sans unicode', verdana, arial, helvetica, sans-serif;font-size:11px;color:#050000;line-height:14px;font:normal 11px arial;font-weight:normal;text-decoration:none;width:100px;fill:#050000;" y="477" x="269.4"><tspan x="269.4">20</tspan></text><text text-anchor="start" style="font-family:'lucida grande', 'lucida sans unicode', verdana, arial, helvetica, sans-serif;font-size:11px;color:#050000;line-height:14px;font:normal 11px arial;font-weight:normal;text-decoration:none;width:100px;fill:#050000;" y="477" x="353.6"><tspan x="353.6">30</tspan></text><text text-anchor="start" style="font-family:'lucida grande', 'lucida sans unicode', verdana, arial, helvetica, sans-serif;font-size:11px;color:#050000;line-height:14px;font:normal 11px arial;font-weight:normal;text-decoration:none;width:100px;fill:#050000;" y="477" x="437.8"><tspan x="437.8">40</tspan></text><text text-anchor="start" style="font-family:'lucida grande', 'lucida sans unicode', verdana, arial, helvetica, sans-serif;font-size:11px;color:#050000;line-height:14px;font:normal 11px arial;font-weight:normal;text-decoration:none;width:100px;fill:#050000;" y="477" x="522"><tspan x="522">50</tspan></text><text text-anchor="start" style="font-family:'lucida grande', 'lucida sans unicode', verdana, arial, helvetica, sans-serif;font-size:11px;color:#050000;line-height:14px;font:normal 11px arial;font-weight:normal;text-decoration:none;width:100px;fill:#050000;" y="477" x="606.2"><tspan x="606.2">60</tspan></text><text text-anchor="start" style="font-family:'lucida grande', 'lucida sans unicode', verdana, arial, helvetica, sans-serif;font-size:11px;color:#050000;line-height:14px;font:normal 11px arial;font-weight:normal;text-decoration:none;width:100px;fill:#050000;" y="477" x="690.4"><tspan x="690.4">70</tspan></text><text text-anchor="start" style="font-family:'lucida grande', 'lucida sans unicode', verdana, arial, helvetica, sans-serif;font-size:11px;color:#050000;line-height:14px;font:normal 11px arial;font-weight:normal;text-decoration:none;width:100px;fill:#050000;" y="477" x="774.6"><tspan x="774.6">80</tspan></text><text text-anchor="start" style="font-family:'lucida grande', 'lucida sans unicode', verdana, arial, helvetica, sans-serif;font-size:11px;color:#050000;line-height:14px;font:normal 11px arial;font-weight:normal;text-decoration:none;width:100px;fill:#050000;" y="477" x="858.8"><tspan x="858.8">90</tspan></text><text text-anchor="start" style="font-family:'lucida grande', 'lucida sans unicode', verdana, arial, helvetica, sans-serif;font-size:11px;color:#050000;line-height:14px;font:normal 11px arial;font-weight:normal;text-decoration:none;width:100px;fill:#050000;" y="477" x="943"><tspan x="943">100</tspan></text></g><path  stroke-width="1" stroke="#C0D0E0" fill="none" d="M 106.5 40 L 106.5 457"></path><path  stroke-width="1" stroke="#C0D0E0" fill="none" d="M 106 457.5 L 948 457.5"></path><g transform="translate(475,20)" visibility="hidden"  class="highcharts-tooltip"><rect transform="translate(1,1)" stroke-opacity="0.05" stroke="rgb(0, 0, 0)"  fill-opacity="0.85" stroke-width="5" height="50" width="113" y="7" x="7" fill="none" ry="5" rx="5"></rect><rect transform="translate(1,1)" stroke-opacity="0.1" stroke="rgb(0, 0, 0)"  fill-opacity="0.85" stroke-width="3" height="50" width="113" y="7" x="7" fill="none" ry="5" rx="5"></rect><rect transform="translate(1,1)" stroke-opacity="0.15000000000000002" stroke="rgb(0, 0, 0)"  fill-opacity="0.85" stroke-width="1" height="50" width="113" y="7" x="7" fill="none" ry="5" rx="5"></rect><rect stroke="#C48189" fill-opacity="0.85" stroke-width="2" height="50" width="113" y="7" x="7" fill="rgb(255,255,255)" ry="5" rx="5"></rect><text  style="font-family:'lucida grande', 'lucida sans unicode', verdana, arial, helvetica, sans-serif;font-size:12px;color:#333333;padding:0;white-space:nowrap;width:500px;fill:#333333;" y="24" x="12"><tspan x="12" style="font-weight:bold">Aurangaabad: 61</tspan><tspan x="12" dy="20">Data Value</tspan></text></g><text  text-anchor="end" style="font-family:'lucida grande', 'lucida sans unicode', verdana, arial, helvetica, sans-serif;font-size:10px;cursor:pointer;color:#909090;fill:#909090;" y="495" x="948"><tspan x="948"> </tspan></text><g height="417" width="842" transform="translate(948,457) rotate(90) scale(-1,1)"  class="highcharts-tracker"><rect style=""  visibility="visible" fill-opacity="0.000001"  stroke-width="0" height="513" width="3" y="329" x="409" fill="rgb(192,192,192)" ry="0" rx="0"></rect><rect style=""  visibility="visible" fill-opacity="0.000001"  stroke-width="0" height="564" width="3" y="278" x="399" fill="rgb(192,192,192)" ry="0" rx="0"></rect><rect style=""  visibility="visible" fill-opacity="0.000001"  stroke-width="0" height="513" width="3" y="329" x="388" fill="rgb(192,192,192)" ry="0" rx="0"></rect><rect style=""  visibility="visible" fill-opacity="0.000001"  stroke-width="0" height="328" width="3" y="514" x="377" fill="rgb(192,192,192)" ry="0" rx="0"></rect><rect style=""  visibility="visible" fill-opacity="0.000001"  stroke-width="0" height="564" width="3" y="278" x="366" fill="rgb(192,192,192)" ry="0" rx="0"></rect><rect style=""  visibility="visible" fill-opacity="0.000001"  stroke-width="0" height="488" width="3" y="354" x="356" fill="rgb(192,192,192)" ry="0" rx="0"></rect><rect style=""  visibility="visible" fill-opacity="0.000001"  stroke-width="0" height="724" width="3" y="118" x="345" fill="rgb(192,192,192)" ry="0" rx="0"></rect><rect style=""  visibility="visible" fill-opacity="0.000001"  stroke-width="0" height="606" width="3" y="236" x="334" fill="rgb(192,192,192)" ry="0" rx="0"></rect><rect style=""  visibility="visible" fill-opacity="0.000001"  stroke-width="0" height="724" width="3" y="118" x="324" fill="rgb(192,192,192)" ry="0" rx="0"></rect><rect style=""  visibility="visible" fill-opacity="0.000001"  stroke-width="0" height="606" width="3" y="236" x="313" fill="rgb(192,192,192)" ry="0" rx="0"></rect><rect style=""  visibility="visible" fill-opacity="0.000001"  stroke-width="0" height="513" width="3" y="329" x="302" fill="rgb(192,192,192)" ry="0" rx="0"></rect><rect style=""  visibility="visible" fill-opacity="0.000001"  stroke-width="0" height="446" width="3" y="396" x="292" fill="rgb(192,192,192)" ry="0" rx="0"></rect><rect style=""  visibility="visible" fill-opacity="0.000001"  stroke-width="0" height="564" width="3" y="278" x="281" fill="rgb(192,192,192)" ry="0" rx="0"></rect><rect style=""  visibility="visible" fill-opacity="0.000001"  stroke-width="0" height="513" width="3" y="329" x="270" fill="rgb(192,192,192)" ry="0" rx="0"></rect><rect style=""  visibility="visible" fill-opacity="0.000001"  stroke-width="0" height="370" width="3" y="472" x="260" fill="rgb(192,192,192)" ry="0" rx="0"></rect><rect style=""  visibility="visible" fill-opacity="0.000001"  stroke-width="0" height="606" width="3" y="236" x="249" fill="rgb(192,192,192)" ry="0" rx="0"></rect><rect style=""  visibility="visible" fill-opacity="0.000001"  stroke-width="0" height="606" width="3" y="236" x="238" fill="rgb(192,192,192)" ry="0" rx="0"></rect><rect style=""  visibility="visible" fill-opacity="0.000001"  stroke-width="0" height="370" width="3" y="472" x="227" fill="rgb(192,192,192)" ry="0" rx="0"></rect><rect style=""  visibility="visible" fill-opacity="0.000001"  stroke-width="0" height="235" width="3" y="607" x="217" fill="rgb(192,192,192)" ry="0" rx="0"></rect><rect style=""  visibility="visible" fill-opacity="0.000001"  stroke-width="0" height="749" width="3" y="93" x="206" fill="rgb(192,192,192)" ry="0" rx="0"></rect><rect style=""  visibility="visible" fill-opacity="0.000001"  stroke-width="0" height="791" width="3" y="51" x="195" fill="rgb(192,192,192)" ry="0" rx="0"></rect><rect style=""  visibility="visible" fill-opacity="0.000001"  stroke-width="0" height="235" width="3" y="607" x="185" fill="rgb(192,192,192)" ry="0" rx="0"></rect><rect style=""  visibility="visible" fill-opacity="0.000001"  stroke-width="0" height="564" width="3" y="278" x="174" fill="rgb(192,192,192)" ry="0" rx="0"></rect><rect style=""  visibility="visible" fill-opacity="0.000001"  stroke-width="0" height="513" width="3" y="329" x="163" fill="rgb(192,192,192)" ry="0" rx="0"></rect><rect style=""  visibility="visible" fill-opacity="0.000001"  stroke-width="0" height="328" width="3" y="514" x="153" fill="rgb(192,192,192)" ry="0" rx="0"></rect><rect style=""  visibility="visible" fill-opacity="0.000001"  stroke-width="0" height="791" width="3" y="51" x="142" fill="rgb(192,192,192)" ry="0" rx="0"></rect><rect style=""  visibility="visible" fill-opacity="0.000001"  stroke-width="0" height="277" width="3" y="565" x="131" fill="rgb(192,192,192)" ry="0" rx="0"></rect><rect style=""  visibility="visible" fill-opacity="0.000001"  stroke-width="0" height="277" width="3" y="565" x="121" fill="rgb(192,192,192)" ry="0" rx="0"></rect><rect style=""  visibility="visible" fill-opacity="0.000001"  stroke-width="0" height="606" width="3" y="236" x="110" fill="rgb(192,192,192)" ry="0" rx="0"></rect><rect style=""  visibility="visible" fill-opacity="0.000001"  stroke-width="0" height="606" width="3" y="236" x="99" fill="rgb(192,192,192)" ry="0" rx="0"></rect><rect style=""  visibility="visible" fill-opacity="0.000001"  stroke-width="0" height="606" width="3" y="236" x="88" fill="rgb(192,192,192)" ry="0" rx="0"></rect><rect style=""  visibility="visible" fill-opacity="0.000001"  stroke-width="0" height="564" width="3" y="278" x="78" fill="rgb(192,192,192)" ry="0" rx="0"></rect><rect style=""  visibility="visible" fill-opacity="0.000001"  stroke-width="0" height="513" width="3" y="329" x="67" fill="rgb(192,192,192)" ry="0" rx="0"></rect><rect style=""  visibility="visible" fill-opacity="0.000001"  stroke-width="0" height="50" width="3" y="792" x="56" fill="rgb(192,192,192)" ry="0" rx="0"></rect><rect style=""  visibility="visible" fill-opacity="0.000001"  stroke-width="0" height="471" width="3" y="371" x="46" fill="rgb(192,192,192)" ry="0" rx="0"></rect><rect style=""  visibility="visible" fill-opacity="0.000001"  stroke-width="0" height="277" width="3" y="565" x="35" fill="rgb(192,192,192)" ry="0" rx="0"></rect><rect style=""  visibility="visible" fill-opacity="0.000001"  stroke-width="0" height="749" width="3" y="93" x="24" fill="rgb(192,192,192)" ry="0" rx="0"></rect><rect style=""  visibility="visible" fill-opacity="0.000001"  stroke-width="0" height="606" width="3" y="236" x="14" fill="rgb(192,192,192)" ry="0" rx="0"></rect><rect style=""  visibility="visible" fill-opacity="0.000001"  stroke-width="0" height="631" width="3" y="211" x="3" fill="rgb(192,192,192)" ry="0" rx="0"></rect></g></svg>