<svg xmlns:xlink="http://www.w3.org/1999/xlink" xmlns="http://www.w3.org/2000/svg" version="1.1" width="958" height="500" style="direction: ltr;"><defs><clipPath id="highcharts-11"><rect rx="0" ry="0" fill="none" x="0" y="0" width="907" height="345" stroke-width="0.000001"></rect></clipPath></defs><rect rx="5" ry="5" fill="#ffffff" x="0" y="0" width="958" height="500" stroke-width="0.000001" stroke="#d3d3d3"></rect><rect rx="0" ry="0" fill="#ffffff" x="41" y="40" width="907" height="345" stroke-width="0.000001"></rect><rect rx="5" ry="5" fill="none" x="-5" y="-5" width="10" height="10" stroke-width="0.000001" border="0"></rect><text x="479" y="25" style="font-family:'lucida grande', 'lucida sans unicode', verdana, arial, helvetica, sans-serif;font-size:16px;color:#000000;font:normal 15px arial;font-weight:normal;text-decoration:none;width:600px;fill:#000000;" text-anchor="middle" class="highcharts-title" ><tspan x="479">E2 : Temperature - Percent, 2014.07</tspan></text><g class="highcharts-grid" ></g><g class="highcharts-grid" ></g><g class="highcharts-series-group" ><g class="highcharts-series" clip-path="url(#highcharts-11)" visibility="visible" transform="translate(41,40)"><rect rx="0" ry="0" fill="#FAF8C6" x="7" y="135" width="8" height="210" stroke-width="0.000001" stroke="#FFFFFF" r="0"></rect><rect rx="0" ry="0" fill="#FAF8C6" x="30" y="114" width="8" height="231" stroke-width="0.000001" stroke="#FFFFFF" r="0"></rect><rect rx="0" ry="0" fill="#FAF8C6" x="53" y="135" width="8" height="210" stroke-width="0.000001" stroke="#FFFFFF" r="0"></rect><rect rx="0" ry="0" fill="#FAF8C6" x="77" y="211" width="8" height="134" stroke-width="0.000001" stroke="#FFFFFF" r="0"></rect><rect rx="0" ry="0" fill="#FAF8C6" x="100" y="114" width="8" height="231" stroke-width="0.000001" stroke="#FFFFFF" r="0"></rect><rect rx="0" ry="0" fill="#FAF8C6" x="123" y="145" width="8" height="200" stroke-width="0.000001" stroke="#FFFFFF" r="0"></rect><rect rx="0" ry="0" fill="#FAF8C6" x="146" y="49" width="8" height="296" stroke-width="0.000001" stroke="#FFFFFF" r="0"></rect><rect rx="0" ry="0" fill="#FAF8C6" x="170" y="97" width="8" height="248" stroke-width="0.000001" stroke="#FFFFFF" r="0"></rect><rect rx="0" ry="0" fill="#FAF8C6" x="193" y="49" width="8" height="296" stroke-width="0.000001" stroke="#FFFFFF" r="0"></rect><rect rx="0" ry="0" fill="#FAF8C6" x="216" y="97" width="8" height="248" stroke-width="0.000001" stroke="#FFFFFF" r="0"></rect><rect rx="0" ry="0" fill="#FAF8C6" x="240" y="135" width="8" height="210" stroke-width="0.000001" stroke="#FFFFFF" r="0"></rect><rect rx="0" ry="0" fill="#FAF8C6" x="263" y="163" width="8" height="182" stroke-width="0.000001" stroke="#FFFFFF" r="0"></rect><rect rx="0" ry="0" fill="#FAF8C6" x="286" y="114" width="8" height="231" stroke-width="0.000001" stroke="#FFFFFF" r="0"></rect><rect rx="0" ry="0" fill="#FAF8C6" x="309" y="135" width="8" height="210" stroke-width="0.000001" stroke="#FFFFFF" r="0"></rect><rect rx="0" ry="0" fill="#FAF8C6" x="333" y="194" width="8" height="151" stroke-width="0.000001" stroke="#FFFFFF" r="0"></rect><rect rx="0" ry="0" fill="#FAF8C6" x="356" y="97" width="8" height="248" stroke-width="0.000001" stroke="#FFFFFF" r="0"></rect><rect rx="0" ry="0" fill="#FAF8C6" x="379" y="97" width="8" height="248" stroke-width="0.000001" stroke="#FFFFFF" r="0"></rect><rect rx="0" ry="0" fill="#FAF8C6" x="402" y="194" width="8" height="151" stroke-width="0.000001" stroke="#FFFFFF" r="0"></rect><rect rx="0" ry="0" fill="#FAF8C6" x="426" y="249" width="8" height="96" stroke-width="0.000001" stroke="#FFFFFF" r="0"></rect><rect rx="0" ry="0" fill="#FAF8C6" x="449" y="38" width="8" height="307" stroke-width="0.000001" stroke="#FFFFFF" r="0"></rect><rect rx="0" ry="0" fill="#FAF8C6" x="472" y="21" width="8" height="324" stroke-width="0.000001" stroke="#FFFFFF" r="0"></rect><rect rx="0" ry="0" fill="#FAF8C6" x="495" y="249" width="8" height="96" stroke-width="0.000001" stroke="#FFFFFF" r="0"></rect><rect rx="0" ry="0" fill="#FAF8C6" x="519" y="114" width="8" height="231" stroke-width="0.000001" stroke="#FFFFFF" r="0"></rect><rect rx="0" ry="0" fill="#FAF8C6" x="542" y="135" width="8" height="210" stroke-width="0.000001" stroke="#FFFFFF" r="0"></rect><rect rx="0" ry="0" fill="#FAF8C6" x="565" y="211" width="8" height="134" stroke-width="0.000001" stroke="#FFFFFF" r="0"></rect><rect rx="0" ry="0" fill="#FAF8C6" x="588" y="21" width="8" height="324" stroke-width="0.000001" stroke="#FFFFFF" r="0"></rect><rect rx="0" ry="0" fill="#FAF8C6" x="612" y="232" width="8" height="113" stroke-width="0.000001" stroke="#FFFFFF" r="0"></rect><rect rx="0" ry="0" fill="#FAF8C6" x="635" y="232" width="8" height="113" stroke-width="0.000001" stroke="#FFFFFF" r="0"></rect><rect rx="0" ry="0" fill="#FAF8C6" x="658" y="97" width="8" height="248" stroke-width="0.000001" stroke="#FFFFFF" r="0"></rect><rect rx="0" ry="0" fill="#FAF8C6" x="681" y="97" width="8" height="248" stroke-width="0.000001" stroke="#FFFFFF" r="0"></rect><rect rx="0" ry="0" fill="#FAF8C6" x="705" y="97" width="8" height="248" stroke-width="0.000001" stroke="#FFFFFF" r="0"></rect><rect rx="0" ry="0" fill="#FAF8C6" x="728" y="114" width="8" height="231" stroke-width="0.000001" stroke="#FFFFFF" r="0"></rect><rect rx="0" ry="0" fill="#FAF8C6" x="751" y="135" width="8" height="210" stroke-width="0.000001" stroke="#FFFFFF" r="0"></rect><rect rx="0" ry="0" fill="#FAF8C6" x="774" y="325" width="8" height="20" stroke-width="0.000001" stroke="#FFFFFF" r="0"></rect><rect rx="0" ry="0" fill="#FAF8C6" x="798" y="152" width="8" height="193" stroke-width="0.000001" stroke="#FFFFFF" r="0"></rect><rect rx="0" ry="0" fill="#FAF8C6" x="821" y="232" width="8" height="113" stroke-width="0.000001" stroke="#FFFFFF" r="0"></rect><rect rx="0" ry="0" fill="#FAF8C6" x="844" y="38" width="8" height="307" stroke-width="0.000001" stroke="#FFFFFF" r="0"></rect><rect rx="0" ry="0" fill="#FAF8C6" x="867" y="97" width="8" height="248" stroke-width="0.000001" stroke="#FFFFFF" r="0"></rect><rect rx="0" ry="0" fill="#FAF8C6" x="891" y="87" width="8" height="258" stroke-width="0.000001" stroke="#FFFFFF" r="0"></rect></g></g><text x="20" y="500" style="font-family:'lucida grande', 'lucida sans unicode', verdana, arial, helvetica, sans-serif;font-size:12px;color:#4572a7;font:normal 10px arial;font-weight:normal;text-decoration:none;fill:#4572a7;" ><tspan x="20"> </tspan></text><text x="50" y="50" style="font-family:'lucida grande', 'lucida sans unicode', verdana, arial, helvetica, sans-serif;font-size:12px;color:#4572a7;font:normal 10px arial;font-weight:normal;text-decoration:none;fill:#4572a7;" ><tspan x="50"> </tspan></text><g class="highcharts-axis" ><text x="52.628205128205124" y="405" style="font-family:'lucida grande', 'lucida sans unicode', verdana, arial, helvetica, sans-serif;font-size:11px;color:#000000;line-height:14px;font:normal 11px arial;font-weight:normal;text-decoration:none;width:100px;fill:#000000;" text-anchor="end" transform="rotate(270 52.628205128205124 405)"><tspan x="52.628205128205124">Araria</tspan></text><text x="75.88461538461539" y="405" style="font-family:'lucida grande', 'lucida sans unicode', verdana, arial, helvetica, sans-serif;font-size:11px;color:#000000;line-height:14px;font:normal 11px arial;font-weight:normal;text-decoration:none;width:100px;fill:#000000;" text-anchor="end" transform="rotate(270 75.88461538461539 405)"><tspan x="75.88461538461539">Arwal</tspan></text><text x="99.14102564102565" y="405" style="font-family:'lucida grande', 'lucida sans unicode', verdana, arial, helvetica, sans-serif;font-size:11px;color:#000000;line-height:14px;font:normal 11px arial;font-weight:normal;text-decoration:none;width:100px;fill:#000000;" text-anchor="end" transform="rotate(270 99.14102564102565 405)"><tspan x="99.14102564102565">Aurangaabad</tspan></text><text x="122.3974358974359" y="405" style="font-family:'lucida grande', 'lucida sans unicode', verdana, arial, helvetica, sans-serif;font-size:11px;color:#000000;line-height:14px;font:normal 11px arial;font-weight:normal;text-decoration:none;width:100px;fill:#000000;" text-anchor="end" transform="rotate(270 122.3974358974359 405)"><tspan x="122.3974358974359">Banka</tspan></text><text x="145.65384615384613" y="405" style="font-family:'lucida grande', 'lucida sans unicode', verdana, arial, helvetica, sans-serif;font-size:11px;color:#000000;line-height:14px;font:normal 11px arial;font-weight:normal;text-decoration:none;width:100px;fill:#000000;" text-anchor="end" transform="rotate(270 145.65384615384613 405)"><tspan x="145.65384615384613">Begusarai</tspan></text><text x="168.9102564102564" y="405" style="font-family:'lucida grande', 'lucida sans unicode', verdana, arial, helvetica, sans-serif;font-size:11px;color:#000000;line-height:14px;font:normal 11px arial;font-weight:normal;text-decoration:none;width:100px;fill:#000000;" text-anchor="end" transform="rotate(270 168.9102564102564 405)"><tspan x="168.9102564102564">Bhagalpur</tspan></text><text x="192.16666666666666" y="405" style="font-family:'lucida grande', 'lucida sans unicode', verdana, arial, helvetica, sans-serif;font-size:11px;color:#000000;line-height:14px;font:normal 11px arial;font-weight:normal;text-decoration:none;width:100px;fill:#000000;" text-anchor="end" transform="rotate(270 192.16666666666666 405)"><tspan x="192.16666666666666">Bhojpur</tspan></text><text x="215.4230769230769" y="405" style="font-family:'lucida grande', 'lucida sans unicode', verdana, arial, helvetica, sans-serif;font-size:11px;color:#000000;line-height:14px;font:normal 11px arial;font-weight:normal;text-decoration:none;width:100px;fill:#000000;" text-anchor="end" transform="rotate(270 215.4230769230769 405)"><tspan x="215.4230769230769">Buxar</tspan></text><text x="238.67948717948715" y="405" style="font-family:'lucida grande', 'lucida sans unicode', verdana, arial, helvetica, sans-serif;font-size:11px;color:#000000;line-height:14px;font:normal 11px arial;font-weight:normal;text-decoration:none;width:100px;fill:#000000;" text-anchor="end" transform="rotate(270 238.67948717948715 405)"><tspan x="238.67948717948715">Champaran East</tspan></text><text x="261.9358974358974" y="405" style="font-family:'lucida grande', 'lucida sans unicode', verdana, arial, helvetica, sans-serif;font-size:11px;color:#000000;line-height:14px;font:normal 11px arial;font-weight:normal;text-decoration:none;width:100px;fill:#000000;" text-anchor="end" transform="rotate(270 261.9358974358974 405)"><tspan x="261.9358974358974">Champaran West</tspan></text><text x="285.1923076923077" y="405" style="font-family:'lucida grande', 'lucida sans unicode', verdana, arial, helvetica, sans-serif;font-size:11px;color:#000000;line-height:14px;font:normal 11px arial;font-weight:normal;text-decoration:none;width:100px;fill:#000000;" text-anchor="end" transform="rotate(270 285.1923076923077 405)"><tspan x="285.1923076923077">DVS</tspan></text><text x="308.44871794871796" y="405" style="font-family:'lucida grande', 'lucida sans unicode', verdana, arial, helvetica, sans-serif;font-size:11px;color:#000000;line-height:14px;font:normal 11px arial;font-weight:normal;text-decoration:none;width:100px;fill:#000000;" text-anchor="end" transform="rotate(270 308.44871794871796 405)"><tspan x="308.44871794871796">Darbhanga</tspan></text><text x="331.7051282051282" y="405" style="font-family:'lucida grande', 'lucida sans unicode', verdana, arial, helvetica, sans-serif;font-size:11px;color:#000000;line-height:14px;font:normal 11px arial;font-weight:normal;text-decoration:none;width:100px;fill:#000000;" text-anchor="end" transform="rotate(270 331.7051282051282 405)"><tspan x="331.7051282051282">Gaya</tspan></text><text x="354.96153846153845" y="405" style="font-family:'lucida grande', 'lucida sans unicode', verdana, arial, helvetica, sans-serif;font-size:11px;color:#000000;line-height:14px;font:normal 11px arial;font-weight:normal;text-decoration:none;width:100px;fill:#000000;" text-anchor="end" transform="rotate(270 354.96153846153845 405)"><tspan x="354.96153846153845">Gopalganj</tspan></text><text x="378.2179487179487" y="405" style="font-family:'lucida grande', 'lucida sans unicode', verdana, arial, helvetica, sans-serif;font-size:11px;color:#000000;line-height:14px;font:normal 11px arial;font-weight:normal;text-decoration:none;width:100px;fill:#000000;" text-anchor="end" transform="rotate(270 378.2179487179487 405)"><tspan x="378.2179487179487">Jamui</tspan></text><text x="401.47435897435895" y="405" style="font-family:'lucida grande', 'lucida sans unicode', verdana, arial, helvetica, sans-serif;font-size:11px;color:#000000;line-height:14px;font:normal 11px arial;font-weight:normal;text-decoration:none;width:100px;fill:#000000;" text-anchor="end" transform="rotate(270 401.47435897435895 405)"><tspan x="401.47435897435895">Jehanabad</tspan></text><text x="424.7307692307692" y="405" style="font-family:'lucida grande', 'lucida sans unicode', verdana, arial, helvetica, sans-serif;font-size:11px;color:#000000;line-height:14px;font:normal 11px arial;font-weight:normal;text-decoration:none;width:100px;fill:#000000;" text-anchor="end" transform="rotate(270 424.7307692307692 405)"><tspan x="424.7307692307692">Kaimur</tspan></text><text x="447.98717948717945" y="405" style="font-family:'lucida grande', 'lucida sans unicode', verdana, arial, helvetica, sans-serif;font-size:11px;color:#000000;line-height:14px;font:normal 11px arial;font-weight:normal;text-decoration:none;width:100px;fill:#000000;" text-anchor="end" transform="rotate(270 447.98717948717945 405)"><tspan x="447.98717948717945">Katihar</tspan></text><text x="471.2435897435897" y="405" style="font-family:'lucida grande', 'lucida sans unicode', verdana, arial, helvetica, sans-serif;font-size:11px;color:#000000;line-height:14px;font:normal 11px arial;font-weight:normal;text-decoration:none;width:100px;fill:#000000;" text-anchor="end" transform="rotate(270 471.2435897435897 405)"><tspan x="471.2435897435897">Khagaria</tspan></text><text x="494.49999999999994" y="405" style="font-family:'lucida grande', 'lucida sans unicode', verdana, arial, helvetica, sans-serif;font-size:11px;color:#000000;line-height:14px;font:normal 11px arial;font-weight:normal;text-decoration:none;width:100px;fill:#000000;" text-anchor="end" transform="rotate(270 494.49999999999994 405)"><tspan x="494.49999999999994">Kishanganj</tspan></text><text x="517.7564102564103" y="405" style="font-family:'lucida grande', 'lucida sans unicode', verdana, arial, helvetica, sans-serif;font-size:11px;color:#000000;line-height:14px;font:normal 11px arial;font-weight:normal;text-decoration:none;width:100px;fill:#000000;" text-anchor="end" transform="rotate(270 517.7564102564103 405)"><tspan x="517.7564102564103">Lakhisarai</tspan></text><text x="541.0128205128206" y="405" style="font-family:'lucida grande', 'lucida sans unicode', verdana, arial, helvetica, sans-serif;font-size:11px;color:#000000;line-height:14px;font:normal 11px arial;font-weight:normal;text-decoration:none;width:100px;fill:#000000;" text-anchor="end" transform="rotate(270 541.0128205128206 405)"><tspan x="541.0128205128206">Madhepura</tspan></text><text x="564.2692307692308" y="405" style="font-family:'lucida grande', 'lucida sans unicode', verdana, arial, helvetica, sans-serif;font-size:11px;color:#000000;line-height:14px;font:normal 11px arial;font-weight:normal;text-decoration:none;width:100px;fill:#000000;" text-anchor="end" transform="rotate(270 564.2692307692308 405)"><tspan x="564.2692307692308">Madhubani</tspan></text><text x="587.5256410256411" y="405" style="font-family:'lucida grande', 'lucida sans unicode', verdana, arial, helvetica, sans-serif;font-size:11px;color:#000000;line-height:14px;font:normal 11px arial;font-weight:normal;text-decoration:none;width:100px;fill:#000000;" text-anchor="end" transform="rotate(270 587.5256410256411 405)"><tspan x="587.5256410256411">Munger</tspan></text><text x="610.7820512820513" y="405" style="font-family:'lucida grande', 'lucida sans unicode', verdana, arial, helvetica, sans-serif;font-size:11px;color:#000000;line-height:14px;font:normal 11px arial;font-weight:normal;text-decoration:none;width:100px;fill:#000000;" text-anchor="end" transform="rotate(270 610.7820512820513 405)"><tspan x="610.7820512820513">Muzaffarpur</tspan></text><text x="634.0384615384615" y="405" style="font-family:'lucida grande', 'lucida sans unicode', verdana, arial, helvetica, sans-serif;font-size:11px;color:#000000;line-height:14px;font:normal 11px arial;font-weight:normal;text-decoration:none;width:100px;fill:#000000;" text-anchor="end" transform="rotate(270 634.0384615384615 405)"><tspan x="634.0384615384615">Nalanda</tspan></text><text x="657.2948717948718" y="405" style="font-family:'lucida grande', 'lucida sans unicode', verdana, arial, helvetica, sans-serif;font-size:11px;color:#000000;line-height:14px;font:normal 11px arial;font-weight:normal;text-decoration:none;width:100px;fill:#000000;" text-anchor="end" transform="rotate(270 657.2948717948718 405)"><tspan x="657.2948717948718">Nawada</tspan></text><text x="680.5512820512821" y="405" style="font-family:'lucida grande', 'lucida sans unicode', verdana, arial, helvetica, sans-serif;font-size:11px;color:#000000;line-height:14px;font:normal 11px arial;font-weight:normal;text-decoration:none;width:100px;fill:#000000;" text-anchor="end" transform="rotate(270 680.5512820512821 405)"><tspan x="680.5512820512821">Patna</tspan></text><text x="703.8076923076924" y="405" style="font-family:'lucida grande', 'lucida sans unicode', verdana, arial, helvetica, sans-serif;font-size:11px;color:#000000;line-height:14px;font:normal 11px arial;font-weight:normal;text-decoration:none;width:100px;fill:#000000;" text-anchor="end" transform="rotate(270 703.8076923076924 405)"><tspan x="703.8076923076924">Purnia</tspan></text><text x="727.0641025641025" y="405" style="font-family:'lucida grande', 'lucida sans unicode', verdana, arial, helvetica, sans-serif;font-size:11px;color:#000000;line-height:14px;font:normal 11px arial;font-weight:normal;text-decoration:none;width:100px;fill:#000000;" text-anchor="end" transform="rotate(270 727.0641025641025 405)"><tspan x="727.0641025641025">Rohtas</tspan></text><text x="750.3205128205128" y="405" style="font-family:'lucida grande', 'lucida sans unicode', verdana, arial, helvetica, sans-serif;font-size:11px;color:#000000;line-height:14px;font:normal 11px arial;font-weight:normal;text-decoration:none;width:100px;fill:#000000;" text-anchor="end" transform="rotate(270 750.3205128205128 405)"><tspan x="750.3205128205128">Saharsa</tspan></text><text x="773.5769230769231" y="405" style="font-family:'lucida grande', 'lucida sans unicode', verdana, arial, helvetica, sans-serif;font-size:11px;color:#000000;line-height:14px;font:normal 11px arial;font-weight:normal;text-decoration:none;width:100px;fill:#000000;" text-anchor="end" transform="rotate(270 773.5769230769231 405)"><tspan x="773.5769230769231">Samastipur</tspan></text><text x="796.8333333333334" y="405" style="font-family:'lucida grande', 'lucida sans unicode', verdana, arial, helvetica, sans-serif;font-size:11px;color:#000000;line-height:14px;font:normal 11px arial;font-weight:normal;text-decoration:none;width:100px;fill:#000000;" text-anchor="end" transform="rotate(270 796.8333333333334 405)"><tspan x="796.8333333333334">Saran</tspan></text><text x="820.0897435897436" y="405" style="font-family:'lucida grande', 'lucida sans unicode', verdana, arial, helvetica, sans-serif;font-size:11px;color:#000000;line-height:14px;font:normal 11px arial;font-weight:normal;text-decoration:none;width:100px;fill:#000000;" text-anchor="end" transform="rotate(270 820.0897435897436 405)"><tspan x="820.0897435897436">Sheikhpura</tspan></text><text x="843.3461538461538" y="405" style="font-family:'lucida grande', 'lucida sans unicode', verdana, arial, helvetica, sans-serif;font-size:11px;color:#000000;line-height:14px;font:normal 11px arial;font-weight:normal;text-decoration:none;width:100px;fill:#000000;" text-anchor="end" transform="rotate(270 843.3461538461538 405)"><tspan x="843.3461538461538">Sheohar</tspan></text><text x="866.6025641025641" y="405" style="font-family:'lucida grande', 'lucida sans unicode', verdana, arial, helvetica, sans-serif;font-size:11px;color:#000000;line-height:14px;font:normal 11px arial;font-weight:normal;text-decoration:none;width:100px;fill:#000000;" text-anchor="end" transform="rotate(270 866.6025641025641 405)"><tspan x="866.6025641025641">Sitamarhi</tspan></text><text x="889.8589743589744" y="405" style="font-family:'lucida grande', 'lucida sans unicode', verdana, arial, helvetica, sans-serif;font-size:11px;color:#000000;line-height:14px;font:normal 11px arial;font-weight:normal;text-decoration:none;width:100px;fill:#000000;" text-anchor="end" transform="rotate(270 889.8589743589744 405)"><tspan x="889.8589743589744">Siwan</tspan></text><text x="913.1153846153846" y="405" style="font-family:'lucida grande', 'lucida sans unicode', verdana, arial, helvetica, sans-serif;font-size:11px;color:#000000;line-height:14px;font:normal 11px arial;font-weight:normal;text-decoration:none;width:100px;fill:#000000;" text-anchor="end" transform="rotate(270 913.1153846153846 405)"><tspan x="913.1153846153846">Supaul</tspan></text><text x="936.3717948717949" y="405" style="font-family:'lucida grande', 'lucida sans unicode', verdana, arial, helvetica, sans-serif;font-size:11px;color:#000000;line-height:14px;font:normal 11px arial;font-weight:normal;text-decoration:none;width:100px;fill:#000000;" text-anchor="end" transform="rotate(270 936.3717948717949 405)"><tspan x="936.3717948717949">Vaishali</tspan></text><path d="M 64.5 385 L 64.5 390" fill="none" stroke="#C0D0E0" stroke-width="1"></path><path d="M 88.5 385 L 88.5 390" fill="none" stroke="#C0D0E0" stroke-width="1"></path><path d="M 111.5 385 L 111.5 390" fill="none" stroke="#C0D0E0" stroke-width="1"></path><path d="M 134.5 385 L 134.5 390" fill="none" stroke="#C0D0E0" stroke-width="1"></path><path d="M 157.5 385 L 157.5 390" fill="none" stroke="#C0D0E0" stroke-width="1"></path><path d="M 181.5 385 L 181.5 390" fill="none" stroke="#C0D0E0" stroke-width="1"></path><path d="M 204.5 385 L 204.5 390" fill="none" stroke="#C0D0E0" stroke-width="1"></path><path d="M 227.5 385 L 227.5 390" fill="none" stroke="#C0D0E0" stroke-width="1"></path><path d="M 250.5 385 L 250.5 390" fill="none" stroke="#C0D0E0" stroke-width="1"></path><path d="M 274.5 385 L 274.5 390" fill="none" stroke="#C0D0E0" stroke-width="1"></path><path d="M 297.5 385 L 297.5 390" fill="none" stroke="#C0D0E0" stroke-width="1"></path><path d="M 320.5 385 L 320.5 390" fill="none" stroke="#C0D0E0" stroke-width="1"></path><path d="M 343.5 385 L 343.5 390" fill="none" stroke="#C0D0E0" stroke-width="1"></path><path d="M 367.5 385 L 367.5 390" fill="none" stroke="#C0D0E0" stroke-width="1"></path><path d="M 390.5 385 L 390.5 390" fill="none" stroke="#C0D0E0" stroke-width="1"></path><path d="M 413.5 385 L 413.5 390" fill="none" stroke="#C0D0E0" stroke-width="1"></path><path d="M 436.5 385 L 436.5 390" fill="none" stroke="#C0D0E0" stroke-width="1"></path><path d="M 460.5 385 L 460.5 390" fill="none" stroke="#C0D0E0" stroke-width="1"></path><path d="M 483.5 385 L 483.5 390" fill="none" stroke="#C0D0E0" stroke-width="1"></path><path d="M 506.5 385 L 506.5 390" fill="none" stroke="#C0D0E0" stroke-width="1"></path><path d="M 529.5 385 L 529.5 390" fill="none" stroke="#C0D0E0" stroke-width="1"></path><path d="M 553.5 385 L 553.5 390" fill="none" stroke="#C0D0E0" stroke-width="1"></path><path d="M 576.5 385 L 576.5 390" fill="none" stroke="#C0D0E0" stroke-width="1"></path><path d="M 599.5 385 L 599.5 390" fill="none" stroke="#C0D0E0" stroke-width="1"></path><path d="M 622.5 385 L 622.5 390" fill="none" stroke="#C0D0E0" stroke-width="1"></path><path d="M 646.5 385 L 646.5 390" fill="none" stroke="#C0D0E0" stroke-width="1"></path><path d="M 669.5 385 L 669.5 390" fill="none" stroke="#C0D0E0" stroke-width="1"></path><path d="M 692.5 385 L 692.5 390" fill="none" stroke="#C0D0E0" stroke-width="1"></path><path d="M 715.5 385 L 715.5 390" fill="none" stroke="#C0D0E0" stroke-width="1"></path><path d="M 739.5 385 L 739.5 390" fill="none" stroke="#C0D0E0" stroke-width="1"></path><path d="M 762.5 385 L 762.5 390" fill="none" stroke="#C0D0E0" stroke-width="1"></path><path d="M 785.5 385 L 785.5 390" fill="none" stroke="#C0D0E0" stroke-width="1"></path><path d="M 808.5 385 L 808.5 390" fill="none" stroke="#C0D0E0" stroke-width="1"></path><path d="M 832.5 385 L 832.5 390" fill="none" stroke="#C0D0E0" stroke-width="1"></path><path d="M 855.5 385 L 855.5 390" fill="none" stroke="#C0D0E0" stroke-width="1"></path><path d="M 878.5 385 L 878.5 390" fill="none" stroke="#C0D0E0" stroke-width="1"></path><path d="M 901.5 385 L 901.5 390" fill="none" stroke="#C0D0E0" stroke-width="1"></path><path d="M 925.5 385 L 925.5 390" fill="none" stroke="#C0D0E0" stroke-width="1"></path><path d="M 948.5 385 L 948.5 390" fill="none" stroke="#C0D0E0" stroke-width="1"></path></g><g class="highcharts-axis" ><text x="31" y="390" style="font-family:'lucida grande', 'lucida sans unicode', verdana, arial, helvetica, sans-serif;font-size:11px;width:100px;color:#000000;line-height:14px;font:normal 12px arial;font-weight:normal;text-decoration:none;fill:#000000;" text-anchor="end"><tspan x="31">0</tspan></text><text x="31" y="321" style="font-family:'lucida grande', 'lucida sans unicode', verdana, arial, helvetica, sans-serif;font-size:11px;width:100px;color:#000000;line-height:14px;font:normal 12px arial;font-weight:normal;text-decoration:none;fill:#000000;" text-anchor="end"><tspan x="31">20</tspan></text><text x="31" y="252" style="font-family:'lucida grande', 'lucida sans unicode', verdana, arial, helvetica, sans-serif;font-size:11px;width:100px;color:#000000;line-height:14px;font:normal 12px arial;font-weight:normal;text-decoration:none;fill:#000000;" text-anchor="end"><tspan x="31">40</tspan></text><text x="31" y="183" style="font-family:'lucida grande', 'lucida sans unicode', verdana, arial, helvetica, sans-serif;font-size:11px;width:100px;color:#000000;line-height:14px;font:normal 12px arial;font-weight:normal;text-decoration:none;fill:#000000;" text-anchor="end"><tspan x="31">60</tspan></text><text x="31" y="114" style="font-family:'lucida grande', 'lucida sans unicode', verdana, arial, helvetica, sans-serif;font-size:11px;width:100px;color:#000000;line-height:14px;font:normal 12px arial;font-weight:normal;text-decoration:none;fill:#000000;" text-anchor="end"><tspan x="31">80</tspan></text><text x="31" y="45" style="font-family:'lucida grande', 'lucida sans unicode', verdana, arial, helvetica, sans-serif;font-size:11px;width:100px;color:#000000;line-height:14px;font:normal 12px arial;font-weight:normal;text-decoration:none;fill:#000000;" text-anchor="end"><tspan x="31">100</tspan></text></g><path d="M 41 385.5 L 948 385.5" fill="none" stroke="#C0D0E0" stroke-width="1" ></path><path d="M 41.5 40 L 41.5 385" fill="none" stroke="#C0D0E0" stroke-width="1" ></path><g class="highcharts-tooltip"  visibility="hidden"><rect rx="5" ry="5" fill="none" x="7" y="7" width="0" height="0" stroke-width="5" fill-opacity="0.85"  stroke="rgb(0, 0, 0)" stroke-opacity="0.05" transform="translate(1,1)"></rect><rect rx="5" ry="5" fill="none" x="7" y="7" width="0" height="0" stroke-width="3" fill-opacity="0.85"  stroke="rgb(0, 0, 0)" stroke-opacity="0.1" transform="translate(1,1)"></rect><rect rx="5" ry="5" fill="none" x="7" y="7" width="0" height="0" stroke-width="1" fill-opacity="0.85"  stroke="rgb(0, 0, 0)" stroke-opacity="0.15000000000000002" transform="translate(1,1)"></rect><rect rx="5" ry="5" fill="rgb(255,255,255)" x="7" y="7" width="0" height="0" stroke-width="2" fill-opacity="0.85"></rect><text x="12" y="24" style="font-family:'lucida grande', 'lucida sans unicode', verdana, arial, helvetica, sans-serif;font-size:12px;color:#333333;padding:0;white-space:nowrap;width:500px;fill:#333333;" ><tspan x="12"> </tspan></text></g><text x="948" y="495" style="font-family:'lucida grande', 'lucida sans unicode', verdana, arial, helvetica, sans-serif;font-size:10px;cursor:pointer;color:#909090;fill:#909090;" text-anchor="end" ><tspan x="948"> </tspan></text><g class="highcharts-tracker"  transform="translate(41,40)"><rect rx="0" ry="0" fill="rgb(192,192,192)" x="7" y="135" width="8" height="210" stroke-width="0.000001"  fill-opacity="0.000001" visibility="visible"  style=""></rect><rect rx="0" ry="0" fill="rgb(192,192,192)" x="30" y="114" width="8" height="231" stroke-width="0.000001"  fill-opacity="0.000001" visibility="visible"  style=""></rect><rect rx="0" ry="0" fill="rgb(192,192,192)" x="53" y="135" width="8" height="210" stroke-width="0.000001"  fill-opacity="0.000001" visibility="visible"  style=""></rect><rect rx="0" ry="0" fill="rgb(192,192,192)" x="77" y="211" width="8" height="134" stroke-width="0.000001"  fill-opacity="0.000001" visibility="visible"  style=""></rect><rect rx="0" ry="0" fill="rgb(192,192,192)" x="100" y="114" width="8" height="231" stroke-width="0.000001"  fill-opacity="0.000001" visibility="visible"  style=""></rect><rect rx="0" ry="0" fill="rgb(192,192,192)" x="123" y="145" width="8" height="200" stroke-width="0.000001"  fill-opacity="0.000001" visibility="visible"  style=""></rect><rect rx="0" ry="0" fill="rgb(192,192,192)" x="146" y="49" width="8" height="296" stroke-width="0.000001"  fill-opacity="0.000001" visibility="visible"  style=""></rect><rect rx="0" ry="0" fill="rgb(192,192,192)" x="170" y="97" width="8" height="248" stroke-width="0.000001"  fill-opacity="0.000001" visibility="visible"  style=""></rect><rect rx="0" ry="0" fill="rgb(192,192,192)" x="193" y="49" width="8" height="296" stroke-width="0.000001"  fill-opacity="0.000001" visibility="visible"  style=""></rect><rect rx="0" ry="0" fill="rgb(192,192,192)" x="216" y="97" width="8" height="248" stroke-width="0.000001"  fill-opacity="0.000001" visibility="visible"  style=""></rect><rect rx="0" ry="0" fill="rgb(192,192,192)" x="240" y="135" width="8" height="210" stroke-width="0.000001"  fill-opacity="0.000001" visibility="visible"  style=""></rect><rect rx="0" ry="0" fill="rgb(192,192,192)" x="263" y="163" width="8" height="182" stroke-width="0.000001"  fill-opacity="0.000001" visibility="visible"  style=""></rect><rect rx="0" ry="0" fill="rgb(192,192,192)" x="286" y="114" width="8" height="231" stroke-width="0.000001"  fill-opacity="0.000001" visibility="visible"  style=""></rect><rect rx="0" ry="0" fill="rgb(192,192,192)" x="309" y="135" width="8" height="210" stroke-width="0.000001"  fill-opacity="0.000001" visibility="visible"  style=""></rect><rect rx="0" ry="0" fill="rgb(192,192,192)" x="333" y="194" width="8" height="151" stroke-width="0.000001"  fill-opacity="0.000001" visibility="visible"  style=""></rect><rect rx="0" ry="0" fill="rgb(192,192,192)" x="356" y="97" width="8" height="248" stroke-width="0.000001"  fill-opacity="0.000001" visibility="visible"  style=""></rect><rect rx="0" ry="0" fill="rgb(192,192,192)" x="379" y="97" width="8" height="248" stroke-width="0.000001"  fill-opacity="0.000001" visibility="visible"  style=""></rect><rect rx="0" ry="0" fill="rgb(192,192,192)" x="402" y="194" width="8" height="151" stroke-width="0.000001"  fill-opacity="0.000001" visibility="visible"  style=""></rect><rect rx="0" ry="0" fill="rgb(192,192,192)" x="426" y="249" width="8" height="96" stroke-width="0.000001"  fill-opacity="0.000001" visibility="visible"  style=""></rect><rect rx="0" ry="0" fill="rgb(192,192,192)" x="449" y="38" width="8" height="307" stroke-width="0.000001"  fill-opacity="0.000001" visibility="visible"  style=""></rect><rect rx="0" ry="0" fill="rgb(192,192,192)" x="472" y="21" width="8" height="324" stroke-width="0.000001"  fill-opacity="0.000001" visibility="visible"  style=""></rect><rect rx="0" ry="0" fill="rgb(192,192,192)" x="495" y="249" width="8" height="96" stroke-width="0.000001"  fill-opacity="0.000001" visibility="visible"  style=""></rect><rect rx="0" ry="0" fill="rgb(192,192,192)" x="519" y="114" width="8" height="231" stroke-width="0.000001"  fill-opacity="0.000001" visibility="visible"  style=""></rect><rect rx="0" ry="0" fill="rgb(192,192,192)" x="542" y="135" width="8" height="210" stroke-width="0.000001"  fill-opacity="0.000001" visibility="visible"  style=""></rect><rect rx="0" ry="0" fill="rgb(192,192,192)" x="565" y="211" width="8" height="134" stroke-width="0.000001"  fill-opacity="0.000001" visibility="visible"  style=""></rect><rect rx="0" ry="0" fill="rgb(192,192,192)" x="588" y="21" width="8" height="324" stroke-width="0.000001"  fill-opacity="0.000001" visibility="visible"  style=""></rect><rect rx="0" ry="0" fill="rgb(192,192,192)" x="612" y="232" width="8" height="113" stroke-width="0.000001"  fill-opacity="0.000001" visibility="visible"  style=""></rect><rect rx="0" ry="0" fill="rgb(192,192,192)" x="635" y="232" width="8" height="113" stroke-width="0.000001"  fill-opacity="0.000001" visibility="visible"  style=""></rect><rect rx="0" ry="0" fill="rgb(192,192,192)" x="658" y="97" width="8" height="248" stroke-width="0.000001"  fill-opacity="0.000001" visibility="visible"  style=""></rect><rect rx="0" ry="0" fill="rgb(192,192,192)" x="681" y="97" width="8" height="248" stroke-width="0.000001"  fill-opacity="0.000001" visibility="visible"  style=""></rect><rect rx="0" ry="0" fill="rgb(192,192,192)" x="705" y="97" width="8" height="248" stroke-width="0.000001"  fill-opacity="0.000001" visibility="visible"  style=""></rect><rect rx="0" ry="0" fill="rgb(192,192,192)" x="728" y="114" width="8" height="231" stroke-width="0.000001"  fill-opacity="0.000001" visibility="visible"  style=""></rect><rect rx="0" ry="0" fill="rgb(192,192,192)" x="751" y="135" width="8" height="210" stroke-width="0.000001"  fill-opacity="0.000001" visibility="visible"  style=""></rect><rect rx="0" ry="0" fill="rgb(192,192,192)" x="774" y="325" width="8" height="20" stroke-width="0.000001"  fill-opacity="0.000001" visibility="visible"  style=""></rect><rect rx="0" ry="0" fill="rgb(192,192,192)" x="798" y="152" width="8" height="193" stroke-width="0.000001"  fill-opacity="0.000001" visibility="visible"  style=""></rect><rect rx="0" ry="0" fill="rgb(192,192,192)" x="821" y="232" width="8" height="113" stroke-width="0.000001"  fill-opacity="0.000001" visibility="visible"  style=""></rect><rect rx="0" ry="0" fill="rgb(192,192,192)" x="844" y="38" width="8" height="307" stroke-width="0.000001"  fill-opacity="0.000001" visibility="visible"  style=""></rect><rect rx="0" ry="0" fill="rgb(192,192,192)" x="867" y="97" width="8" height="248" stroke-width="0.000001"  fill-opacity="0.000001" visibility="visible"  style=""></rect><rect rx="0" ry="0" fill="rgb(192,192,192)" x="891" y="87" width="8" height="258" stroke-width="0.000001"  fill-opacity="0.000001" visibility="visible"  style=""></rect></g></svg>