<svg xmlns:xlink="http://www.w3.org/1999/xlink" xmlns="http://www.w3.org/2000/svg" version="1.1" width="1125" height="500" style="direction: ltr;"><defs></defs><rect rx="5" ry="5" fill="#ffffff" x="0" y="0" width="1125" height="500" stroke-width="0.000001" stroke="#d3d3d3"></rect><rect rx="0" ry="0" fill="#ffffff" x="10" y="10" width="1105" height="460" stroke-width="0.000001"></rect><rect rx="5" ry="5" fill="none" x="-5" y="-5" width="10" height="10" stroke-width="0.000001" border="0"></rect><g class="highcharts-series-group" ></g><path d="M 557.5600061751629 432.49999110928115 C 552.5600061751629 432.49999110928115 552.5576355607639 424.4999914605195 552.5543759660677 413.4999919434721 L 552.5511163713716 402.4999924264247" fill="none" stroke-width="1" stroke="#827B60" visibility="visible"  transform="translate(10,10)"></path><g class="highcharts-point"  transform="translate(10,10)"><path d="M 552.4648663723626 57.50000357788929 A 172.5 172.5 0 1 1 552.4327283853461 57.50001311730526 L 552.5 230 A 0 0 0 1 0 552.5 230 Z" fill="#827B60" stroke="#FFFFFF" stroke-width="1" stroke-linejoin="round"></path><path d="M 552.9648663723626 57.50000357788929 A 172.5 172.5 0 1 1 552.9327283853461 57.50001311730526 L 553 230 A 0 0 0 1 0 553 230 Z" fill="rgb(192,192,192)"  fill-opacity="0.000001" visibility="visible"  style="cursor:pointer;"></path></g><text x="20" y="500" style="font-family:'lucida grande', 'lucida sans unicode', verdana, arial, helvetica, sans-serif;font-size:12px;color:#4572a7;font:normal 10px arial;font-weight:normal;text-decoration:none;fill:#4572a7;" ><tspan x="20"> </tspan></text><text x="50" y="50" style="font-family:'lucida grande', 'lucida sans unicode', verdana, arial, helvetica, sans-serif;font-size:12px;color:#4572a7;font:normal 10px arial;font-weight:normal;text-decoration:none;fill:#4572a7;" ><tspan x="50"> </tspan></text><g class="highcharts-data-labels" visibility="visible"  transform="translate(10,10)"><text x="562.5600061751629" y="437.49999110928115" style="font-family:'lucida grande', 'lucida sans unicode', verdana, arial, helvetica, sans-serif;font-size:11px;color:#000000;line-height:14px;font:normal 10px arial;font-weight:normal;text-decoration:none;width:150px;fill:#000000;" text-anchor="start"  visibility="visible"><tspan x="562.5600061751629">2014.12:64</tspan></text></g><g class="highcharts-tooltip"  visibility="hidden"><rect rx="5" ry="5" fill="none" x="7" y="7" width="0" height="0" stroke-width="5" fill-opacity="0.85"  stroke="rgb(0, 0, 0)" stroke-opacity="0.05" transform="translate(1,1)"></rect><rect rx="5" ry="5" fill="none" x="7" y="7" width="0" height="0" stroke-width="3" fill-opacity="0.85"  stroke="rgb(0, 0, 0)" stroke-opacity="0.1" transform="translate(1,1)"></rect><rect rx="5" ry="5" fill="none" x="7" y="7" width="0" height="0" stroke-width="1" fill-opacity="0.85"  stroke="rgb(0, 0, 0)" stroke-opacity="0.15000000000000002" transform="translate(1,1)"></rect><rect rx="5" ry="5" fill="rgb(255,255,255)" x="7" y="7" width="0" height="0" stroke-width="2" fill-opacity="0.85"></rect><text x="12" y="24" style="font-family:'lucida grande', 'lucida sans unicode', verdana, arial, helvetica, sans-serif;font-size:12px;color:#333333;padding:0;white-space:nowrap;width:600px;fill:#333333;" ><tspan x="12"> </tspan></text></g><text x="1115" y="495" style="font-family:'lucida grande', 'lucida sans unicode', verdana, arial, helvetica, sans-serif;font-size:10px;cursor:pointer;color:#909090;fill:#909090;" text-anchor="end" ><tspan x="1115"> </tspan></text><g class="highcharts-tracker"  transform="translate(10,10)"></g></svg>