<svg xmlns:xlink="http://www.w3.org/1999/xlink" style="direction: ltr;" height="500" width="958" version="1.1" xmlns="http://www.w3.org/2000/svg"><defs><clipPath id="highcharts-9"><rect stroke-width="0" height="344" width="904" y="0" x="0" fill="none" ry="0" rx="0"></rect></clipPath></defs><rect stroke="#d3d3d3" stroke-width="0" height="500" width="958" y="0" x="0" fill="#ffffff" ry="5" rx="5"></rect><rect stroke-width="0" height="344" width="904" y="40" x="44" fill="#ffffff" ry="0" rx="0"></rect><rect border="0" stroke-width="0" height="10" width="10" y="-5" x="-5" fill="none" ry="5" rx="5"></rect><text  class="highcharts-title" text-anchor="middle" style="font-family:'lucida grande', 'lucida sans unicode', verdana, arial, helvetica, sans-serif;font-size:16px;color:#000000;font:normal 15px arial;font-weight:normal;text-decoration:none;width:600px;fill:#000000;" y="25" x="479"><tspan x="479">E2 : Temperature - Percent, 2014.07</tspan></text><g  class="highcharts-grid"></g><g  class="highcharts-grid"></g><g  class="highcharts-series-group"><g transform="translate(44,40)" visibility="visible" clip-path="url(#highcharts-9)" class="highcharts-series"><rect r="0" stroke="#FFFFFF" stroke-width="0" height="209" width="8" y="135" x="7" fill="#FAF8C6" ry="0" rx="0"></rect><rect r="0" stroke="#FFFFFF" stroke-width="0" height="230" width="8" y="114" x="30" fill="#FAF8C6" ry="0" rx="0"></rect><rect r="0" stroke="#FFFFFF" stroke-width="0" height="209" width="8" y="135" x="53" fill="#FAF8C6" ry="0" rx="0"></rect><rect r="0" stroke="#FFFFFF" stroke-width="0" height="134" width="8" y="210" x="76" fill="#FAF8C6" ry="0" rx="0"></rect><rect r="0" stroke="#FFFFFF" stroke-width="0" height="230" width="8" y="114" x="100" fill="#FAF8C6" ry="0" rx="0"></rect><rect r="0" stroke="#FFFFFF" stroke-width="0" height="199" width="8" y="145" x="123" fill="#FAF8C6" ry="0" rx="0"></rect><rect r="0" stroke="#FFFFFF" stroke-width="0" height="295" width="8" y="49" x="146" fill="#FAF8C6" ry="0" rx="0"></rect><rect r="0" stroke="#FFFFFF" stroke-width="0" height="247" width="8" y="97" x="169" fill="#FAF8C6" ry="0" rx="0"></rect><rect r="0" stroke="#FFFFFF" stroke-width="0" height="295" width="8" y="49" x="192" fill="#FAF8C6" ry="0" rx="0"></rect><rect r="0" stroke="#FFFFFF" stroke-width="0" height="247" width="8" y="97" x="216" fill="#FAF8C6" ry="0" rx="0"></rect><rect r="0" stroke="#FFFFFF" stroke-width="0" height="209" width="8" y="135" x="239" fill="#FAF8C6" ry="0" rx="0"></rect><rect r="0" stroke="#FFFFFF" stroke-width="0" height="182" width="8" y="162" x="262" fill="#FAF8C6" ry="0" rx="0"></rect><rect r="0" stroke="#FFFFFF" stroke-width="0" height="230" width="8" y="114" x="285" fill="#FAF8C6" ry="0" rx="0"></rect><rect r="0" stroke="#FFFFFF" stroke-width="0" height="209" width="8" y="135" x="308" fill="#FAF8C6" ry="0" rx="0"></rect><rect r="0" stroke="#FFFFFF" stroke-width="0" height="151" width="8" y="193" x="331" fill="#FAF8C6" ry="0" rx="0"></rect><rect r="0" stroke="#FFFFFF" stroke-width="0" height="247" width="8" y="97" x="355" fill="#FAF8C6" ry="0" rx="0"></rect><rect r="0" stroke="#FFFFFF" stroke-width="0" height="247" width="8" y="97" x="378" fill="#FAF8C6" ry="0" rx="0"></rect><rect r="0" stroke="#FFFFFF" stroke-width="0" height="151" width="8" y="193" x="401" fill="#FAF8C6" ry="0" rx="0"></rect><rect r="0" stroke="#FFFFFF" stroke-width="0" height="96" width="8" y="248" x="424" fill="#FAF8C6" ry="0" rx="0"></rect><rect r="0" stroke="#FFFFFF" stroke-width="0" height="306" width="8" y="38" x="447" fill="#FAF8C6" ry="0" rx="0"></rect><rect r="0" stroke="#FFFFFF" stroke-width="0" height="323" width="8" y="21" x="471" fill="#FAF8C6" ry="0" rx="0"></rect><rect r="0" stroke="#FFFFFF" stroke-width="0" height="96" width="8" y="248" x="494" fill="#FAF8C6" ry="0" rx="0"></rect><rect r="0" stroke="#FFFFFF" stroke-width="0" height="230" width="8" y="114" x="517" fill="#FAF8C6" ry="0" rx="0"></rect><rect r="0" stroke="#FFFFFF" stroke-width="0" height="209" width="8" y="135" x="540" fill="#FAF8C6" ry="0" rx="0"></rect><rect r="0" stroke="#FFFFFF" stroke-width="0" height="134" width="8" y="210" x="563" fill="#FAF8C6" ry="0" rx="0"></rect><rect r="0" stroke="#FFFFFF" stroke-width="0" height="323" width="8" y="21" x="586" fill="#FAF8C6" ry="0" rx="0"></rect><rect r="0" stroke="#FFFFFF" stroke-width="0" height="113" width="8" y="231" x="610" fill="#FAF8C6" ry="0" rx="0"></rect><rect r="0" stroke="#FFFFFF" stroke-width="0" height="113" width="8" y="231" x="633" fill="#FAF8C6" ry="0" rx="0"></rect><rect r="0" stroke="#FFFFFF" stroke-width="0" height="247" width="8" y="97" x="656" fill="#FAF8C6" ry="0" rx="0"></rect><rect r="0" stroke="#FFFFFF" stroke-width="0" height="247" width="8" y="97" x="679" fill="#FAF8C6" ry="0" rx="0"></rect><rect r="0" stroke="#FFFFFF" stroke-width="0" height="247" width="8" y="97" x="702" fill="#FAF8C6" ry="0" rx="0"></rect><rect r="0" stroke="#FFFFFF" stroke-width="0" height="230" width="8" y="114" x="725" fill="#FAF8C6" ry="0" rx="0"></rect><rect r="0" stroke="#FFFFFF" stroke-width="0" height="209" width="8" y="135" x="749" fill="#FAF8C6" ry="0" rx="0"></rect><rect r="0" stroke="#FFFFFF" stroke-width="0" height="20" width="8" y="324" x="772" fill="#FAF8C6" ry="0" rx="0"></rect><rect r="0" stroke="#FFFFFF" stroke-width="0" height="192" width="8" y="152" x="795" fill="#FAF8C6" ry="0" rx="0"></rect><rect r="0" stroke="#FFFFFF" stroke-width="0" height="113" width="8" y="231" x="818" fill="#FAF8C6" ry="0" rx="0"></rect><rect r="0" stroke="#FFFFFF" stroke-width="0" height="306" width="8" y="38" x="841" fill="#FAF8C6" ry="0" rx="0"></rect><rect r="0" stroke="#FFFFFF" stroke-width="0" height="247" width="8" y="97" x="865" fill="#FAF8C6" ry="0" rx="0"></rect><rect r="0" stroke="#FFFFFF" stroke-width="0" height="258" width="8" y="86" x="888" fill="#FAF8C6" ry="0" rx="0"></rect></g></g><text  style="font-family:'lucida grande', 'lucida sans unicode', verdana, arial, helvetica, sans-serif;font-size:12px;color:#4572a7;font:normal 10px arial;font-weight:normal;text-decoration:none;fill:#4572a7;" y="500" x="20"><tspan x="20"> </tspan></text><text  style="font-family:'lucida grande', 'lucida sans unicode', verdana, arial, helvetica, sans-serif;font-size:12px;color:#4572a7;font:normal 10px arial;font-weight:normal;text-decoration:none;fill:#4572a7;" y="50" x="50"><tspan x="50"> </tspan></text><g  class="highcharts-axis"><text transform="rotate(270 55.58974358974359 404)" text-anchor="end" style="font-family:'lucida grande', 'lucida sans unicode', verdana, arial, helvetica, sans-serif;font-size:11px;color:#000000;line-height:14px;font:normal 11px arial;font-weight:normal;text-decoration:none;width:100px;fill:#000000;" y="404" x="55.58974358974359"><tspan x="55.58974358974359">Araria</tspan></text><text transform="rotate(270 78.76923076923077 404)" text-anchor="end" style="font-family:'lucida grande', 'lucida sans unicode', verdana, arial, helvetica, sans-serif;font-size:11px;color:#000000;line-height:14px;font:normal 11px arial;font-weight:normal;text-decoration:none;width:100px;fill:#000000;" y="404" x="78.76923076923077"><tspan x="78.76923076923077">Arwal</tspan></text><text transform="rotate(270 101.94871794871794 404)" text-anchor="end" style="font-family:'lucida grande', 'lucida sans unicode', verdana, arial, helvetica, sans-serif;font-size:11px;color:#000000;line-height:14px;font:normal 11px arial;font-weight:normal;text-decoration:none;width:100px;fill:#000000;" y="404" x="101.94871794871794"><tspan x="101.94871794871794">Aurangaabad</tspan></text><text transform="rotate(270 125.12820512820514 404)" text-anchor="end" style="font-family:'lucida grande', 'lucida sans unicode', verdana, arial, helvetica, sans-serif;font-size:11px;color:#000000;line-height:14px;font:normal 11px arial;font-weight:normal;text-decoration:none;width:100px;fill:#000000;" y="404" x="125.12820512820514"><tspan x="125.12820512820514">Banka</tspan></text><text transform="rotate(270 148.30769230769232 404)" text-anchor="end" style="font-family:'lucida grande', 'lucida sans unicode', verdana, arial, helvetica, sans-serif;font-size:11px;color:#000000;line-height:14px;font:normal 11px arial;font-weight:normal;text-decoration:none;width:100px;fill:#000000;" y="404" x="148.30769230769232"><tspan x="148.30769230769232">Begusarai</tspan></text><text transform="rotate(270 171.48717948717947 404)" text-anchor="end" style="font-family:'lucida grande', 'lucida sans unicode', verdana, arial, helvetica, sans-serif;font-size:11px;color:#000000;line-height:14px;font:normal 11px arial;font-weight:normal;text-decoration:none;width:100px;fill:#000000;" y="404" x="171.48717948717947"><tspan x="171.48717948717947">Bhagalpur</tspan></text><text transform="rotate(270 194.66666666666666 404)" text-anchor="end" style="font-family:'lucida grande', 'lucida sans unicode', verdana, arial, helvetica, sans-serif;font-size:11px;color:#000000;line-height:14px;font:normal 11px arial;font-weight:normal;text-decoration:none;width:100px;fill:#000000;" y="404" x="194.66666666666666"><tspan x="194.66666666666666">Bhojpur</tspan></text><text transform="rotate(270 217.84615384615384 404)" text-anchor="end" style="font-family:'lucida grande', 'lucida sans unicode', verdana, arial, helvetica, sans-serif;font-size:11px;color:#000000;line-height:14px;font:normal 11px arial;font-weight:normal;text-decoration:none;width:100px;fill:#000000;" y="404" x="217.84615384615384"><tspan x="217.84615384615384">Buxar</tspan></text><text transform="rotate(270 241.02564102564102 404)" text-anchor="end" style="font-family:'lucida grande', 'lucida sans unicode', verdana, arial, helvetica, sans-serif;font-size:11px;color:#000000;line-height:14px;font:normal 11px arial;font-weight:normal;text-decoration:none;width:100px;fill:#000000;" y="404" x="241.02564102564102"><tspan x="241.02564102564102">Champaran East</tspan></text><text transform="rotate(270 264.20512820512823 404)" text-anchor="end" style="font-family:'lucida grande', 'lucida sans unicode', verdana, arial, helvetica, sans-serif;font-size:11px;color:#000000;line-height:14px;font:normal 11px arial;font-weight:normal;text-decoration:none;width:100px;fill:#000000;" y="404" x="264.20512820512823"><tspan x="264.20512820512823">Champaran West</tspan></text><text transform="rotate(270 287.3846153846154 404)" text-anchor="end" style="font-family:'lucida grande', 'lucida sans unicode', verdana, arial, helvetica, sans-serif;font-size:11px;color:#000000;line-height:14px;font:normal 11px arial;font-weight:normal;text-decoration:none;width:100px;fill:#000000;" y="404" x="287.3846153846154"><tspan x="287.3846153846154">DVS</tspan></text><text transform="rotate(270 310.56410256410254 404)" text-anchor="end" style="font-family:'lucida grande', 'lucida sans unicode', verdana, arial, helvetica, sans-serif;font-size:11px;color:#000000;line-height:14px;font:normal 11px arial;font-weight:normal;text-decoration:none;width:100px;fill:#000000;" y="404" x="310.56410256410254"><tspan x="310.56410256410254">Darbhanga</tspan></text><text transform="rotate(270 333.7435897435897 404)" text-anchor="end" style="font-family:'lucida grande', 'lucida sans unicode', verdana, arial, helvetica, sans-serif;font-size:11px;color:#000000;line-height:14px;font:normal 11px arial;font-weight:normal;text-decoration:none;width:100px;fill:#000000;" y="404" x="333.7435897435897"><tspan x="333.7435897435897">Gaya</tspan></text><text transform="rotate(270 356.9230769230769 404)" text-anchor="end" style="font-family:'lucida grande', 'lucida sans unicode', verdana, arial, helvetica, sans-serif;font-size:11px;color:#000000;line-height:14px;font:normal 11px arial;font-weight:normal;text-decoration:none;width:100px;fill:#000000;" y="404" x="356.9230769230769"><tspan x="356.9230769230769">Gopalganj</tspan></text><text transform="rotate(270 380.1025641025641 404)" text-anchor="end" style="font-family:'lucida grande', 'lucida sans unicode', verdana, arial, helvetica, sans-serif;font-size:11px;color:#000000;line-height:14px;font:normal 11px arial;font-weight:normal;text-decoration:none;width:100px;fill:#000000;" y="404" x="380.1025641025641"><tspan x="380.1025641025641">Jamui</tspan></text><text transform="rotate(270 403.28205128205127 404)" text-anchor="end" style="font-family:'lucida grande', 'lucida sans unicode', verdana, arial, helvetica, sans-serif;font-size:11px;color:#000000;line-height:14px;font:normal 11px arial;font-weight:normal;text-decoration:none;width:100px;fill:#000000;" y="404" x="403.28205128205127"><tspan x="403.28205128205127">Jehanabad</tspan></text><text transform="rotate(270 426.46153846153845 404)" text-anchor="end" style="font-family:'lucida grande', 'lucida sans unicode', verdana, arial, helvetica, sans-serif;font-size:11px;color:#000000;line-height:14px;font:normal 11px arial;font-weight:normal;text-decoration:none;width:100px;fill:#000000;" y="404" x="426.46153846153845"><tspan x="426.46153846153845">Kaimur</tspan></text><text transform="rotate(270 449.64102564102564 404)" text-anchor="end" style="font-family:'lucida grande', 'lucida sans unicode', verdana, arial, helvetica, sans-serif;font-size:11px;color:#000000;line-height:14px;font:normal 11px arial;font-weight:normal;text-decoration:none;width:100px;fill:#000000;" y="404" x="449.64102564102564"><tspan x="449.64102564102564">Katihar</tspan></text><text transform="rotate(270 472.8205128205128 404)" text-anchor="end" style="font-family:'lucida grande', 'lucida sans unicode', verdana, arial, helvetica, sans-serif;font-size:11px;color:#000000;line-height:14px;font:normal 11px arial;font-weight:normal;text-decoration:none;width:100px;fill:#000000;" y="404" x="472.8205128205128"><tspan x="472.8205128205128">Khagaria</tspan></text><text transform="rotate(270 496 404)" text-anchor="end" style="font-family:'lucida grande', 'lucida sans unicode', verdana, arial, helvetica, sans-serif;font-size:11px;color:#000000;line-height:14px;font:normal 11px arial;font-weight:normal;text-decoration:none;width:100px;fill:#000000;" y="404" x="496"><tspan x="496">Kishanganj</tspan></text><text transform="rotate(270 519.1794871794872 404)" text-anchor="end" style="font-family:'lucida grande', 'lucida sans unicode', verdana, arial, helvetica, sans-serif;font-size:11px;color:#000000;line-height:14px;font:normal 11px arial;font-weight:normal;text-decoration:none;width:100px;fill:#000000;" y="404" x="519.1794871794872"><tspan x="519.1794871794872">Lakhisarai</tspan></text><text transform="rotate(270 542.3589743589745 404)" text-anchor="end" style="font-family:'lucida grande', 'lucida sans unicode', verdana, arial, helvetica, sans-serif;font-size:11px;color:#000000;line-height:14px;font:normal 11px arial;font-weight:normal;text-decoration:none;width:100px;fill:#000000;" y="404" x="542.3589743589745"><tspan x="542.3589743589745">Madhepura</tspan></text><text transform="rotate(270 565.5384615384615 404)" text-anchor="end" style="font-family:'lucida grande', 'lucida sans unicode', verdana, arial, helvetica, sans-serif;font-size:11px;color:#000000;line-height:14px;font:normal 11px arial;font-weight:normal;text-decoration:none;width:100px;fill:#000000;" y="404" x="565.5384615384615"><tspan x="565.5384615384615">Madhubani</tspan></text><text transform="rotate(270 588.7179487179487 404)" text-anchor="end" style="font-family:'lucida grande', 'lucida sans unicode', verdana, arial, helvetica, sans-serif;font-size:11px;color:#000000;line-height:14px;font:normal 11px arial;font-weight:normal;text-decoration:none;width:100px;fill:#000000;" y="404" x="588.7179487179487"><tspan x="588.7179487179487">Munger</tspan></text><text transform="rotate(270 611.8974358974359 404)" text-anchor="end" style="font-family:'lucida grande', 'lucida sans unicode', verdana, arial, helvetica, sans-serif;font-size:11px;color:#000000;line-height:14px;font:normal 11px arial;font-weight:normal;text-decoration:none;width:100px;fill:#000000;" y="404" x="611.8974358974359"><tspan x="611.8974358974359">Muzaffarpur</tspan></text><text transform="rotate(270 635.0769230769231 404)" text-anchor="end" style="font-family:'lucida grande', 'lucida sans unicode', verdana, arial, helvetica, sans-serif;font-size:11px;color:#000000;line-height:14px;font:normal 11px arial;font-weight:normal;text-decoration:none;width:100px;fill:#000000;" y="404" x="635.0769230769231"><tspan x="635.0769230769231">Nalanda</tspan></text><text transform="rotate(270 658.2564102564103 404)" text-anchor="end" style="font-family:'lucida grande', 'lucida sans unicode', verdana, arial, helvetica, sans-serif;font-size:11px;color:#000000;line-height:14px;font:normal 11px arial;font-weight:normal;text-decoration:none;width:100px;fill:#000000;" y="404" x="658.2564102564103"><tspan x="658.2564102564103">Nawada</tspan></text><text transform="rotate(270 681.4358974358975 404)" text-anchor="end" style="font-family:'lucida grande', 'lucida sans unicode', verdana, arial, helvetica, sans-serif;font-size:11px;color:#000000;line-height:14px;font:normal 11px arial;font-weight:normal;text-decoration:none;width:100px;fill:#000000;" y="404" x="681.4358974358975"><tspan x="681.4358974358975">Patna</tspan></text><text transform="rotate(270 704.6153846153846 404)" text-anchor="end" style="font-family:'lucida grande', 'lucida sans unicode', verdana, arial, helvetica, sans-serif;font-size:11px;color:#000000;line-height:14px;font:normal 11px arial;font-weight:normal;text-decoration:none;width:100px;fill:#000000;" y="404" x="704.6153846153846"><tspan x="704.6153846153846">Purnia</tspan></text><text transform="rotate(270 727.7948717948718 404)" text-anchor="end" style="font-family:'lucida grande', 'lucida sans unicode', verdana, arial, helvetica, sans-serif;font-size:11px;color:#000000;line-height:14px;font:normal 11px arial;font-weight:normal;text-decoration:none;width:100px;fill:#000000;" y="404" x="727.7948717948718"><tspan x="727.7948717948718">Rohtas</tspan></text><text transform="rotate(270 750.974358974359 404)" text-anchor="end" style="font-family:'lucida grande', 'lucida sans unicode', verdana, arial, helvetica, sans-serif;font-size:11px;color:#000000;line-height:14px;font:normal 11px arial;font-weight:normal;text-decoration:none;width:100px;fill:#000000;" y="404" x="750.974358974359"><tspan x="750.974358974359">Saharsa</tspan></text><text transform="rotate(270 774.1538461538462 404)" text-anchor="end" style="font-family:'lucida grande', 'lucida sans unicode', verdana, arial, helvetica, sans-serif;font-size:11px;color:#000000;line-height:14px;font:normal 11px arial;font-weight:normal;text-decoration:none;width:100px;fill:#000000;" y="404" x="774.1538461538462"><tspan x="774.1538461538462">Samastipur</tspan></text><text transform="rotate(270 797.3333333333334 404)" text-anchor="end" style="font-family:'lucida grande', 'lucida sans unicode', verdana, arial, helvetica, sans-serif;font-size:11px;color:#000000;line-height:14px;font:normal 11px arial;font-weight:normal;text-decoration:none;width:100px;fill:#000000;" y="404" x="797.3333333333334"><tspan x="797.3333333333334">Saran</tspan></text><text transform="rotate(270 820.5128205128206 404)" text-anchor="end" style="font-family:'lucida grande', 'lucida sans unicode', verdana, arial, helvetica, sans-serif;font-size:11px;color:#000000;line-height:14px;font:normal 11px arial;font-weight:normal;text-decoration:none;width:100px;fill:#000000;" y="404" x="820.5128205128206"><tspan x="820.5128205128206">Sheikhpura</tspan></text><text transform="rotate(270 843.6923076923077 404)" text-anchor="end" style="font-family:'lucida grande', 'lucida sans unicode', verdana, arial, helvetica, sans-serif;font-size:11px;color:#000000;line-height:14px;font:normal 11px arial;font-weight:normal;text-decoration:none;width:100px;fill:#000000;" y="404" x="843.6923076923077"><tspan x="843.6923076923077">Sheohar</tspan></text><text transform="rotate(270 866.8717948717949 404)" text-anchor="end" style="font-family:'lucida grande', 'lucida sans unicode', verdana, arial, helvetica, sans-serif;font-size:11px;color:#000000;line-height:14px;font:normal 11px arial;font-weight:normal;text-decoration:none;width:100px;fill:#000000;" y="404" x="866.8717948717949"><tspan x="866.8717948717949">Sitamarhi</tspan></text><text transform="rotate(270 890.0512820512821 404)" text-anchor="end" style="font-family:'lucida grande', 'lucida sans unicode', verdana, arial, helvetica, sans-serif;font-size:11px;color:#000000;line-height:14px;font:normal 11px arial;font-weight:normal;text-decoration:none;width:100px;fill:#000000;" y="404" x="890.0512820512821"><tspan x="890.0512820512821">Siwan</tspan></text><text transform="rotate(270 913.2307692307693 404)" text-anchor="end" style="font-family:'lucida grande', 'lucida sans unicode', verdana, arial, helvetica, sans-serif;font-size:11px;color:#000000;line-height:14px;font:normal 11px arial;font-weight:normal;text-decoration:none;width:100px;fill:#000000;" y="404" x="913.2307692307693"><tspan x="913.2307692307693">Supaul</tspan></text><text transform="rotate(270 936.4102564102565 404)" text-anchor="end" style="font-family:'lucida grande', 'lucida sans unicode', verdana, arial, helvetica, sans-serif;font-size:11px;color:#000000;line-height:14px;font:normal 11px arial;font-weight:normal;text-decoration:none;width:100px;fill:#000000;" y="404" x="936.4102564102565"><tspan x="936.4102564102565">Vaishali</tspan></text><path stroke-width="1" stroke="#C0D0E0" fill="none" d="M 67.5 384 L 67.5 389"></path><path stroke-width="1" stroke="#C0D0E0" fill="none" d="M 90.5 384 L 90.5 389"></path><path stroke-width="1" stroke="#C0D0E0" fill="none" d="M 114.5 384 L 114.5 389"></path><path stroke-width="1" stroke="#C0D0E0" fill="none" d="M 137.5 384 L 137.5 389"></path><path stroke-width="1" stroke="#C0D0E0" fill="none" d="M 160.5 384 L 160.5 389"></path><path stroke-width="1" stroke="#C0D0E0" fill="none" d="M 183.5 384 L 183.5 389"></path><path stroke-width="1" stroke="#C0D0E0" fill="none" d="M 206.5 384 L 206.5 389"></path><path stroke-width="1" stroke="#C0D0E0" fill="none" d="M 229.5 384 L 229.5 389"></path><path stroke-width="1" stroke="#C0D0E0" fill="none" d="M 253.5 384 L 253.5 389"></path><path stroke-width="1" stroke="#C0D0E0" fill="none" d="M 276.5 384 L 276.5 389"></path><path stroke-width="1" stroke="#C0D0E0" fill="none" d="M 299.5 384 L 299.5 389"></path><path stroke-width="1" stroke="#C0D0E0" fill="none" d="M 322.5 384 L 322.5 389"></path><path stroke-width="1" stroke="#C0D0E0" fill="none" d="M 345.5 384 L 345.5 389"></path><path stroke-width="1" stroke="#C0D0E0" fill="none" d="M 369.5 384 L 369.5 389"></path><path stroke-width="1" stroke="#C0D0E0" fill="none" d="M 392.5 384 L 392.5 389"></path><path stroke-width="1" stroke="#C0D0E0" fill="none" d="M 415.5 384 L 415.5 389"></path><path stroke-width="1" stroke="#C0D0E0" fill="none" d="M 438.5 384 L 438.5 389"></path><path stroke-width="1" stroke="#C0D0E0" fill="none" d="M 461.5 384 L 461.5 389"></path><path stroke-width="1" stroke="#C0D0E0" fill="none" d="M 484.5 384 L 484.5 389"></path><path stroke-width="1" stroke="#C0D0E0" fill="none" d="M 508.5 384 L 508.5 389"></path><path stroke-width="1" stroke="#C0D0E0" fill="none" d="M 531.5 384 L 531.5 389"></path><path stroke-width="1" stroke="#C0D0E0" fill="none" d="M 554.5 384 L 554.5 389"></path><path stroke-width="1" stroke="#C0D0E0" fill="none" d="M 577.5 384 L 577.5 389"></path><path stroke-width="1" stroke="#C0D0E0" fill="none" d="M 600.5 384 L 600.5 389"></path><path stroke-width="1" stroke="#C0D0E0" fill="none" d="M 623.5 384 L 623.5 389"></path><path stroke-width="1" stroke="#C0D0E0" fill="none" d="M 647.5 384 L 647.5 389"></path><path stroke-width="1" stroke="#C0D0E0" fill="none" d="M 670.5 384 L 670.5 389"></path><path stroke-width="1" stroke="#C0D0E0" fill="none" d="M 693.5 384 L 693.5 389"></path><path stroke-width="1" stroke="#C0D0E0" fill="none" d="M 716.5 384 L 716.5 389"></path><path stroke-width="1" stroke="#C0D0E0" fill="none" d="M 739.5 384 L 739.5 389"></path><path stroke-width="1" stroke="#C0D0E0" fill="none" d="M 763.5 384 L 763.5 389"></path><path stroke-width="1" stroke="#C0D0E0" fill="none" d="M 786.5 384 L 786.5 389"></path><path stroke-width="1" stroke="#C0D0E0" fill="none" d="M 809.5 384 L 809.5 389"></path><path stroke-width="1" stroke="#C0D0E0" fill="none" d="M 832.5 384 L 832.5 389"></path><path stroke-width="1" stroke="#C0D0E0" fill="none" d="M 855.5 384 L 855.5 389"></path><path stroke-width="1" stroke="#C0D0E0" fill="none" d="M 878.5 384 L 878.5 389"></path><path stroke-width="1" stroke="#C0D0E0" fill="none" d="M 902.5 384 L 902.5 389"></path><path stroke-width="1" stroke="#C0D0E0" fill="none" d="M 925.5 384 L 925.5 389"></path><path stroke-width="1" stroke="#C0D0E0" fill="none" d="M 948.5 384 L 948.5 389"></path></g><g  class="highcharts-axis"><text text-anchor="end" style="font-family:'lucida grande', 'lucida sans unicode', verdana, arial, helvetica, sans-serif;font-size:11px;width:100px;color:#000000;line-height:14px;font:normal 12px arial;font-weight:normal;text-decoration:none;fill:#000000;" y="389" x="34"><tspan x="34">0</tspan></text><text text-anchor="end" style="font-family:'lucida grande', 'lucida sans unicode', verdana, arial, helvetica, sans-serif;font-size:11px;width:100px;color:#000000;line-height:14px;font:normal 12px arial;font-weight:normal;text-decoration:none;fill:#000000;" y="320.2" x="34"><tspan x="34">20</tspan></text><text text-anchor="end" style="font-family:'lucida grande', 'lucida sans unicode', verdana, arial, helvetica, sans-serif;font-size:11px;width:100px;color:#000000;line-height:14px;font:normal 12px arial;font-weight:normal;text-decoration:none;fill:#000000;" y="251.39999999999998" x="34"><tspan x="34">40</tspan></text><text text-anchor="end" style="font-family:'lucida grande', 'lucida sans unicode', verdana, arial, helvetica, sans-serif;font-size:11px;width:100px;color:#000000;line-height:14px;font:normal 12px arial;font-weight:normal;text-decoration:none;fill:#000000;" y="182.60000000000002" x="34"><tspan x="34">60</tspan></text><text text-anchor="end" style="font-family:'lucida grande', 'lucida sans unicode', verdana, arial, helvetica, sans-serif;font-size:11px;width:100px;color:#000000;line-height:14px;font:normal 12px arial;font-weight:normal;text-decoration:none;fill:#000000;" y="113.80000000000001" x="34"><tspan x="34">80</tspan></text><text text-anchor="end" style="font-family:'lucida grande', 'lucida sans unicode', verdana, arial, helvetica, sans-serif;font-size:11px;width:100px;color:#000000;line-height:14px;font:normal 12px arial;font-weight:normal;text-decoration:none;fill:#000000;" y="45" x="34"><tspan x="34">100</tspan></text></g><path  stroke-width="1" stroke="#C0D0E0" fill="none" d="M 44 384.5 L 948 384.5"></path><path  stroke-width="1" stroke="#C0D0E0" fill="none" d="M 44.5 40 L 44.5 384"></path><g visibility="hidden"  class="highcharts-tooltip"><rect transform="translate(1,1)" stroke-opacity="0.05" stroke="rgb(0, 0, 0)"  fill-opacity="0.85" stroke-width="5" height="0" width="0" y="7" x="7" fill="none" ry="5" rx="5"></rect><rect transform="translate(1,1)" stroke-opacity="0.1" stroke="rgb(0, 0, 0)"  fill-opacity="0.85" stroke-width="3" height="0" width="0" y="7" x="7" fill="none" ry="5" rx="5"></rect><rect transform="translate(1,1)" stroke-opacity="0.15000000000000002" stroke="rgb(0, 0, 0)"  fill-opacity="0.85" stroke-width="1" height="0" width="0" y="7" x="7" fill="none" ry="5" rx="5"></rect><rect fill-opacity="0.85" stroke-width="2" height="0" width="0" y="7" x="7" fill="rgb(255,255,255)" ry="5" rx="5"></rect><text  style="font-family:'lucida grande', 'lucida sans unicode', verdana, arial, helvetica, sans-serif;font-size:12px;color:#333333;padding:0;white-space:nowrap;width:500px;fill:#333333;" y="24" x="12"><tspan x="12"> </tspan></text></g><text  text-anchor="end" style="font-family:'lucida grande', 'lucida sans unicode', verdana, arial, helvetica, sans-serif;font-size:10px;cursor:pointer;color:#909090;fill:#909090;" y="495" x="948"><tspan x="948"> </tspan></text><g transform="translate(44,40)"  class="highcharts-tracker"><rect style=""  visibility="visible" fill-opacity="0.000001"  stroke-width="0" height="209" width="8" y="135" x="7" fill="rgb(192,192,192)" ry="0" rx="0"></rect><rect style=""  visibility="visible" fill-opacity="0.000001"  stroke-width="0" height="230" width="8" y="114" x="30" fill="rgb(192,192,192)" ry="0" rx="0"></rect><rect style=""  visibility="visible" fill-opacity="0.000001"  stroke-width="0" height="209" width="8" y="135" x="53" fill="rgb(192,192,192)" ry="0" rx="0"></rect><rect style=""  visibility="visible" fill-opacity="0.000001"  stroke-width="0" height="134" width="8" y="210" x="76" fill="rgb(192,192,192)" ry="0" rx="0"></rect><rect style=""  visibility="visible" fill-opacity="0.000001"  stroke-width="0" height="230" width="8" y="114" x="100" fill="rgb(192,192,192)" ry="0" rx="0"></rect><rect style=""  visibility="visible" fill-opacity="0.000001"  stroke-width="0" height="199" width="8" y="145" x="123" fill="rgb(192,192,192)" ry="0" rx="0"></rect><rect style=""  visibility="visible" fill-opacity="0.000001"  stroke-width="0" height="295" width="8" y="49" x="146" fill="rgb(192,192,192)" ry="0" rx="0"></rect><rect style=""  visibility="visible" fill-opacity="0.000001"  stroke-width="0" height="247" width="8" y="97" x="169" fill="rgb(192,192,192)" ry="0" rx="0"></rect><rect style=""  visibility="visible" fill-opacity="0.000001"  stroke-width="0" height="295" width="8" y="49" x="192" fill="rgb(192,192,192)" ry="0" rx="0"></rect><rect style=""  visibility="visible" fill-opacity="0.000001"  stroke-width="0" height="247" width="8" y="97" x="216" fill="rgb(192,192,192)" ry="0" rx="0"></rect><rect style=""  visibility="visible" fill-opacity="0.000001"  stroke-width="0" height="209" width="8" y="135" x="239" fill="rgb(192,192,192)" ry="0" rx="0"></rect><rect style=""  visibility="visible" fill-opacity="0.000001"  stroke-width="0" height="182" width="8" y="162" x="262" fill="rgb(192,192,192)" ry="0" rx="0"></rect><rect style=""  visibility="visible" fill-opacity="0.000001"  stroke-width="0" height="230" width="8" y="114" x="285" fill="rgb(192,192,192)" ry="0" rx="0"></rect><rect style=""  visibility="visible" fill-opacity="0.000001"  stroke-width="0" height="209" width="8" y="135" x="308" fill="rgb(192,192,192)" ry="0" rx="0"></rect><rect style=""  visibility="visible" fill-opacity="0.000001"  stroke-width="0" height="151" width="8" y="193" x="331" fill="rgb(192,192,192)" ry="0" rx="0"></rect><rect style=""  visibility="visible" fill-opacity="0.000001"  stroke-width="0" height="247" width="8" y="97" x="355" fill="rgb(192,192,192)" ry="0" rx="0"></rect><rect style=""  visibility="visible" fill-opacity="0.000001"  stroke-width="0" height="247" width="8" y="97" x="378" fill="rgb(192,192,192)" ry="0" rx="0"></rect><rect style=""  visibility="visible" fill-opacity="0.000001"  stroke-width="0" height="151" width="8" y="193" x="401" fill="rgb(192,192,192)" ry="0" rx="0"></rect><rect style=""  visibility="visible" fill-opacity="0.000001"  stroke-width="0" height="96" width="8" y="248" x="424" fill="rgb(192,192,192)" ry="0" rx="0"></rect><rect style=""  visibility="visible" fill-opacity="0.000001"  stroke-width="0" height="306" width="8" y="38" x="447" fill="rgb(192,192,192)" ry="0" rx="0"></rect><rect style=""  visibility="visible" fill-opacity="0.000001"  stroke-width="0" height="323" width="8" y="21" x="471" fill="rgb(192,192,192)" ry="0" rx="0"></rect><rect style=""  visibility="visible" fill-opacity="0.000001"  stroke-width="0" height="96" width="8" y="248" x="494" fill="rgb(192,192,192)" ry="0" rx="0"></rect><rect style=""  visibility="visible" fill-opacity="0.000001"  stroke-width="0" height="230" width="8" y="114" x="517" fill="rgb(192,192,192)" ry="0" rx="0"></rect><rect style=""  visibility="visible" fill-opacity="0.000001"  stroke-width="0" height="209" width="8" y="135" x="540" fill="rgb(192,192,192)" ry="0" rx="0"></rect><rect style=""  visibility="visible" fill-opacity="0.000001"  stroke-width="0" height="134" width="8" y="210" x="563" fill="rgb(192,192,192)" ry="0" rx="0"></rect><rect style=""  visibility="visible" fill-opacity="0.000001"  stroke-width="0" height="323" width="8" y="21" x="586" fill="rgb(192,192,192)" ry="0" rx="0"></rect><rect style=""  visibility="visible" fill-opacity="0.000001"  stroke-width="0" height="113" width="8" y="231" x="610" fill="rgb(192,192,192)" ry="0" rx="0"></rect><rect style=""  visibility="visible" fill-opacity="0.000001"  stroke-width="0" height="113" width="8" y="231" x="633" fill="rgb(192,192,192)" ry="0" rx="0"></rect><rect style=""  visibility="visible" fill-opacity="0.000001"  stroke-width="0" height="247" width="8" y="97" x="656" fill="rgb(192,192,192)" ry="0" rx="0"></rect><rect style=""  visibility="visible" fill-opacity="0.000001"  stroke-width="0" height="247" width="8" y="97" x="679" fill="rgb(192,192,192)" ry="0" rx="0"></rect><rect style=""  visibility="visible" fill-opacity="0.000001"  stroke-width="0" height="247" width="8" y="97" x="702" fill="rgb(192,192,192)" ry="0" rx="0"></rect><rect style=""  visibility="visible" fill-opacity="0.000001"  stroke-width="0" height="230" width="8" y="114" x="725" fill="rgb(192,192,192)" ry="0" rx="0"></rect><rect style=""  visibility="visible" fill-opacity="0.000001"  stroke-width="0" height="209" width="8" y="135" x="749" fill="rgb(192,192,192)" ry="0" rx="0"></rect><rect style=""  visibility="visible" fill-opacity="0.000001"  stroke-width="0" height="20" width="8" y="324" x="772" fill="rgb(192,192,192)" ry="0" rx="0"></rect><rect style=""  visibility="visible" fill-opacity="0.000001"  stroke-width="0" height="192" width="8" y="152" x="795" fill="rgb(192,192,192)" ry="0" rx="0"></rect><rect style=""  visibility="visible" fill-opacity="0.000001"  stroke-width="0" height="113" width="8" y="231" x="818" fill="rgb(192,192,192)" ry="0" rx="0"></rect><rect style=""  visibility="visible" fill-opacity="0.000001"  stroke-width="0" height="306" width="8" y="38" x="841" fill="rgb(192,192,192)" ry="0" rx="0"></rect><rect style=""  visibility="visible" fill-opacity="0.000001"  stroke-width="0" height="247" width="8" y="97" x="865" fill="rgb(192,192,192)" ry="0" rx="0"></rect><rect style=""  visibility="visible" fill-opacity="0.000001"  stroke-width="0" height="258" width="8" y="86" x="888" fill="rgb(192,192,192)" ry="0" rx="0"></rect></g></svg>