<svg xmlns:xlink="http://www.w3.org/1999/xlink" xmlns="http://www.w3.org/2000/svg" version="1.1" width="958" height="500" style="direction: ltr;"><defs><clipPath id="highcharts-7"><rect rx="0" ry="0" fill="none" x="0" y="0" width="910" height="343" stroke-width="0.000001"></rect></clipPath></defs><rect rx="5" ry="5" fill="#ffffff" x="0" y="0" width="958" height="500" stroke-width="0.000001" stroke="#d3d3d3"></rect><rect rx="0" ry="0" fill="#ffffff" x="38" y="40" width="910" height="343" stroke-width="0.000001"></rect><rect rx="5" ry="5" fill="none" x="-5" y="-5" width="10" height="10" stroke-width="0.000001" border="0"></rect><text x="479" y="25" style="font-family:'lucida grande', 'lucida sans unicode', verdana, arial, helvetica, sans-serif;font-size:16px;color:#000000;font:normal 15px arial;font-weight:normal;text-decoration:none;width:600px;fill:#000000;" text-anchor="middle" class="highcharts-title" ><tspan x="479">2014.12</tspan></text><g class="highcharts-grid" ><path d="M 114.5 40 L 114.5 383.02586591405463" fill="none" stroke="#C0C0C0" stroke-width="1" stroke-dasharray="none" ></path><path d="M 190.5 40 L 190.5 383.02586591405463" fill="none" stroke="#C0C0C0" stroke-width="1" stroke-dasharray="none" ></path><path d="M 266.5 40 L 266.5 383.02586591405463" fill="none" stroke="#C0C0C0" stroke-width="1" stroke-dasharray="none" ></path><path d="M 341.5 40 L 341.5 383.02586591405463" fill="none" stroke="#C0C0C0" stroke-width="1" stroke-dasharray="none" ></path><path d="M 417.5 40 L 417.5 383.02586591405463" fill="none" stroke="#C0C0C0" stroke-width="1" stroke-dasharray="none" ></path><path d="M 493.5 40 L 493.5 383.02586591405463" fill="none" stroke="#C0C0C0" stroke-width="1" stroke-dasharray="none" ></path><path d="M 569.5 40 L 569.5 383.02586591405463" fill="none" stroke="#C0C0C0" stroke-width="1" stroke-dasharray="none" ></path><path d="M 645.5 40 L 645.5 383.02586591405463" fill="none" stroke="#C0C0C0" stroke-width="1" stroke-dasharray="none" ></path><path d="M 721.5 40 L 721.5 383.02586591405463" fill="none" stroke="#C0C0C0" stroke-width="1" stroke-dasharray="none" ></path><path d="M 796.5 40 L 796.5 383.02586591405463" fill="none" stroke="#C0C0C0" stroke-width="1" stroke-dasharray="none" ></path><path d="M 872.5 40 L 872.5 383.02586591405463" fill="none" stroke="#C0C0C0" stroke-width="1" stroke-dasharray="none" ></path><path d="M 948.5 40 L 948.5 383.02586591405463" fill="none" stroke="#C0C0C0" stroke-width="1" stroke-dasharray="none" ></path></g><g class="highcharts-grid" ><path d="M 38 383.5 L 948 383.5" fill="none" stroke="#E0E0E0" stroke-width="1" stroke-dasharray="none"></path><path d="M 38 372.5 L 948 372.5" fill="none" stroke="#E0E0E0" stroke-width="1" stroke-dasharray="none"></path><path d="M 38 360.5 L 948 360.5" fill="none" stroke="#E0E0E0" stroke-width="1" stroke-dasharray="none"></path><path d="M 38 349.5 L 948 349.5" fill="none" stroke="#E0E0E0" stroke-width="1" stroke-dasharray="none"></path><path d="M 38 337.5 L 948 337.5" fill="none" stroke="#E0E0E0" stroke-width="1" stroke-dasharray="none"></path><path d="M 38 326.5 L 948 326.5" fill="none" stroke="#E0E0E0" stroke-width="1" stroke-dasharray="none"></path><path d="M 38 314.5 L 948 314.5" fill="none" stroke="#E0E0E0" stroke-width="1" stroke-dasharray="none"></path><path d="M 38 303.5 L 948 303.5" fill="none" stroke="#E0E0E0" stroke-width="1" stroke-dasharray="none"></path><path d="M 38 292.5 L 948 292.5" fill="none" stroke="#E0E0E0" stroke-width="1" stroke-dasharray="none"></path><path d="M 38 280.5 L 948 280.5" fill="none" stroke="#E0E0E0" stroke-width="1" stroke-dasharray="none"></path><path d="M 38 269.5 L 948 269.5" fill="none" stroke="#E0E0E0" stroke-width="1" stroke-dasharray="none"></path><path d="M 38 257.5 L 948 257.5" fill="none" stroke="#E0E0E0" stroke-width="1" stroke-dasharray="none"></path><path d="M 38 246.5 L 948 246.5" fill="none" stroke="#E0E0E0" stroke-width="1" stroke-dasharray="none"></path><path d="M 38 234.5 L 948 234.5" fill="none" stroke="#E0E0E0" stroke-width="1" stroke-dasharray="none"></path><path d="M 38 223.5 L 948 223.5" fill="none" stroke="#E0E0E0" stroke-width="1" stroke-dasharray="none"></path><path d="M 38 212.5 L 948 212.5" fill="none" stroke="#E0E0E0" stroke-width="1" stroke-dasharray="none"></path><path d="M 38 200.5 L 948 200.5" fill="none" stroke="#E0E0E0" stroke-width="1" stroke-dasharray="none"></path><path d="M 38 189.5 L 948 189.5" fill="none" stroke="#E0E0E0" stroke-width="1" stroke-dasharray="none"></path><path d="M 38 177.5 L 948 177.5" fill="none" stroke="#E0E0E0" stroke-width="1" stroke-dasharray="none"></path><path d="M 38 166.5 L 948 166.5" fill="none" stroke="#E0E0E0" stroke-width="1" stroke-dasharray="none"></path><path d="M 38 154.5 L 948 154.5" fill="none" stroke="#E0E0E0" stroke-width="1" stroke-dasharray="none"></path><path d="M 38 143.5 L 948 143.5" fill="none" stroke="#E0E0E0" stroke-width="1" stroke-dasharray="none"></path><path d="M 38 131.5 L 948 131.5" fill="none" stroke="#E0E0E0" stroke-width="1" stroke-dasharray="none"></path><path d="M 38 120.5 L 948 120.5" fill="none" stroke="#E0E0E0" stroke-width="1" stroke-dasharray="none"></path><path d="M 38 109.5 L 948 109.5" fill="none" stroke="#E0E0E0" stroke-width="1" stroke-dasharray="none"></path><path d="M 38 97.5 L 948 97.5" fill="none" stroke="#E0E0E0" stroke-width="1" stroke-dasharray="none"></path><path d="M 38 86.5 L 948 86.5" fill="none" stroke="#E0E0E0" stroke-width="1" stroke-dasharray="none"></path><path d="M 38 74.5 L 948 74.5" fill="none" stroke="#E0E0E0" stroke-width="1" stroke-dasharray="none"></path><path d="M 38 63.5 L 948 63.5" fill="none" stroke="#E0E0E0" stroke-width="1" stroke-dasharray="none"></path><path d="M 38 51.5 L 948 51.5" fill="none" stroke="#E0E0E0" stroke-width="1" stroke-dasharray="none"></path><path d="M 38 40.5 L 948 40.5" fill="none" stroke="#E0E0E0" stroke-width="1" stroke-dasharray="none"></path><path d="M 38 383.5 L 948 383.5" fill="none" stroke="#C0C0C0" stroke-width="1" stroke-dasharray="none" ></path><path d="M 38 326.5 L 948 326.5" fill="none" stroke="#C0C0C0" stroke-width="1" stroke-dasharray="none" ></path><path d="M 38 269.5 L 948 269.5" fill="none" stroke="#C0C0C0" stroke-width="1" stroke-dasharray="none" ></path><path d="M 38 212.5 L 948 212.5" fill="none" stroke="#C0C0C0" stroke-width="1" stroke-dasharray="none" ></path><path d="M 38 154.5 L 948 154.5" fill="none" stroke="#C0C0C0" stroke-width="1" stroke-dasharray="none" ></path><path d="M 38 97.5 L 948 97.5" fill="none" stroke="#C0C0C0" stroke-width="1" stroke-dasharray="none" ></path><path d="M 38 40.5 L 948 40.5" fill="none" stroke="#C0C0C0" stroke-width="1" stroke-dasharray="none" ></path></g><g class="highcharts-series-group" ><g class="highcharts-series" clip-path="url(#highcharts-7)" visibility="visible" transform="translate(38,40)"><path d="M 37.916666666666664 343 L 113.75 343 L 189.58333333333331 343 L 265.41666666666663 108.61666666666667 L 341.25 108.61666666666667 L 417.0833333333333 57.166666666666686 L 492.91666666666663 320.1333333333333 L 568.75 343 L 644.5833333333333 200.08333333333334 L 720.4166666666666 145.775 L 796.25 174.35833333333332 L 872.0833333333333 105.75833333333333 L 872.0833333333333 343 L 37.916666666666664 343" fill="rgb(130,123,96)" fill-opacity="0.75"></path><path d="M 37.916666666666664 343 L 113.75 343 L 189.58333333333331 343 L 265.41666666666663 108.61666666666667 L 341.25 108.61666666666667 L 417.0833333333333 57.166666666666686 L 492.91666666666663 320.1333333333333 L 568.75 343 L 644.5833333333333 200.08333333333334 L 720.4166666666666 145.775 L 796.25 174.35833333333332 L 872.0833333333333 105.75833333333333" fill="none" stroke="#827B60" stroke-width="2"></path><circle cx="872.0833333333333" cy="105.75833333333333" r="4" stroke="#FFFFFF" stroke-width="0.000001" fill="#827B60"></circle><circle cx="796.25" cy="174.35833333333332" r="4" stroke="#FFFFFF" stroke-width="0.000001" fill="#827B60"></circle><circle cx="720.4166666666666" cy="145.775" r="4" stroke="#FFFFFF" stroke-width="0.000001" fill="#827B60"></circle><circle cx="644.5833333333333" cy="200.08333333333334" r="4" stroke="#FFFFFF" stroke-width="0.000001" fill="#827B60"></circle><circle cx="568.75" cy="343" r="4" stroke="#FFFFFF" stroke-width="0.000001" fill="#827B60"></circle><circle cx="492.91666666666663" cy="320.1333333333333" r="4" stroke="#FFFFFF" stroke-width="0.000001" fill="#827B60"></circle><circle cx="417.0833333333333" cy="57.166666666666686" r="4" stroke="#FFFFFF" stroke-width="0.000001" fill="#827B60"></circle><circle cx="341.25" cy="108.61666666666667" r="4" stroke="#FFFFFF" stroke-width="0.000001" fill="#827B60"></circle><circle cx="265.41666666666663" cy="108.61666666666667" r="4" stroke="#FFFFFF" stroke-width="0.000001" fill="#827B60"></circle><circle cx="189.58333333333331" cy="343" r="4" stroke="#FFFFFF" stroke-width="0.000001" fill="#827B60"></circle><circle cx="113.75" cy="343" r="4" stroke="#FFFFFF" stroke-width="0.000001" fill="#827B60"></circle><circle cx="37.916666666666664" cy="343" r="4" stroke="#FFFFFF" stroke-width="0.000001" fill="#827B60"></circle></g></g><text x="20" y="500" style="font-family:'lucida grande', 'lucida sans unicode', verdana, arial, helvetica, sans-serif;font-size:12px;color:#4572a7;font:normal 10px arial;font-weight:normal;text-decoration:none;fill:#4572a7;" ><tspan x="20"> </tspan></text><text x="50" y="50" style="font-family:'lucida grande', 'lucida sans unicode', verdana, arial, helvetica, sans-serif;font-size:12px;color:#4572a7;font:normal 10px arial;font-weight:normal;text-decoration:none;fill:#4572a7;" ><tspan x="50"> </tspan></text><g class="highcharts-axis" ><text x="75.91666666666666" y="403.02586591405463" style="font-family:'lucida grande', 'lucida sans unicode', verdana, arial, helvetica, sans-serif;font-size:11px;color:#030000;line-height:14px;font:normal 11px arial;font-weight:normal;text-decoration:none;width:100px;fill:#030000;" text-anchor="end" transform="rotate(315 75.91666666666666 403)"><tspan x="75.91666666666666">Cachar C0 : Overall</tspan><tspan dy="14px" x="75.91666666666666">score - Percent</tspan></text><text x="151.75" y="403.02586591405463" style="font-family:'lucida grande', 'lucida sans unicode', verdana, arial, helvetica, sans-serif;font-size:11px;color:#030000;line-height:14px;font:normal 11px arial;font-weight:normal;text-decoration:none;width:100px;fill:#030000;" text-anchor="end" transform="rotate(315 151.75 403)"><tspan x="151.75">Cachar C1 :</tspan><tspan dy="14px" x="151.75">Buildings - Percent</tspan></text><text x="227.58333333333334" y="403.02586591405463" style="font-family:'lucida grande', 'lucida sans unicode', verdana, arial, helvetica, sans-serif;font-size:11px;color:#030000;line-height:14px;font:normal 11px arial;font-weight:normal;text-decoration:none;width:100px;fill:#030000;" text-anchor="end" transform="rotate(315 227.58333333333334 403)"><tspan x="227.58333333333334">Cachar C2 :</tspan><tspan dy="14px" x="227.58333333333334">Capacity - Percent</tspan></text><text x="303.41666666666663" y="403.02586591405463" style="font-family:'lucida grande', 'lucida sans unicode', verdana, arial, helvetica, sans-serif;font-size:11px;color:#030000;line-height:14px;font:normal 11px arial;font-weight:normal;text-decoration:none;width:100px;fill:#030000;" text-anchor="end" transform="rotate(315 303.41666666666663 403)"><tspan x="303.41666666666663">Dibrugarh C0 :</tspan><tspan dy="14px" x="303.41666666666663">Overall score -</tspan><tspan dy="14px" x="303.41666666666663">Percent</tspan></text><text x="379.24999999999994" y="403.02586591405463" style="font-family:'lucida grande', 'lucida sans unicode', verdana, arial, helvetica, sans-serif;font-size:11px;color:#030000;line-height:14px;font:normal 11px arial;font-weight:normal;text-decoration:none;width:100px;fill:#030000;" text-anchor="end" transform="rotate(315 379.24999999999994 403)"><tspan x="379.24999999999994">Dibrugarh C1 :</tspan><tspan dy="14px" x="379.24999999999994">Buildings - Percent</tspan></text><text x="455.0833333333333" y="403.02586591405463" style="font-family:'lucida grande', 'lucida sans unicode', verdana, arial, helvetica, sans-serif;font-size:11px;color:#030000;line-height:14px;font:normal 11px arial;font-weight:normal;text-decoration:none;width:100px;fill:#030000;" text-anchor="end" transform="rotate(315 455.0833333333333 403)"><tspan x="455.0833333333333">Dibrugarh C2 :</tspan><tspan dy="14px" x="455.0833333333333">Capacity - Percent</tspan></text><text x="530.9166666666666" y="403.02586591405463" style="font-family:'lucida grande', 'lucida sans unicode', verdana, arial, helvetica, sans-serif;font-size:11px;color:#030000;line-height:14px;font:normal 11px arial;font-weight:normal;text-decoration:none;width:100px;fill:#030000;" text-anchor="end" transform="rotate(315 530.9166666666666 403)"><tspan x="530.9166666666666">Goalpara C0 :</tspan><tspan dy="14px" x="530.9166666666666">Overall score -</tspan><tspan dy="14px" x="530.9166666666666">Percent</tspan></text><text x="606.75" y="403.02586591405463" style="font-family:'lucida grande', 'lucida sans unicode', verdana, arial, helvetica, sans-serif;font-size:11px;color:#030000;line-height:14px;font:normal 11px arial;font-weight:normal;text-decoration:none;width:100px;fill:#030000;" text-anchor="end" transform="rotate(315 606.75 403)"><tspan x="606.75">Goalpara C1 :</tspan><tspan dy="14px" x="606.75">Buildings - Percent</tspan></text><text x="682.5833333333334" y="403.02586591405463" style="font-family:'lucida grande', 'lucida sans unicode', verdana, arial, helvetica, sans-serif;font-size:11px;color:#030000;line-height:14px;font:normal 11px arial;font-weight:normal;text-decoration:none;width:100px;fill:#030000;" text-anchor="end" transform="rotate(315 682.5833333333334 403)"><tspan x="682.5833333333334">Goalpara C2 :</tspan><tspan dy="14px" x="682.5833333333334">Capacity - Percent</tspan></text><text x="758.4166666666666" y="403.02586591405463" style="font-family:'lucida grande', 'lucida sans unicode', verdana, arial, helvetica, sans-serif;font-size:11px;color:#030000;line-height:14px;font:normal 11px arial;font-weight:normal;text-decoration:none;width:100px;fill:#030000;" text-anchor="end" transform="rotate(315 758.4166666666666 403)"><tspan x="758.4166666666666">Sonitpur C0 :</tspan><tspan dy="14px" x="758.4166666666666">Overall score -</tspan><tspan dy="14px" x="758.4166666666666">Percent</tspan></text><text x="834.25" y="403.02586591405463" style="font-family:'lucida grande', 'lucida sans unicode', verdana, arial, helvetica, sans-serif;font-size:11px;color:#030000;line-height:14px;font:normal 11px arial;font-weight:normal;text-decoration:none;width:100px;fill:#030000;" text-anchor="end" transform="rotate(315 834.25 403)"><tspan x="834.25">Sonitpur C1 :</tspan><tspan dy="14px" x="834.25">Buildings - Percent</tspan></text><text x="910.0833333333334" y="403.02586591405463" style="font-family:'lucida grande', 'lucida sans unicode', verdana, arial, helvetica, sans-serif;font-size:11px;color:#030000;line-height:14px;font:normal 11px arial;font-weight:normal;text-decoration:none;width:100px;fill:#030000;" text-anchor="end" transform="rotate(315 910.0833333333334 403)"><tspan x="910.0833333333334">Sonitpur C2 :</tspan><tspan dy="14px" x="910.0833333333334">Capacity - Percent</tspan></text><path d="M 114.5 383.02586591405463 L 114.5 388.02586591405463" fill="none" stroke="#C0D0E0" stroke-width="1"></path><path d="M 190.5 383.02586591405463 L 190.5 388.02586591405463" fill="none" stroke="#C0D0E0" stroke-width="1"></path><path d="M 266.5 383.02586591405463 L 266.5 388.02586591405463" fill="none" stroke="#C0D0E0" stroke-width="1"></path><path d="M 341.5 383.02586591405463 L 341.5 388.02586591405463" fill="none" stroke="#C0D0E0" stroke-width="1"></path><path d="M 417.5 383.02586591405463 L 417.5 388.02586591405463" fill="none" stroke="#C0D0E0" stroke-width="1"></path><path d="M 493.5 383.02586591405463 L 493.5 388.02586591405463" fill="none" stroke="#C0D0E0" stroke-width="1"></path><path d="M 569.5 383.02586591405463 L 569.5 388.02586591405463" fill="none" stroke="#C0D0E0" stroke-width="1"></path><path d="M 645.5 383.02586591405463 L 645.5 388.02586591405463" fill="none" stroke="#C0D0E0" stroke-width="1"></path><path d="M 721.5 383.02586591405463 L 721.5 388.02586591405463" fill="none" stroke="#C0D0E0" stroke-width="1"></path><path d="M 796.5 383.02586591405463 L 796.5 388.02586591405463" fill="none" stroke="#C0D0E0" stroke-width="1"></path><path d="M 872.5 383.02586591405463 L 872.5 388.02586591405463" fill="none" stroke="#C0D0E0" stroke-width="1"></path><path d="M 948.5 383.02586591405463 L 948.5 388.02586591405463" fill="none" stroke="#C0D0E0" stroke-width="1"></path></g><g class="highcharts-axis" ><text x="28" y="388.02586591405463" style="font-family:'lucida grande', 'lucida sans unicode', verdana, arial, helvetica, sans-serif;font-size:11px;width:100px;color:#000000;line-height:14px;font:normal 11px arial;font-weight:normal;text-decoration:none;fill:#000000;" text-anchor="end"><tspan x="28">0</tspan></text><text x="28" y="330.85919924738795" style="font-family:'lucida grande', 'lucida sans unicode', verdana, arial, helvetica, sans-serif;font-size:11px;width:100px;color:#000000;line-height:14px;font:normal 11px arial;font-weight:normal;text-decoration:none;fill:#000000;" text-anchor="end"><tspan x="28">20</tspan></text><text x="28" y="273.69253258072126" style="font-family:'lucida grande', 'lucida sans unicode', verdana, arial, helvetica, sans-serif;font-size:11px;width:100px;color:#000000;line-height:14px;font:normal 11px arial;font-weight:normal;text-decoration:none;fill:#000000;" text-anchor="end"><tspan x="28">40</tspan></text><text x="28" y="216.52586591405463" style="font-family:'lucida grande', 'lucida sans unicode', verdana, arial, helvetica, sans-serif;font-size:11px;width:100px;color:#000000;line-height:14px;font:normal 11px arial;font-weight:normal;text-decoration:none;fill:#000000;" text-anchor="end"><tspan x="28">60</tspan></text><text x="28" y="159.35919924738795" style="font-family:'lucida grande', 'lucida sans unicode', verdana, arial, helvetica, sans-serif;font-size:11px;width:100px;color:#000000;line-height:14px;font:normal 11px arial;font-weight:normal;text-decoration:none;fill:#000000;" text-anchor="end"><tspan x="28">80</tspan></text><text x="28" y="102.19253258072133" style="font-family:'lucida grande', 'lucida sans unicode', verdana, arial, helvetica, sans-serif;font-size:11px;width:100px;color:#000000;line-height:14px;font:normal 11px arial;font-weight:normal;text-decoration:none;fill:#000000;" text-anchor="end"><tspan x="28">100</tspan></text><text x="28" y="45.02586591405465" style="font-family:'lucida grande', 'lucida sans unicode', verdana, arial, helvetica, sans-serif;font-size:11px;width:100px;color:#000000;line-height:14px;font:normal 11px arial;font-weight:normal;text-decoration:none;fill:#000000;" text-anchor="end"><tspan x="28">120</tspan></text></g><path d="M 38 383.5 L 948 383.5" fill="none" stroke="#C0D0E0" stroke-width="1" ></path><path d="M 38.5 40 L 38.5 383.02586591405463" fill="none" stroke="#C0D0E0" stroke-width="1" ></path><g class="highcharts-tooltip"  visibility="hidden"><rect rx="5" ry="5" fill="none" x="7" y="7" width="0" height="0" stroke-width="5" fill-opacity="0.85"  stroke="rgb(0, 0, 0)" stroke-opacity="0.05" transform="translate(1,1)"></rect><rect rx="5" ry="5" fill="none" x="7" y="7" width="0" height="0" stroke-width="3" fill-opacity="0.85"  stroke="rgb(0, 0, 0)" stroke-opacity="0.1" transform="translate(1,1)"></rect><rect rx="5" ry="5" fill="none" x="7" y="7" width="0" height="0" stroke-width="1" fill-opacity="0.85"  stroke="rgb(0, 0, 0)" stroke-opacity="0.15000000000000002" transform="translate(1,1)"></rect><rect rx="5" ry="5" fill="rgb(255,255,255)" x="7" y="7" width="0" height="0" stroke-width="2" fill-opacity="0.85"></rect><text x="12" y="24" style="font-family:'lucida grande', 'lucida sans unicode', verdana, arial, helvetica, sans-serif;font-size:12px;color:#333333;padding:0;white-space:nowrap;width:500px;fill:#333333;" ><tspan x="12"> </tspan></text></g><text x="948" y="495" style="font-family:'lucida grande', 'lucida sans unicode', verdana, arial, helvetica, sans-serif;font-size:10px;cursor:pointer;color:#909090;fill:#909090;" text-anchor="end" ><tspan x="948"> </tspan></text><g class="highcharts-tracker"  transform="translate(38,40)"><path d="M 27.916666666666664 343 L 37.916666666666664 343 L 113.75 343 L 189.58333333333331 343 L 265.41666666666663 108.61666666666667 L 341.25 108.61666666666667 L 417.0833333333333 57.166666666666686 L 492.91666666666663 320.1333333333333 L 568.75 343 L 644.5833333333333 200.08333333333334 L 720.4166666666666 145.775 L 796.25 174.35833333333332 L 872.0833333333333 105.75833333333333 L 882.0833333333333 105.75833333333333" fill="none"  stroke-opacity="0.000001" stroke="rgb(192,192,192)" stroke-width="22" visibility="visible"  style=""></path></g></svg>