<svg xmlns:xlink="http://www.w3.org/1999/xlink" xmlns="http://www.w3.org/2000/svg" version="1.1" width="958" height="500" style="direction: ltr;"><defs><clipPath id="highcharts-7"><rect rx="0" ry="0" fill="none" x="0" y="0" width="916" height="345" stroke-width="0.000001"></rect></clipPath></defs><rect rx="5" ry="5" fill="#FFFFFF" x="0" y="0" width="958" height="500" stroke-width="0.000001" stroke="#d3d3d3"></rect><rect rx="0" ry="0" fill="#ffffff" x="32" y="40" width="916" height="345" stroke-width="0.000001"></rect><rect rx="5" ry="5" fill="none" x="-5" y="-5" width="10" height="10" stroke-width="0.000001" border="0"></rect><text x="479" y="25" style="font-family:'lucida grande', 'lucida sans unicode', verdana, arial, helvetica, sans-serif;font-size:16px;color:#000000;font:normal 15px arial;font-weight:normal;text-decoration:none;width:600px;fill:#000000;" text-anchor="middle" class="highcharts-title" ><tspan x="479">E0 : Overall score - Percent, 2014.07</tspan></text><g class="highcharts-grid" ></g><g class="highcharts-grid" ></g><g class="highcharts-series-group" ><g class="highcharts-series" clip-path="url(#highcharts-7)" visibility="visible" transform="translate(32,40)"><path d="M 11.743589743589743 232.875 L 35.230769230769226 189.75 L 58.717948717948715 146.625 L 82.2051282051282 215.625 L 105.69230769230768 181.125 L 129.17948717948718 138 L 152.66666666666666 51.75 L 176.15384615384613 112.125 L 199.64102564102564 138 L 223.1282051282051 181.125 L 246.61538461538458 163.875 L 270.1025641025641 60.375 L 293.5897435897436 146.625 L 317.07692307692304 276 L 340.56410256410254 120.75 L 364.05128205128204 94.875 L 387.5384615384615 86.25 L 411.025641025641 172.5 L 434.5128205128205 293.25 L 457.99999999999994 232.875 L 481.48717948717945 94.875 L 504.97435897435895 215.625 L 528.4615384615385 103.5 L 551.9487179487179 155.25 L 575.4358974358973 181.125 L 598.9230769230769 60.375 L 622.4102564102564 319.125 L 645.8974358974358 103.5 L 669.3846153846154 207 L 692.8717948717948 94.875 L 716.3589743589743 138 L 739.8461538461538 86.25 L 763.3333333333333 241.5 L 786.8205128205128 319.125 L 810.3076923076923 284.625 L 833.7948717948717 241.5 L 857.2820512820513 51.75 L 880.7692307692307 69 L 904.2564102564102 215.625" fill="none" stroke="#827B60" stroke-width="2"></path><circle cx="904.2564102564102" cy="215.625" r="3" stroke="#FFFFFF" stroke-width="1" fill="#827B60"></circle><circle cx="880.7692307692307" cy="69" r="3" stroke="#FFFFFF" stroke-width="1" fill="#827B60"></circle><circle cx="857.2820512820513" cy="51.75" r="3" stroke="#FFFFFF" stroke-width="1" fill="#827B60"></circle><circle cx="833.7948717948717" cy="241.5" r="3" stroke="#FFFFFF" stroke-width="1" fill="#827B60"></circle><circle cx="810.3076923076923" cy="284.625" r="3" stroke="#FFFFFF" stroke-width="1" fill="#827B60"></circle><circle cx="786.8205128205128" cy="319.125" r="3" stroke="#FFFFFF" stroke-width="1" fill="#827B60"></circle><circle cx="763.3333333333333" cy="241.5" r="3" stroke="#FFFFFF" stroke-width="1" fill="#827B60"></circle><circle cx="739.8461538461538" cy="86.25" r="3" stroke="#FFFFFF" stroke-width="1" fill="#827B60"></circle><circle cx="716.3589743589743" cy="138" r="3" stroke="#FFFFFF" stroke-width="1" fill="#827B60"></circle><circle cx="692.8717948717948" cy="94.875" r="3" stroke="#FFFFFF" stroke-width="1" fill="#827B60"></circle><circle cx="669.3846153846154" cy="207" r="3" stroke="#FFFFFF" stroke-width="1" fill="#827B60"></circle><circle cx="645.8974358974358" cy="103.5" r="3" stroke="#FFFFFF" stroke-width="1" fill="#827B60"></circle><circle cx="622.4102564102564" cy="319.125" r="3" stroke="#FFFFFF" stroke-width="1" fill="#827B60"></circle><circle cx="598.9230769230769" cy="60.375" r="3" stroke="#FFFFFF" stroke-width="1" fill="#827B60"></circle><circle cx="575.4358974358973" cy="181.125" r="3" stroke="#FFFFFF" stroke-width="1" fill="#827B60"></circle><circle cx="551.9487179487179" cy="155.25" r="3" stroke="#FFFFFF" stroke-width="1" fill="#827B60"></circle><circle cx="528.4615384615385" cy="103.5" r="3" stroke="#FFFFFF" stroke-width="1" fill="#827B60"></circle><circle cx="504.97435897435895" cy="215.625" r="3" stroke="#FFFFFF" stroke-width="1" fill="#827B60"></circle><circle cx="481.48717948717945" cy="94.875" r="3" stroke="#FFFFFF" stroke-width="1" fill="#827B60"></circle><circle cx="457.99999999999994" cy="232.875" r="3" stroke="#FFFFFF" stroke-width="1" fill="#827B60"></circle><circle cx="434.5128205128205" cy="293.25" r="3" stroke="#FFFFFF" stroke-width="1" fill="#827B60"></circle><circle cx="411.025641025641" cy="172.5" r="3" stroke="#FFFFFF" stroke-width="1" fill="#827B60"></circle><circle cx="387.5384615384615" cy="86.25" r="3" stroke="#FFFFFF" stroke-width="1" fill="#827B60"></circle><circle cx="364.05128205128204" cy="94.875" r="3" stroke="#FFFFFF" stroke-width="1" fill="#827B60"></circle><circle cx="340.56410256410254" cy="120.75" r="3" stroke="#FFFFFF" stroke-width="1" fill="#827B60"></circle><circle cx="317.07692307692304" cy="276" r="3" stroke="#FFFFFF" stroke-width="1" fill="#827B60"></circle><circle cx="293.5897435897436" cy="146.625" r="3" stroke="#FFFFFF" stroke-width="1" fill="#827B60"></circle><circle cx="270.1025641025641" cy="60.375" r="3" stroke="#FFFFFF" stroke-width="1" fill="#827B60"></circle><circle cx="246.61538461538458" cy="163.875" r="3" stroke="#FFFFFF" stroke-width="1" fill="#827B60"></circle><circle cx="223.1282051282051" cy="181.125" r="3" stroke="#FFFFFF" stroke-width="1" fill="#827B60"></circle><circle cx="199.64102564102564" cy="138" r="3" stroke="#FFFFFF" stroke-width="1" fill="#827B60"></circle><circle cx="176.15384615384613" cy="112.125" r="3" stroke="#FFFFFF" stroke-width="1" fill="#827B60"></circle><circle cx="152.66666666666666" cy="51.75" r="3" stroke="#FFFFFF" stroke-width="1" fill="#827B60"></circle><circle cx="129.17948717948718" cy="138" r="3" stroke="#FFFFFF" stroke-width="1" fill="#827B60"></circle><circle cx="105.69230769230768" cy="181.125" r="3" stroke="#FFFFFF" stroke-width="1" fill="#827B60"></circle><circle cx="82.2051282051282" cy="215.625" r="3" stroke="#FFFFFF" stroke-width="1" fill="#827B60"></circle><circle cx="58.717948717948715" cy="146.625" r="3" stroke="#FFFFFF" stroke-width="1" fill="#827B60"></circle><circle cx="35.230769230769226" cy="189.75" r="3" stroke="#FFFFFF" stroke-width="1" fill="#827B60"></circle><circle cx="11.743589743589743" cy="232.875" r="3" stroke="#FFFFFF" stroke-width="1" fill="#827B60"></circle></g></g><text x="20" y="500" style="font-family:'lucida grande', 'lucida sans unicode', verdana, arial, helvetica, sans-serif;font-size:12px;color:#4572a7;font:normal 10px arial;font-weight:normal;text-decoration:none;fill:#4572a7;" ><tspan x="20"> </tspan></text><text x="50" y="50" style="font-family:'lucida grande', 'lucida sans unicode', verdana, arial, helvetica, sans-serif;font-size:12px;color:#4572a7;font:normal 10px arial;font-weight:normal;text-decoration:none;fill:#4572a7;" ><tspan x="50"> </tspan></text><g class="highcharts-axis" ><text x="43.743589743589745" y="405" style="font-family:'lucida grande', 'lucida sans unicode', verdana, arial, helvetica, sans-serif;font-size:11px;color:#000000;line-height:14px;font:normal 11px arial;font-weight:normal;text-decoration:none;width:100px;fill:#000000;" text-anchor="end" transform="rotate(270 43.743589743589745 405)"><tspan x="43.743589743589745">Araria</tspan></text><text x="67.23076923076924" y="405" style="font-family:'lucida grande', 'lucida sans unicode', verdana, arial, helvetica, sans-serif;font-size:11px;color:#000000;line-height:14px;font:normal 11px arial;font-weight:normal;text-decoration:none;width:100px;fill:#000000;" text-anchor="end" transform="rotate(270 67.23076923076924 405)"><tspan x="67.23076923076924">Arwal</tspan></text><text x="90.71794871794872" y="405" style="font-family:'lucida grande', 'lucida sans unicode', verdana, arial, helvetica, sans-serif;font-size:11px;color:#000000;line-height:14px;font:normal 11px arial;font-weight:normal;text-decoration:none;width:100px;fill:#000000;" text-anchor="end" transform="rotate(270 90.71794871794872 405)"><tspan x="90.71794871794872">Aurangaabad</tspan></text><text x="114.2051282051282" y="405" style="font-family:'lucida grande', 'lucida sans unicode', verdana, arial, helvetica, sans-serif;font-size:11px;color:#000000;line-height:14px;font:normal 11px arial;font-weight:normal;text-decoration:none;width:100px;fill:#000000;" text-anchor="end" transform="rotate(270 114.2051282051282 405)"><tspan x="114.2051282051282">Banka</tspan></text><text x="137.69230769230768" y="405" style="font-family:'lucida grande', 'lucida sans unicode', verdana, arial, helvetica, sans-serif;font-size:11px;color:#000000;line-height:14px;font:normal 11px arial;font-weight:normal;text-decoration:none;width:100px;fill:#000000;" text-anchor="end" transform="rotate(270 137.69230769230768 405)"><tspan x="137.69230769230768">Begusarai</tspan></text><text x="161.17948717948715" y="405" style="font-family:'lucida grande', 'lucida sans unicode', verdana, arial, helvetica, sans-serif;font-size:11px;color:#000000;line-height:14px;font:normal 11px arial;font-weight:normal;text-decoration:none;width:100px;fill:#000000;" text-anchor="end" transform="rotate(270 161.17948717948715 405)"><tspan x="161.17948717948715">Bhagalpur</tspan></text><text x="184.66666666666666" y="405" style="font-family:'lucida grande', 'lucida sans unicode', verdana, arial, helvetica, sans-serif;font-size:11px;color:#000000;line-height:14px;font:normal 11px arial;font-weight:normal;text-decoration:none;width:100px;fill:#000000;" text-anchor="end" transform="rotate(270 184.66666666666666 405)"><tspan x="184.66666666666666">Bhojpur</tspan></text><text x="208.15384615384613" y="405" style="font-family:'lucida grande', 'lucida sans unicode', verdana, arial, helvetica, sans-serif;font-size:11px;color:#000000;line-height:14px;font:normal 11px arial;font-weight:normal;text-decoration:none;width:100px;fill:#000000;" text-anchor="end" transform="rotate(270 208.15384615384613 405)"><tspan x="208.15384615384613">Buxar</tspan></text><text x="231.6410256410256" y="405" style="font-family:'lucida grande', 'lucida sans unicode', verdana, arial, helvetica, sans-serif;font-size:11px;color:#000000;line-height:14px;font:normal 11px arial;font-weight:normal;text-decoration:none;width:100px;fill:#000000;" text-anchor="end" transform="rotate(270 231.6410256410256 405)"><tspan x="231.6410256410256">Champaran East</tspan></text><text x="255.1282051282051" y="405" style="font-family:'lucida grande', 'lucida sans unicode', verdana, arial, helvetica, sans-serif;font-size:11px;color:#000000;line-height:14px;font:normal 11px arial;font-weight:normal;text-decoration:none;width:100px;fill:#000000;" text-anchor="end" transform="rotate(270 255.1282051282051 405)"><tspan x="255.1282051282051">Champaran West</tspan></text><text x="278.61538461538464" y="405" style="font-family:'lucida grande', 'lucida sans unicode', verdana, arial, helvetica, sans-serif;font-size:11px;color:#000000;line-height:14px;font:normal 11px arial;font-weight:normal;text-decoration:none;width:100px;fill:#000000;" text-anchor="end" transform="rotate(270 278.61538461538464 405)"><tspan x="278.61538461538464">DVS</tspan></text><text x="302.1025641025641" y="405" style="font-family:'lucida grande', 'lucida sans unicode', verdana, arial, helvetica, sans-serif;font-size:11px;color:#000000;line-height:14px;font:normal 11px arial;font-weight:normal;text-decoration:none;width:100px;fill:#000000;" text-anchor="end" transform="rotate(270 302.1025641025641 405)"><tspan x="302.1025641025641">Darbhanga</tspan></text><text x="325.5897435897436" y="405" style="font-family:'lucida grande', 'lucida sans unicode', verdana, arial, helvetica, sans-serif;font-size:11px;color:#000000;line-height:14px;font:normal 11px arial;font-weight:normal;text-decoration:none;width:100px;fill:#000000;" text-anchor="end" transform="rotate(270 325.5897435897436 405)"><tspan x="325.5897435897436">Gaya</tspan></text><text x="349.0769230769231" y="405" style="font-family:'lucida grande', 'lucida sans unicode', verdana, arial, helvetica, sans-serif;font-size:11px;color:#000000;line-height:14px;font:normal 11px arial;font-weight:normal;text-decoration:none;width:100px;fill:#000000;" text-anchor="end" transform="rotate(270 349.0769230769231 405)"><tspan x="349.0769230769231">Gopalganj</tspan></text><text x="372.56410256410254" y="405" style="font-family:'lucida grande', 'lucida sans unicode', verdana, arial, helvetica, sans-serif;font-size:11px;color:#000000;line-height:14px;font:normal 11px arial;font-weight:normal;text-decoration:none;width:100px;fill:#000000;" text-anchor="end" transform="rotate(270 372.56410256410254 405)"><tspan x="372.56410256410254">Jamui</tspan></text><text x="396.05128205128204" y="405" style="font-family:'lucida grande', 'lucida sans unicode', verdana, arial, helvetica, sans-serif;font-size:11px;color:#000000;line-height:14px;font:normal 11px arial;font-weight:normal;text-decoration:none;width:100px;fill:#000000;" text-anchor="end" transform="rotate(270 396.05128205128204 405)"><tspan x="396.05128205128204">Jehanabad</tspan></text><text x="419.53846153846155" y="405" style="font-family:'lucida grande', 'lucida sans unicode', verdana, arial, helvetica, sans-serif;font-size:11px;color:#000000;line-height:14px;font:normal 11px arial;font-weight:normal;text-decoration:none;width:100px;fill:#000000;" text-anchor="end" transform="rotate(270 419.53846153846155 405)"><tspan x="419.53846153846155">Kaimur</tspan></text><text x="443.025641025641" y="405" style="font-family:'lucida grande', 'lucida sans unicode', verdana, arial, helvetica, sans-serif;font-size:11px;color:#000000;line-height:14px;font:normal 11px arial;font-weight:normal;text-decoration:none;width:100px;fill:#000000;" text-anchor="end" transform="rotate(270 443.025641025641 405)"><tspan x="443.025641025641">Katihar</tspan></text><text x="466.5128205128205" y="405" style="font-family:'lucida grande', 'lucida sans unicode', verdana, arial, helvetica, sans-serif;font-size:11px;color:#000000;line-height:14px;font:normal 11px arial;font-weight:normal;text-decoration:none;width:100px;fill:#000000;" text-anchor="end" transform="rotate(270 466.5128205128205 405)"><tspan x="466.5128205128205">Khagaria</tspan></text><text x="490" y="405" style="font-family:'lucida grande', 'lucida sans unicode', verdana, arial, helvetica, sans-serif;font-size:11px;color:#000000;line-height:14px;font:normal 11px arial;font-weight:normal;text-decoration:none;width:100px;fill:#000000;" text-anchor="end" transform="rotate(270 490 405)"><tspan x="490">Kishanganj</tspan></text><text x="513.4871794871794" y="405" style="font-family:'lucida grande', 'lucida sans unicode', verdana, arial, helvetica, sans-serif;font-size:11px;color:#000000;line-height:14px;font:normal 11px arial;font-weight:normal;text-decoration:none;width:100px;fill:#000000;" text-anchor="end" transform="rotate(270 513.4871794871794 405)"><tspan x="513.4871794871794">Lakhisarai</tspan></text><text x="536.974358974359" y="405" style="font-family:'lucida grande', 'lucida sans unicode', verdana, arial, helvetica, sans-serif;font-size:11px;color:#000000;line-height:14px;font:normal 11px arial;font-weight:normal;text-decoration:none;width:100px;fill:#000000;" text-anchor="end" transform="rotate(270 536.974358974359 405)"><tspan x="536.974358974359">Madhepura</tspan></text><text x="560.4615384615385" y="405" style="font-family:'lucida grande', 'lucida sans unicode', verdana, arial, helvetica, sans-serif;font-size:11px;color:#000000;line-height:14px;font:normal 11px arial;font-weight:normal;text-decoration:none;width:100px;fill:#000000;" text-anchor="end" transform="rotate(270 560.4615384615385 405)"><tspan x="560.4615384615385">Madhubani</tspan></text><text x="583.9487179487179" y="405" style="font-family:'lucida grande', 'lucida sans unicode', verdana, arial, helvetica, sans-serif;font-size:11px;color:#000000;line-height:14px;font:normal 11px arial;font-weight:normal;text-decoration:none;width:100px;fill:#000000;" text-anchor="end" transform="rotate(270 583.9487179487179 405)"><tspan x="583.9487179487179">Munger</tspan></text><text x="607.4358974358975" y="405" style="font-family:'lucida grande', 'lucida sans unicode', verdana, arial, helvetica, sans-serif;font-size:11px;color:#000000;line-height:14px;font:normal 11px arial;font-weight:normal;text-decoration:none;width:100px;fill:#000000;" text-anchor="end" transform="rotate(270 607.4358974358975 405)"><tspan x="607.4358974358975">Muzaffarpur</tspan></text><text x="630.9230769230769" y="405" style="font-family:'lucida grande', 'lucida sans unicode', verdana, arial, helvetica, sans-serif;font-size:11px;color:#000000;line-height:14px;font:normal 11px arial;font-weight:normal;text-decoration:none;width:100px;fill:#000000;" text-anchor="end" transform="rotate(270 630.9230769230769 405)"><tspan x="630.9230769230769">Nalanda</tspan></text><text x="654.4102564102564" y="405" style="font-family:'lucida grande', 'lucida sans unicode', verdana, arial, helvetica, sans-serif;font-size:11px;color:#000000;line-height:14px;font:normal 11px arial;font-weight:normal;text-decoration:none;width:100px;fill:#000000;" text-anchor="end" transform="rotate(270 654.4102564102564 405)"><tspan x="654.4102564102564">Nawada</tspan></text><text x="677.8974358974359" y="405" style="font-family:'lucida grande', 'lucida sans unicode', verdana, arial, helvetica, sans-serif;font-size:11px;color:#000000;line-height:14px;font:normal 11px arial;font-weight:normal;text-decoration:none;width:100px;fill:#000000;" text-anchor="end" transform="rotate(270 677.8974358974359 405)"><tspan x="677.8974358974359">Patna</tspan></text><text x="701.3846153846154" y="405" style="font-family:'lucida grande', 'lucida sans unicode', verdana, arial, helvetica, sans-serif;font-size:11px;color:#000000;line-height:14px;font:normal 11px arial;font-weight:normal;text-decoration:none;width:100px;fill:#000000;" text-anchor="end" transform="rotate(270 701.3846153846154 405)"><tspan x="701.3846153846154">Purnia</tspan></text><text x="724.8717948717948" y="405" style="font-family:'lucida grande', 'lucida sans unicode', verdana, arial, helvetica, sans-serif;font-size:11px;color:#000000;line-height:14px;font:normal 11px arial;font-weight:normal;text-decoration:none;width:100px;fill:#000000;" text-anchor="end" transform="rotate(270 724.8717948717948 405)"><tspan x="724.8717948717948">Rohtas</tspan></text><text x="748.3589743589744" y="405" style="font-family:'lucida grande', 'lucida sans unicode', verdana, arial, helvetica, sans-serif;font-size:11px;color:#000000;line-height:14px;font:normal 11px arial;font-weight:normal;text-decoration:none;width:100px;fill:#000000;" text-anchor="end" transform="rotate(270 748.3589743589744 405)"><tspan x="748.3589743589744">Saharsa</tspan></text><text x="771.8461538461538" y="405" style="font-family:'lucida grande', 'lucida sans unicode', verdana, arial, helvetica, sans-serif;font-size:11px;color:#000000;line-height:14px;font:normal 11px arial;font-weight:normal;text-decoration:none;width:100px;fill:#000000;" text-anchor="end" transform="rotate(270 771.8461538461538 405)"><tspan x="771.8461538461538">Samastipur</tspan></text><text x="795.3333333333333" y="405" style="font-family:'lucida grande', 'lucida sans unicode', verdana, arial, helvetica, sans-serif;font-size:11px;color:#000000;line-height:14px;font:normal 11px arial;font-weight:normal;text-decoration:none;width:100px;fill:#000000;" text-anchor="end" transform="rotate(270 795.3333333333333 405)"><tspan x="795.3333333333333">Saran</tspan></text><text x="818.8205128205128" y="405" style="font-family:'lucida grande', 'lucida sans unicode', verdana, arial, helvetica, sans-serif;font-size:11px;color:#000000;line-height:14px;font:normal 11px arial;font-weight:normal;text-decoration:none;width:100px;fill:#000000;" text-anchor="end" transform="rotate(270 818.8205128205128 405)"><tspan x="818.8205128205128">Sheikhpura</tspan></text><text x="842.3076923076923" y="405" style="font-family:'lucida grande', 'lucida sans unicode', verdana, arial, helvetica, sans-serif;font-size:11px;color:#000000;line-height:14px;font:normal 11px arial;font-weight:normal;text-decoration:none;width:100px;fill:#000000;" text-anchor="end" transform="rotate(270 842.3076923076923 405)"><tspan x="842.3076923076923">Sheohar</tspan></text><text x="865.7948717948717" y="405" style="font-family:'lucida grande', 'lucida sans unicode', verdana, arial, helvetica, sans-serif;font-size:11px;color:#000000;line-height:14px;font:normal 11px arial;font-weight:normal;text-decoration:none;width:100px;fill:#000000;" text-anchor="end" transform="rotate(270 865.7948717948717 405)"><tspan x="865.7948717948717">Sitamarhi</tspan></text><text x="889.2820512820513" y="405" style="font-family:'lucida grande', 'lucida sans unicode', verdana, arial, helvetica, sans-serif;font-size:11px;color:#000000;line-height:14px;font:normal 11px arial;font-weight:normal;text-decoration:none;width:100px;fill:#000000;" text-anchor="end" transform="rotate(270 889.2820512820513 405)"><tspan x="889.2820512820513">Siwan</tspan></text><text x="912.7692307692307" y="405" style="font-family:'lucida grande', 'lucida sans unicode', verdana, arial, helvetica, sans-serif;font-size:11px;color:#000000;line-height:14px;font:normal 11px arial;font-weight:normal;text-decoration:none;width:100px;fill:#000000;" text-anchor="end" transform="rotate(270 912.7692307692307 405)"><tspan x="912.7692307692307">Supaul</tspan></text><text x="936.2564102564102" y="405" style="font-family:'lucida grande', 'lucida sans unicode', verdana, arial, helvetica, sans-serif;font-size:11px;color:#000000;line-height:14px;font:normal 11px arial;font-weight:normal;text-decoration:none;width:100px;fill:#000000;" text-anchor="end" transform="rotate(270 936.2564102564102 405)"><tspan x="936.2564102564102">Vaishali</tspan></text><path d="M 55.5 385 L 55.5 390" fill="none" stroke="#C0D0E0" stroke-width="1"></path><path d="M 79.5 385 L 79.5 390" fill="none" stroke="#C0D0E0" stroke-width="1"></path><path d="M 102.5 385 L 102.5 390" fill="none" stroke="#C0D0E0" stroke-width="1"></path><path d="M 126.5 385 L 126.5 390" fill="none" stroke="#C0D0E0" stroke-width="1"></path><path d="M 149.5 385 L 149.5 390" fill="none" stroke="#C0D0E0" stroke-width="1"></path><path d="M 173.5 385 L 173.5 390" fill="none" stroke="#C0D0E0" stroke-width="1"></path><path d="M 196.5 385 L 196.5 390" fill="none" stroke="#C0D0E0" stroke-width="1"></path><path d="M 220.5 385 L 220.5 390" fill="none" stroke="#C0D0E0" stroke-width="1"></path><path d="M 243.5 385 L 243.5 390" fill="none" stroke="#C0D0E0" stroke-width="1"></path><path d="M 267.5 385 L 267.5 390" fill="none" stroke="#C0D0E0" stroke-width="1"></path><path d="M 290.5 385 L 290.5 390" fill="none" stroke="#C0D0E0" stroke-width="1"></path><path d="M 314.5 385 L 314.5 390" fill="none" stroke="#C0D0E0" stroke-width="1"></path><path d="M 337.5 385 L 337.5 390" fill="none" stroke="#C0D0E0" stroke-width="1"></path><path d="M 361.5 385 L 361.5 390" fill="none" stroke="#C0D0E0" stroke-width="1"></path><path d="M 384.5 385 L 384.5 390" fill="none" stroke="#C0D0E0" stroke-width="1"></path><path d="M 408.5 385 L 408.5 390" fill="none" stroke="#C0D0E0" stroke-width="1"></path><path d="M 431.5 385 L 431.5 390" fill="none" stroke="#C0D0E0" stroke-width="1"></path><path d="M 455.5 385 L 455.5 390" fill="none" stroke="#C0D0E0" stroke-width="1"></path><path d="M 478.5 385 L 478.5 390" fill="none" stroke="#C0D0E0" stroke-width="1"></path><path d="M 502.5 385 L 502.5 390" fill="none" stroke="#C0D0E0" stroke-width="1"></path><path d="M 525.5 385 L 525.5 390" fill="none" stroke="#C0D0E0" stroke-width="1"></path><path d="M 549.5 385 L 549.5 390" fill="none" stroke="#C0D0E0" stroke-width="1"></path><path d="M 572.5 385 L 572.5 390" fill="none" stroke="#C0D0E0" stroke-width="1"></path><path d="M 596.5 385 L 596.5 390" fill="none" stroke="#C0D0E0" stroke-width="1"></path><path d="M 619.5 385 L 619.5 390" fill="none" stroke="#C0D0E0" stroke-width="1"></path><path d="M 643.5 385 L 643.5 390" fill="none" stroke="#C0D0E0" stroke-width="1"></path><path d="M 666.5 385 L 666.5 390" fill="none" stroke="#C0D0E0" stroke-width="1"></path><path d="M 690.5 385 L 690.5 390" fill="none" stroke="#C0D0E0" stroke-width="1"></path><path d="M 713.5 385 L 713.5 390" fill="none" stroke="#C0D0E0" stroke-width="1"></path><path d="M 737.5 385 L 737.5 390" fill="none" stroke="#C0D0E0" stroke-width="1"></path><path d="M 760.5 385 L 760.5 390" fill="none" stroke="#C0D0E0" stroke-width="1"></path><path d="M 784.5 385 L 784.5 390" fill="none" stroke="#C0D0E0" stroke-width="1"></path><path d="M 807.5 385 L 807.5 390" fill="none" stroke="#C0D0E0" stroke-width="1"></path><path d="M 831.5 385 L 831.5 390" fill="none" stroke="#C0D0E0" stroke-width="1"></path><path d="M 854.5 385 L 854.5 390" fill="none" stroke="#C0D0E0" stroke-width="1"></path><path d="M 878.5 385 L 878.5 390" fill="none" stroke="#C0D0E0" stroke-width="1"></path><path d="M 901.5 385 L 901.5 390" fill="none" stroke="#C0D0E0" stroke-width="1"></path><path d="M 925.5 385 L 925.5 390" fill="none" stroke="#C0D0E0" stroke-width="1"></path><path d="M 948.5 385 L 948.5 390" fill="none" stroke="#C0D0E0" stroke-width="1"></path></g><g class="highcharts-axis" ><text x="22" y="390" style="font-family:'lucida grande', 'lucida sans unicode', verdana, arial, helvetica, sans-serif;font-size:11px;width:100px;color:#000000;line-height:14px;font:normal 11px arial;font-weight:normal;text-decoration:none;fill:#000000;" text-anchor="end"><tspan x="22">25</tspan></text><text x="22" y="346.875" style="font-family:'lucida grande', 'lucida sans unicode', verdana, arial, helvetica, sans-serif;font-size:11px;width:100px;color:#000000;line-height:14px;font:normal 11px arial;font-weight:normal;text-decoration:none;fill:#000000;" text-anchor="end"><tspan x="22">30</tspan></text><text x="22" y="303.75" style="font-family:'lucida grande', 'lucida sans unicode', verdana, arial, helvetica, sans-serif;font-size:11px;width:100px;color:#000000;line-height:14px;font:normal 11px arial;font-weight:normal;text-decoration:none;fill:#000000;" text-anchor="end"><tspan x="22">35</tspan></text><text x="22" y="260.625" style="font-family:'lucida grande', 'lucida sans unicode', verdana, arial, helvetica, sans-serif;font-size:11px;width:100px;color:#000000;line-height:14px;font:normal 11px arial;font-weight:normal;text-decoration:none;fill:#000000;" text-anchor="end"><tspan x="22">40</tspan></text><text x="22" y="217.5" style="font-family:'lucida grande', 'lucida sans unicode', verdana, arial, helvetica, sans-serif;font-size:11px;width:100px;color:#000000;line-height:14px;font:normal 11px arial;font-weight:normal;text-decoration:none;fill:#000000;" text-anchor="end"><tspan x="22">45</tspan></text><text x="22" y="174.375" style="font-family:'lucida grande', 'lucida sans unicode', verdana, arial, helvetica, sans-serif;font-size:11px;width:100px;color:#000000;line-height:14px;font:normal 11px arial;font-weight:normal;text-decoration:none;fill:#000000;" text-anchor="end"><tspan x="22">50</tspan></text><text x="22" y="131.25" style="font-family:'lucida grande', 'lucida sans unicode', verdana, arial, helvetica, sans-serif;font-size:11px;width:100px;color:#000000;line-height:14px;font:normal 11px arial;font-weight:normal;text-decoration:none;fill:#000000;" text-anchor="end"><tspan x="22">55</tspan></text><text x="22" y="88.125" style="font-family:'lucida grande', 'lucida sans unicode', verdana, arial, helvetica, sans-serif;font-size:11px;width:100px;color:#000000;line-height:14px;font:normal 11px arial;font-weight:normal;text-decoration:none;fill:#000000;" text-anchor="end"><tspan x="22">60</tspan></text><text x="22" y="45" style="font-family:'lucida grande', 'lucida sans unicode', verdana, arial, helvetica, sans-serif;font-size:11px;width:100px;color:#000000;line-height:14px;font:normal 11px arial;font-weight:normal;text-decoration:none;fill:#000000;" text-anchor="end"><tspan x="22">65</tspan></text></g><path d="M 32 385.5 L 948 385.5" fill="none" stroke="#C0D0E0" stroke-width="1" ></path><path d="M 32.5 40 L 32.5 385" fill="none" stroke="#C0D0E0" stroke-width="1" ></path><g class="highcharts-tooltip"  visibility="hidden" transform="translate(428,101)"><rect rx="5" ry="5" fill="none" x="7" y="7" width="100" height="46" stroke-width="5" fill-opacity="0.85"  stroke="rgb(0, 0, 0)" stroke-opacity="0.05" transform="translate(1,1)"></rect><rect rx="5" ry="5" fill="none" x="7" y="7" width="100" height="46" stroke-width="3" fill-opacity="0.85"  stroke="rgb(0, 0, 0)" stroke-opacity="0.1" transform="translate(1,1)"></rect><rect rx="5" ry="5" fill="none" x="7" y="7" width="100" height="46" stroke-width="1" fill-opacity="0.85"  stroke="rgb(0, 0, 0)" stroke-opacity="0.15000000000000002" transform="translate(1,1)"></rect><rect rx="5" ry="5" fill="rgb(255,255,255)" x="7" y="7" width="100" height="46" stroke-width="2" fill-opacity="0.85" stroke="#827B60"></rect><text x="12" y="24" style="font-family:'lucida grande', 'lucida sans unicode', verdana, arial, helvetica, sans-serif;font-size:12px;color:#333333;padding:0;white-space:nowrap;width:500px;fill:#333333;" ><tspan style="font-weight:bold" x="12">Madhubani: 53</tspan><tspan dy="18" x="12">Data Value</tspan></text></g><text x="948" y="495" style="font-family:'lucida grande', 'lucida sans unicode', verdana, arial, helvetica, sans-serif;font-size:10px;cursor:pointer;color:#909090;fill:#909090;" text-anchor="end" ><tspan x="948"> </tspan></text><g class="highcharts-tracker"  transform="translate(32,40)"><path d="M 1.7435897435897427 232.875 L 11.743589743589743 232.875 L 35.230769230769226 189.75 L 58.717948717948715 146.625 L 82.2051282051282 215.625 L 105.69230769230768 181.125 L 129.17948717948718 138 L 152.66666666666666 51.75 L 176.15384615384613 112.125 L 199.64102564102564 138 L 223.1282051282051 181.125 L 246.61538461538458 163.875 L 270.1025641025641 60.375 L 293.5897435897436 146.625 L 317.07692307692304 276 L 340.56410256410254 120.75 L 364.05128205128204 94.875 L 387.5384615384615 86.25 L 411.025641025641 172.5 L 434.5128205128205 293.25 L 457.99999999999994 232.875 L 481.48717948717945 94.875 L 504.97435897435895 215.625 L 528.4615384615385 103.5 L 551.9487179487179 155.25 L 575.4358974358973 181.125 L 598.9230769230769 60.375 L 622.4102564102564 319.125 L 645.8974358974358 103.5 L 669.3846153846154 207 L 692.8717948717948 94.875 L 716.3589743589743 138 L 739.8461538461538 86.25 L 763.3333333333333 241.5 L 786.8205128205128 319.125 L 810.3076923076923 284.625 L 833.7948717948717 241.5 L 857.2820512820513 51.75 L 880.7692307692307 69 L 904.2564102564102 215.625 L 914.2564102564102 215.625" fill="none"  stroke-opacity="0.000001" stroke="rgb(192,192,192)" stroke-width="22" visibility="visible"  style=""></path></g></svg>