<svg xmlns:xlink="http://www.w3.org/1999/xlink" style="direction: ltr;" height="500" width="958" version="1.1" xmlns="http://www.w3.org/2000/svg"><defs><clipPath id="highcharts-7"><rect stroke-width="0" height="344" width="907" y="0" x="0" fill="none" ry="0" rx="0"></rect></clipPath></defs><rect stroke="#d3d3d3" stroke-width="0" height="500" width="958" y="0" x="0" fill="#FFFFFF" ry="5" rx="5"></rect><rect stroke-width="0" height="344" width="907" y="40" x="41" fill="#ffffff" ry="0" rx="0"></rect><rect border="0" stroke-width="0" height="10" width="10" y="-5" x="-5" fill="none" ry="5" rx="5"></rect><text  class="highcharts-title" text-anchor="middle" style="font-family:'lucida grande', 'lucida sans unicode', verdana, arial, helvetica, sans-serif;font-size:16px;color:#000000;font:normal 15px arial;font-weight:normal;text-decoration:none;width:600px;fill:#000000;" y="25" x="479"><tspan x="479">E2 : Temperature - Percent, 2014.07</tspan></text><g  class="highcharts-grid"></g><g  class="highcharts-grid"></g><g  class="highcharts-series-group"><g transform="translate(41,40)" visibility="visible" clip-path="url(#highcharts-7)" class="highcharts-series"><path stroke-width="2" stroke="#827B60" fill="none" d="M 11.628205128205128 134.16 L 34.88461538461539 113.52000000000001 L 58.141025641025635 134.16 L 81.3974358974359 209.84 L 104.65384615384615 113.52000000000001 L 127.91025641025641 144.48 L 151.16666666666666 48.160000000000025 L 174.4230769230769 96.32 L 197.67948717948718 48.160000000000025 L 220.93589743589743 96.32 L 244.19230769230768 134.16 L 267.44871794871796 161.68 L 290.7051282051282 113.52000000000001 L 313.96153846153845 134.16 L 337.21794871794873 192.64000000000001 L 360.47435897435895 96.32 L 383.7307692307692 96.32 L 406.98717948717945 192.64000000000001 L 430.2435897435897 247.68 L 453.5 37.84000000000003 L 476.7564102564102 20.639999999999986 L 500.0128205128205 247.68 L 523.2692307692307 113.52000000000001 L 546.525641025641 134.16 L 569.7820512820513 209.84 L 593.0384615384615 20.639999999999986 L 616.2948717948718 230.48000000000002 L 639.551282051282 230.48000000000002 L 662.8076923076923 96.32 L 686.0641025641025 96.32 L 709.3205128205128 96.32 L 732.5769230769231 113.52000000000001 L 755.8333333333333 134.16 L 779.0897435897435 323.36 L 802.3461538461538 151.36 L 825.6025641025641 230.48000000000002 L 848.8589743589744 37.84000000000003 L 872.1153846153845 96.32 L 895.3717948717948 86"></path><circle fill="#827B60" stroke-width="1" stroke="#FFFFFF" r="3" cy="86" cx="895.3717948717948"></circle><circle fill="#827B60" stroke-width="1" stroke="#FFFFFF" r="3" cy="96.32" cx="872.1153846153845"></circle><circle fill="#827B60" stroke-width="1" stroke="#FFFFFF" r="3" cy="37.84000000000003" cx="848.8589743589744"></circle><circle fill="#827B60" stroke-width="1" stroke="#FFFFFF" r="3" cy="230.48000000000002" cx="825.6025641025641"></circle><circle fill="#827B60" stroke-width="1" stroke="#FFFFFF" r="3" cy="151.36" cx="802.3461538461538"></circle><circle fill="#827B60" stroke-width="1" stroke="#FFFFFF" r="3" cy="323.36" cx="779.0897435897435"></circle><circle fill="#827B60" stroke-width="1" stroke="#FFFFFF" r="3" cy="134.16" cx="755.8333333333333"></circle><circle fill="#827B60" stroke-width="1" stroke="#FFFFFF" r="3" cy="113.52000000000001" cx="732.5769230769231"></circle><circle fill="#827B60" stroke-width="1" stroke="#FFFFFF" r="3" cy="96.32" cx="709.3205128205128"></circle><circle fill="#827B60" stroke-width="1" stroke="#FFFFFF" r="3" cy="96.32" cx="686.0641025641025"></circle><circle fill="#827B60" stroke-width="1" stroke="#FFFFFF" r="3" cy="96.32" cx="662.8076923076923"></circle><circle fill="#827B60" stroke-width="1" stroke="#FFFFFF" r="3" cy="230.48000000000002" cx="639.551282051282"></circle><circle fill="#827B60" stroke-width="1" stroke="#FFFFFF" r="3" cy="230.48000000000002" cx="616.2948717948718"></circle><circle fill="#827B60" stroke-width="1" stroke="#FFFFFF" r="3" cy="20.639999999999986" cx="593.0384615384615"></circle><circle fill="#827B60" stroke-width="1" stroke="#FFFFFF" r="3" cy="209.84" cx="569.7820512820513"></circle><circle fill="#827B60" stroke-width="1" stroke="#FFFFFF" r="3" cy="134.16" cx="546.525641025641"></circle><circle fill="#827B60" stroke-width="1" stroke="#FFFFFF" r="3" cy="113.52000000000001" cx="523.2692307692307"></circle><circle fill="#827B60" stroke-width="1" stroke="#FFFFFF" r="3" cy="247.68" cx="500.0128205128205"></circle><circle fill="#827B60" stroke-width="1" stroke="#FFFFFF" r="3" cy="20.639999999999986" cx="476.7564102564102"></circle><circle fill="#827B60" stroke-width="1" stroke="#FFFFFF" r="3" cy="37.84000000000003" cx="453.5"></circle><circle fill="#827B60" stroke-width="1" stroke="#FFFFFF" r="3" cy="247.68" cx="430.2435897435897"></circle><circle fill="#827B60" stroke-width="1" stroke="#FFFFFF" r="3" cy="192.64000000000001" cx="406.98717948717945"></circle><circle fill="#827B60" stroke-width="1" stroke="#FFFFFF" r="3" cy="96.32" cx="383.7307692307692"></circle><circle fill="#827B60" stroke-width="1" stroke="#FFFFFF" r="3" cy="96.32" cx="360.47435897435895"></circle><circle fill="#827B60" stroke-width="1" stroke="#FFFFFF" r="3" cy="192.64000000000001" cx="337.21794871794873"></circle><circle fill="#827B60" stroke-width="1" stroke="#FFFFFF" r="3" cy="134.16" cx="313.96153846153845"></circle><circle fill="#827B60" stroke-width="1" stroke="#FFFFFF" r="3" cy="113.52000000000001" cx="290.7051282051282"></circle><circle fill="#827B60" stroke-width="1" stroke="#FFFFFF" r="3" cy="161.68" cx="267.44871794871796"></circle><circle fill="#827B60" stroke-width="1" stroke="#FFFFFF" r="3" cy="134.16" cx="244.19230769230768"></circle><circle fill="#827B60" stroke-width="1" stroke="#FFFFFF" r="3" cy="96.32" cx="220.93589743589743"></circle><circle fill="#827B60" stroke-width="1" stroke="#FFFFFF" r="3" cy="48.160000000000025" cx="197.67948717948718"></circle><circle fill="#827B60" stroke-width="1" stroke="#FFFFFF" r="3" cy="96.32" cx="174.4230769230769"></circle><circle fill="#827B60" stroke-width="1" stroke="#FFFFFF" r="3" cy="48.160000000000025" cx="151.16666666666666"></circle><circle fill="#827B60" stroke-width="1" stroke="#FFFFFF" r="3" cy="144.48" cx="127.91025641025641"></circle><circle fill="#827B60" stroke-width="1" stroke="#FFFFFF" r="3" cy="113.52000000000001" cx="104.65384615384615"></circle><circle fill="#827B60" stroke-width="1" stroke="#FFFFFF" r="3" cy="209.84" cx="81.3974358974359"></circle><circle fill="#827B60" stroke-width="1" stroke="#FFFFFF" r="3" cy="134.16" cx="58.141025641025635"></circle><circle fill="#827B60" stroke-width="1" stroke="#FFFFFF" r="3" cy="113.52000000000001" cx="34.88461538461539"></circle><circle fill="#827B60" stroke-width="1" stroke="#FFFFFF" r="3" cy="134.16" cx="11.628205128205128"></circle></g></g><text  style="font-family:'lucida grande', 'lucida sans unicode', verdana, arial, helvetica, sans-serif;font-size:12px;color:#4572a7;font:normal 10px arial;font-weight:normal;text-decoration:none;fill:#4572a7;" y="500" x="20"><tspan x="20"> </tspan></text><text  style="font-family:'lucida grande', 'lucida sans unicode', verdana, arial, helvetica, sans-serif;font-size:12px;color:#4572a7;font:normal 10px arial;font-weight:normal;text-decoration:none;fill:#4572a7;" y="50" x="50"><tspan x="50"> </tspan></text><g  class="highcharts-axis"><text transform="rotate(270 52.628205128205124 404)" text-anchor="end" style="font-family:'lucida grande', 'lucida sans unicode', verdana, arial, helvetica, sans-serif;font-size:11px;color:#000000;line-height:14px;font:normal 11px arial;font-weight:normal;text-decoration:none;width:100px;fill:#000000;" y="404" x="52.628205128205124"><tspan x="52.628205128205124">Araria</tspan></text><text transform="rotate(270 75.88461538461539 404)" text-anchor="end" style="font-family:'lucida grande', 'lucida sans unicode', verdana, arial, helvetica, sans-serif;font-size:11px;color:#000000;line-height:14px;font:normal 11px arial;font-weight:normal;text-decoration:none;width:100px;fill:#000000;" y="404" x="75.88461538461539"><tspan x="75.88461538461539">Arwal</tspan></text><text transform="rotate(270 99.14102564102565 404)" text-anchor="end" style="font-family:'lucida grande', 'lucida sans unicode', verdana, arial, helvetica, sans-serif;font-size:11px;color:#000000;line-height:14px;font:normal 11px arial;font-weight:normal;text-decoration:none;width:100px;fill:#000000;" y="404" x="99.14102564102565"><tspan x="99.14102564102565">Aurangaabad</tspan></text><text transform="rotate(270 122.3974358974359 404)" text-anchor="end" style="font-family:'lucida grande', 'lucida sans unicode', verdana, arial, helvetica, sans-serif;font-size:11px;color:#000000;line-height:14px;font:normal 11px arial;font-weight:normal;text-decoration:none;width:100px;fill:#000000;" y="404" x="122.3974358974359"><tspan x="122.3974358974359">Banka</tspan></text><text transform="rotate(270 145.65384615384613 404)" text-anchor="end" style="font-family:'lucida grande', 'lucida sans unicode', verdana, arial, helvetica, sans-serif;font-size:11px;color:#000000;line-height:14px;font:normal 11px arial;font-weight:normal;text-decoration:none;width:100px;fill:#000000;" y="404" x="145.65384615384613"><tspan x="145.65384615384613">Begusarai</tspan></text><text transform="rotate(270 168.9102564102564 404)" text-anchor="end" style="font-family:'lucida grande', 'lucida sans unicode', verdana, arial, helvetica, sans-serif;font-size:11px;color:#000000;line-height:14px;font:normal 11px arial;font-weight:normal;text-decoration:none;width:100px;fill:#000000;" y="404" x="168.9102564102564"><tspan x="168.9102564102564">Bhagalpur</tspan></text><text transform="rotate(270 192.16666666666666 404)" text-anchor="end" style="font-family:'lucida grande', 'lucida sans unicode', verdana, arial, helvetica, sans-serif;font-size:11px;color:#000000;line-height:14px;font:normal 11px arial;font-weight:normal;text-decoration:none;width:100px;fill:#000000;" y="404" x="192.16666666666666"><tspan x="192.16666666666666">Bhojpur</tspan></text><text transform="rotate(270 215.4230769230769 404)" text-anchor="end" style="font-family:'lucida grande', 'lucida sans unicode', verdana, arial, helvetica, sans-serif;font-size:11px;color:#000000;line-height:14px;font:normal 11px arial;font-weight:normal;text-decoration:none;width:100px;fill:#000000;" y="404" x="215.4230769230769"><tspan x="215.4230769230769">Buxar</tspan></text><text transform="rotate(270 238.67948717948715 404)" text-anchor="end" style="font-family:'lucida grande', 'lucida sans unicode', verdana, arial, helvetica, sans-serif;font-size:11px;color:#000000;line-height:14px;font:normal 11px arial;font-weight:normal;text-decoration:none;width:100px;fill:#000000;" y="404" x="238.67948717948715"><tspan x="238.67948717948715">Champaran East</tspan></text><text transform="rotate(270 261.9358974358974 404)" text-anchor="end" style="font-family:'lucida grande', 'lucida sans unicode', verdana, arial, helvetica, sans-serif;font-size:11px;color:#000000;line-height:14px;font:normal 11px arial;font-weight:normal;text-decoration:none;width:100px;fill:#000000;" y="404" x="261.9358974358974"><tspan x="261.9358974358974">Champaran West</tspan></text><text transform="rotate(270 285.1923076923077 404)" text-anchor="end" style="font-family:'lucida grande', 'lucida sans unicode', verdana, arial, helvetica, sans-serif;font-size:11px;color:#000000;line-height:14px;font:normal 11px arial;font-weight:normal;text-decoration:none;width:100px;fill:#000000;" y="404" x="285.1923076923077"><tspan x="285.1923076923077">DVS</tspan></text><text transform="rotate(270 308.44871794871796 404)" text-anchor="end" style="font-family:'lucida grande', 'lucida sans unicode', verdana, arial, helvetica, sans-serif;font-size:11px;color:#000000;line-height:14px;font:normal 11px arial;font-weight:normal;text-decoration:none;width:100px;fill:#000000;" y="404" x="308.44871794871796"><tspan x="308.44871794871796">Darbhanga</tspan></text><text transform="rotate(270 331.7051282051282 404)" text-anchor="end" style="font-family:'lucida grande', 'lucida sans unicode', verdana, arial, helvetica, sans-serif;font-size:11px;color:#000000;line-height:14px;font:normal 11px arial;font-weight:normal;text-decoration:none;width:100px;fill:#000000;" y="404" x="331.7051282051282"><tspan x="331.7051282051282">Gaya</tspan></text><text transform="rotate(270 354.96153846153845 404)" text-anchor="end" style="font-family:'lucida grande', 'lucida sans unicode', verdana, arial, helvetica, sans-serif;font-size:11px;color:#000000;line-height:14px;font:normal 11px arial;font-weight:normal;text-decoration:none;width:100px;fill:#000000;" y="404" x="354.96153846153845"><tspan x="354.96153846153845">Gopalganj</tspan></text><text transform="rotate(270 378.2179487179487 404)" text-anchor="end" style="font-family:'lucida grande', 'lucida sans unicode', verdana, arial, helvetica, sans-serif;font-size:11px;color:#000000;line-height:14px;font:normal 11px arial;font-weight:normal;text-decoration:none;width:100px;fill:#000000;" y="404" x="378.2179487179487"><tspan x="378.2179487179487">Jamui</tspan></text><text transform="rotate(270 401.47435897435895 404)" text-anchor="end" style="font-family:'lucida grande', 'lucida sans unicode', verdana, arial, helvetica, sans-serif;font-size:11px;color:#000000;line-height:14px;font:normal 11px arial;font-weight:normal;text-decoration:none;width:100px;fill:#000000;" y="404" x="401.47435897435895"><tspan x="401.47435897435895">Jehanabad</tspan></text><text transform="rotate(270 424.7307692307692 404)" text-anchor="end" style="font-family:'lucida grande', 'lucida sans unicode', verdana, arial, helvetica, sans-serif;font-size:11px;color:#000000;line-height:14px;font:normal 11px arial;font-weight:normal;text-decoration:none;width:100px;fill:#000000;" y="404" x="424.7307692307692"><tspan x="424.7307692307692">Kaimur</tspan></text><text transform="rotate(270 447.98717948717945 404)" text-anchor="end" style="font-family:'lucida grande', 'lucida sans unicode', verdana, arial, helvetica, sans-serif;font-size:11px;color:#000000;line-height:14px;font:normal 11px arial;font-weight:normal;text-decoration:none;width:100px;fill:#000000;" y="404" x="447.98717948717945"><tspan x="447.98717948717945">Katihar</tspan></text><text transform="rotate(270 471.2435897435897 404)" text-anchor="end" style="font-family:'lucida grande', 'lucida sans unicode', verdana, arial, helvetica, sans-serif;font-size:11px;color:#000000;line-height:14px;font:normal 11px arial;font-weight:normal;text-decoration:none;width:100px;fill:#000000;" y="404" x="471.2435897435897"><tspan x="471.2435897435897">Khagaria</tspan></text><text transform="rotate(270 494.49999999999994 404)" text-anchor="end" style="font-family:'lucida grande', 'lucida sans unicode', verdana, arial, helvetica, sans-serif;font-size:11px;color:#000000;line-height:14px;font:normal 11px arial;font-weight:normal;text-decoration:none;width:100px;fill:#000000;" y="404" x="494.49999999999994"><tspan x="494.49999999999994">Kishanganj</tspan></text><text transform="rotate(270 517.7564102564103 404)" text-anchor="end" style="font-family:'lucida grande', 'lucida sans unicode', verdana, arial, helvetica, sans-serif;font-size:11px;color:#000000;line-height:14px;font:normal 11px arial;font-weight:normal;text-decoration:none;width:100px;fill:#000000;" y="404" x="517.7564102564103"><tspan x="517.7564102564103">Lakhisarai</tspan></text><text transform="rotate(270 541.0128205128206 404)" text-anchor="end" style="font-family:'lucida grande', 'lucida sans unicode', verdana, arial, helvetica, sans-serif;font-size:11px;color:#000000;line-height:14px;font:normal 11px arial;font-weight:normal;text-decoration:none;width:100px;fill:#000000;" y="404" x="541.0128205128206"><tspan x="541.0128205128206">Madhepura</tspan></text><text transform="rotate(270 564.2692307692308 404)" text-anchor="end" style="font-family:'lucida grande', 'lucida sans unicode', verdana, arial, helvetica, sans-serif;font-size:11px;color:#000000;line-height:14px;font:normal 11px arial;font-weight:normal;text-decoration:none;width:100px;fill:#000000;" y="404" x="564.2692307692308"><tspan x="564.2692307692308">Madhubani</tspan></text><text transform="rotate(270 587.5256410256411 404)" text-anchor="end" style="font-family:'lucida grande', 'lucida sans unicode', verdana, arial, helvetica, sans-serif;font-size:11px;color:#000000;line-height:14px;font:normal 11px arial;font-weight:normal;text-decoration:none;width:100px;fill:#000000;" y="404" x="587.5256410256411"><tspan x="587.5256410256411">Munger</tspan></text><text transform="rotate(270 610.7820512820513 404)" text-anchor="end" style="font-family:'lucida grande', 'lucida sans unicode', verdana, arial, helvetica, sans-serif;font-size:11px;color:#000000;line-height:14px;font:normal 11px arial;font-weight:normal;text-decoration:none;width:100px;fill:#000000;" y="404" x="610.7820512820513"><tspan x="610.7820512820513">Muzaffarpur</tspan></text><text transform="rotate(270 634.0384615384615 404)" text-anchor="end" style="font-family:'lucida grande', 'lucida sans unicode', verdana, arial, helvetica, sans-serif;font-size:11px;color:#000000;line-height:14px;font:normal 11px arial;font-weight:normal;text-decoration:none;width:100px;fill:#000000;" y="404" x="634.0384615384615"><tspan x="634.0384615384615">Nalanda</tspan></text><text transform="rotate(270 657.2948717948718 404)" text-anchor="end" style="font-family:'lucida grande', 'lucida sans unicode', verdana, arial, helvetica, sans-serif;font-size:11px;color:#000000;line-height:14px;font:normal 11px arial;font-weight:normal;text-decoration:none;width:100px;fill:#000000;" y="404" x="657.2948717948718"><tspan x="657.2948717948718">Nawada</tspan></text><text transform="rotate(270 680.5512820512821 404)" text-anchor="end" style="font-family:'lucida grande', 'lucida sans unicode', verdana, arial, helvetica, sans-serif;font-size:11px;color:#000000;line-height:14px;font:normal 11px arial;font-weight:normal;text-decoration:none;width:100px;fill:#000000;" y="404" x="680.5512820512821"><tspan x="680.5512820512821">Patna</tspan></text><text transform="rotate(270 703.8076923076924 404)" text-anchor="end" style="font-family:'lucida grande', 'lucida sans unicode', verdana, arial, helvetica, sans-serif;font-size:11px;color:#000000;line-height:14px;font:normal 11px arial;font-weight:normal;text-decoration:none;width:100px;fill:#000000;" y="404" x="703.8076923076924"><tspan x="703.8076923076924">Purnia</tspan></text><text transform="rotate(270 727.0641025641025 404)" text-anchor="end" style="font-family:'lucida grande', 'lucida sans unicode', verdana, arial, helvetica, sans-serif;font-size:11px;color:#000000;line-height:14px;font:normal 11px arial;font-weight:normal;text-decoration:none;width:100px;fill:#000000;" y="404" x="727.0641025641025"><tspan x="727.0641025641025">Rohtas</tspan></text><text transform="rotate(270 750.3205128205128 404)" text-anchor="end" style="font-family:'lucida grande', 'lucida sans unicode', verdana, arial, helvetica, sans-serif;font-size:11px;color:#000000;line-height:14px;font:normal 11px arial;font-weight:normal;text-decoration:none;width:100px;fill:#000000;" y="404" x="750.3205128205128"><tspan x="750.3205128205128">Saharsa</tspan></text><text transform="rotate(270 773.5769230769231 404)" text-anchor="end" style="font-family:'lucida grande', 'lucida sans unicode', verdana, arial, helvetica, sans-serif;font-size:11px;color:#000000;line-height:14px;font:normal 11px arial;font-weight:normal;text-decoration:none;width:100px;fill:#000000;" y="404" x="773.5769230769231"><tspan x="773.5769230769231">Samastipur</tspan></text><text transform="rotate(270 796.8333333333334 404)" text-anchor="end" style="font-family:'lucida grande', 'lucida sans unicode', verdana, arial, helvetica, sans-serif;font-size:11px;color:#000000;line-height:14px;font:normal 11px arial;font-weight:normal;text-decoration:none;width:100px;fill:#000000;" y="404" x="796.8333333333334"><tspan x="796.8333333333334">Saran</tspan></text><text transform="rotate(270 820.0897435897436 404)" text-anchor="end" style="font-family:'lucida grande', 'lucida sans unicode', verdana, arial, helvetica, sans-serif;font-size:11px;color:#000000;line-height:14px;font:normal 11px arial;font-weight:normal;text-decoration:none;width:100px;fill:#000000;" y="404" x="820.0897435897436"><tspan x="820.0897435897436">Sheikhpura</tspan></text><text transform="rotate(270 843.3461538461538 404)" text-anchor="end" style="font-family:'lucida grande', 'lucida sans unicode', verdana, arial, helvetica, sans-serif;font-size:11px;color:#000000;line-height:14px;font:normal 11px arial;font-weight:normal;text-decoration:none;width:100px;fill:#000000;" y="404" x="843.3461538461538"><tspan x="843.3461538461538">Sheohar</tspan></text><text transform="rotate(270 866.6025641025641 404)" text-anchor="end" style="font-family:'lucida grande', 'lucida sans unicode', verdana, arial, helvetica, sans-serif;font-size:11px;color:#000000;line-height:14px;font:normal 11px arial;font-weight:normal;text-decoration:none;width:100px;fill:#000000;" y="404" x="866.6025641025641"><tspan x="866.6025641025641">Sitamarhi</tspan></text><text transform="rotate(270 889.8589743589744 404)" text-anchor="end" style="font-family:'lucida grande', 'lucida sans unicode', verdana, arial, helvetica, sans-serif;font-size:11px;color:#000000;line-height:14px;font:normal 11px arial;font-weight:normal;text-decoration:none;width:100px;fill:#000000;" y="404" x="889.8589743589744"><tspan x="889.8589743589744">Siwan</tspan></text><text transform="rotate(270 913.1153846153846 404)" text-anchor="end" style="font-family:'lucida grande', 'lucida sans unicode', verdana, arial, helvetica, sans-serif;font-size:11px;color:#000000;line-height:14px;font:normal 11px arial;font-weight:normal;text-decoration:none;width:100px;fill:#000000;" y="404" x="913.1153846153846"><tspan x="913.1153846153846">Supaul</tspan></text><text transform="rotate(270 936.3717948717949 404)" text-anchor="end" style="font-family:'lucida grande', 'lucida sans unicode', verdana, arial, helvetica, sans-serif;font-size:11px;color:#000000;line-height:14px;font:normal 11px arial;font-weight:normal;text-decoration:none;width:100px;fill:#000000;" y="404" x="936.3717948717949"><tspan x="936.3717948717949">Vaishali</tspan></text><path stroke-width="1" stroke="#C0D0E0" fill="none" d="M 64.5 384 L 64.5 389"></path><path stroke-width="1" stroke="#C0D0E0" fill="none" d="M 88.5 384 L 88.5 389"></path><path stroke-width="1" stroke="#C0D0E0" fill="none" d="M 111.5 384 L 111.5 389"></path><path stroke-width="1" stroke="#C0D0E0" fill="none" d="M 134.5 384 L 134.5 389"></path><path stroke-width="1" stroke="#C0D0E0" fill="none" d="M 157.5 384 L 157.5 389"></path><path stroke-width="1" stroke="#C0D0E0" fill="none" d="M 181.5 384 L 181.5 389"></path><path stroke-width="1" stroke="#C0D0E0" fill="none" d="M 204.5 384 L 204.5 389"></path><path stroke-width="1" stroke="#C0D0E0" fill="none" d="M 227.5 384 L 227.5 389"></path><path stroke-width="1" stroke="#C0D0E0" fill="none" d="M 250.5 384 L 250.5 389"></path><path stroke-width="1" stroke="#C0D0E0" fill="none" d="M 274.5 384 L 274.5 389"></path><path stroke-width="1" stroke="#C0D0E0" fill="none" d="M 297.5 384 L 297.5 389"></path><path stroke-width="1" stroke="#C0D0E0" fill="none" d="M 320.5 384 L 320.5 389"></path><path stroke-width="1" stroke="#C0D0E0" fill="none" d="M 343.5 384 L 343.5 389"></path><path stroke-width="1" stroke="#C0D0E0" fill="none" d="M 367.5 384 L 367.5 389"></path><path stroke-width="1" stroke="#C0D0E0" fill="none" d="M 390.5 384 L 390.5 389"></path><path stroke-width="1" stroke="#C0D0E0" fill="none" d="M 413.5 384 L 413.5 389"></path><path stroke-width="1" stroke="#C0D0E0" fill="none" d="M 436.5 384 L 436.5 389"></path><path stroke-width="1" stroke="#C0D0E0" fill="none" d="M 460.5 384 L 460.5 389"></path><path stroke-width="1" stroke="#C0D0E0" fill="none" d="M 483.5 384 L 483.5 389"></path><path stroke-width="1" stroke="#C0D0E0" fill="none" d="M 506.5 384 L 506.5 389"></path><path stroke-width="1" stroke="#C0D0E0" fill="none" d="M 529.5 384 L 529.5 389"></path><path stroke-width="1" stroke="#C0D0E0" fill="none" d="M 553.5 384 L 553.5 389"></path><path stroke-width="1" stroke="#C0D0E0" fill="none" d="M 576.5 384 L 576.5 389"></path><path stroke-width="1" stroke="#C0D0E0" fill="none" d="M 599.5 384 L 599.5 389"></path><path stroke-width="1" stroke="#C0D0E0" fill="none" d="M 622.5 384 L 622.5 389"></path><path stroke-width="1" stroke="#C0D0E0" fill="none" d="M 646.5 384 L 646.5 389"></path><path stroke-width="1" stroke="#C0D0E0" fill="none" d="M 669.5 384 L 669.5 389"></path><path stroke-width="1" stroke="#C0D0E0" fill="none" d="M 692.5 384 L 692.5 389"></path><path stroke-width="1" stroke="#C0D0E0" fill="none" d="M 715.5 384 L 715.5 389"></path><path stroke-width="1" stroke="#C0D0E0" fill="none" d="M 739.5 384 L 739.5 389"></path><path stroke-width="1" stroke="#C0D0E0" fill="none" d="M 762.5 384 L 762.5 389"></path><path stroke-width="1" stroke="#C0D0E0" fill="none" d="M 785.5 384 L 785.5 389"></path><path stroke-width="1" stroke="#C0D0E0" fill="none" d="M 808.5 384 L 808.5 389"></path><path stroke-width="1" stroke="#C0D0E0" fill="none" d="M 832.5 384 L 832.5 389"></path><path stroke-width="1" stroke="#C0D0E0" fill="none" d="M 855.5 384 L 855.5 389"></path><path stroke-width="1" stroke="#C0D0E0" fill="none" d="M 878.5 384 L 878.5 389"></path><path stroke-width="1" stroke="#C0D0E0" fill="none" d="M 901.5 384 L 901.5 389"></path><path stroke-width="1" stroke="#C0D0E0" fill="none" d="M 925.5 384 L 925.5 389"></path><path stroke-width="1" stroke="#C0D0E0" fill="none" d="M 948.5 384 L 948.5 389"></path></g><g  class="highcharts-axis"><text text-anchor="end" style="font-family:'lucida grande', 'lucida sans unicode', verdana, arial, helvetica, sans-serif;font-size:11px;width:100px;color:#000000;line-height:14px;font:normal 11px arial;font-weight:normal;text-decoration:none;fill:#000000;" y="389" x="31"><tspan x="31">0</tspan></text><text text-anchor="end" style="font-family:'lucida grande', 'lucida sans unicode', verdana, arial, helvetica, sans-serif;font-size:11px;width:100px;color:#000000;line-height:14px;font:normal 11px arial;font-weight:normal;text-decoration:none;fill:#000000;" y="320.2" x="31"><tspan x="31">20</tspan></text><text text-anchor="end" style="font-family:'lucida grande', 'lucida sans unicode', verdana, arial, helvetica, sans-serif;font-size:11px;width:100px;color:#000000;line-height:14px;font:normal 11px arial;font-weight:normal;text-decoration:none;fill:#000000;" y="251.39999999999998" x="31"><tspan x="31">40</tspan></text><text text-anchor="end" style="font-family:'lucida grande', 'lucida sans unicode', verdana, arial, helvetica, sans-serif;font-size:11px;width:100px;color:#000000;line-height:14px;font:normal 11px arial;font-weight:normal;text-decoration:none;fill:#000000;" y="182.60000000000002" x="31"><tspan x="31">60</tspan></text><text text-anchor="end" style="font-family:'lucida grande', 'lucida sans unicode', verdana, arial, helvetica, sans-serif;font-size:11px;width:100px;color:#000000;line-height:14px;font:normal 11px arial;font-weight:normal;text-decoration:none;fill:#000000;" y="113.80000000000001" x="31"><tspan x="31">80</tspan></text><text text-anchor="end" style="font-family:'lucida grande', 'lucida sans unicode', verdana, arial, helvetica, sans-serif;font-size:11px;width:100px;color:#000000;line-height:14px;font:normal 11px arial;font-weight:normal;text-decoration:none;fill:#000000;" y="45" x="31"><tspan x="31">100</tspan></text></g><path  stroke-width="1" stroke="#C0D0E0" fill="none" d="M 41 384.5 L 948 384.5"></path><path  stroke-width="1" stroke="#C0D0E0" fill="none" d="M 41.5 40 L 41.5 384"></path><g visibility="hidden"  class="highcharts-tooltip"><rect transform="translate(1,1)" stroke-opacity="0.05" stroke="rgb(0, 0, 0)"  fill-opacity="0.85" stroke-width="5" height="0" width="0" y="7" x="7" fill="none" ry="5" rx="5"></rect><rect transform="translate(1,1)" stroke-opacity="0.1" stroke="rgb(0, 0, 0)"  fill-opacity="0.85" stroke-width="3" height="0" width="0" y="7" x="7" fill="none" ry="5" rx="5"></rect><rect transform="translate(1,1)" stroke-opacity="0.15000000000000002" stroke="rgb(0, 0, 0)"  fill-opacity="0.85" stroke-width="1" height="0" width="0" y="7" x="7" fill="none" ry="5" rx="5"></rect><rect fill-opacity="0.85" stroke-width="2" height="0" width="0" y="7" x="7" fill="rgb(255,255,255)" ry="5" rx="5"></rect><text  style="font-family:'lucida grande', 'lucida sans unicode', verdana, arial, helvetica, sans-serif;font-size:12px;color:#333333;padding:0;white-space:nowrap;width:500px;fill:#333333;" y="24" x="12"><tspan x="12"> </tspan></text></g><text  text-anchor="end" style="font-family:'lucida grande', 'lucida sans unicode', verdana, arial, helvetica, sans-serif;font-size:10px;cursor:pointer;color:#909090;fill:#909090;" y="495" x="948"><tspan x="948"> </tspan></text><g transform="translate(41,40)"  class="highcharts-tracker"><path style=""  visibility="visible" stroke-width="22" stroke="rgb(192,192,192)" stroke-opacity="0.000001"  fill="none" d="M 1.6282051282051277 134.16 L 11.628205128205128 134.16 L 34.88461538461539 113.52000000000001 L 58.141025641025635 134.16 L 81.3974358974359 209.84 L 104.65384615384615 113.52000000000001 L 127.91025641025641 144.48 L 151.16666666666666 48.160000000000025 L 174.4230769230769 96.32 L 197.67948717948718 48.160000000000025 L 220.93589743589743 96.32 L 244.19230769230768 134.16 L 267.44871794871796 161.68 L 290.7051282051282 113.52000000000001 L 313.96153846153845 134.16 L 337.21794871794873 192.64000000000001 L 360.47435897435895 96.32 L 383.7307692307692 96.32 L 406.98717948717945 192.64000000000001 L 430.2435897435897 247.68 L 453.5 37.84000000000003 L 476.7564102564102 20.639999999999986 L 500.0128205128205 247.68 L 523.2692307692307 113.52000000000001 L 546.525641025641 134.16 L 569.7820512820513 209.84 L 593.0384615384615 20.639999999999986 L 616.2948717948718 230.48000000000002 L 639.551282051282 230.48000000000002 L 662.8076923076923 96.32 L 686.0641025641025 96.32 L 709.3205128205128 96.32 L 732.5769230769231 113.52000000000001 L 755.8333333333333 134.16 L 779.0897435897435 323.36 L 802.3461538461538 151.36 L 825.6025641025641 230.48000000000002 L 848.8589743589744 37.84000000000003 L 872.1153846153845 96.32 L 895.3717948717948 86 L 905.3717948717948 86"></path></g></svg>