<svg xmlns:xlink="http://www.w3.org/1999/xlink" xmlns="http://www.w3.org/2000/svg" version="1.1" width="958" height="500" style="direction: ltr;"><defs></defs><rect rx="5" ry="5" fill="#ffffff" x="0" y="0" width="958" height="500" stroke-width="0.000001" stroke="#d3d3d3"></rect><rect rx="0" ry="0" fill="#ffffff" x="10" y="40" width="843" height="430" stroke-width="0.000001"></rect><rect rx="5" ry="5" fill="none" x="-5" y="-5" width="10" height="10" stroke-width="0.000001" border="0"></rect><text x="479" y="25" style="font-family:'lucida grande', 'lucida sans unicode', verdana, arial, helvetica, sans-serif;font-size:16px;color:#000000;font:normal 15px arial;font-weight:normal;text-decoration:none;width:600px;fill:#000000;" text-anchor="middle" class="highcharts-title" ><tspan x="479">C1 : Buildings - Percent, 2014.07</tspan></text><g class="highcharts-series-group" ></g><path d="M 228.15134822306405 181.8134383551034 C 233.15134822306405 181.8134383551034 241.02998463726266 183.20163439776576 251.86310970678576 185.11040395642647 L 262.69623477630887 187.01917351508718" fill="none" stroke-width="1" stroke="#7F525D" visibility="visible"  transform="translate(10,40)"></path><path d="M 614.8455761144139 248.20401268114338 C 609.8455761144139 248.20401268114338 601.9670683553795 246.81508666049422 591.1341201867074 244.90531338210167 L 580.3011720180352 242.99554010370912" fill="none" stroke-width="1" stroke="#827B60" visibility="visible"  transform="translate(10,40)"></path><g class="highcharts-point"  transform="translate(10,40)"><path d="M 421.4671576959042 53.750003344548674 A 161.25 161.25 0 1 1 366.32852026977787 366.5178878033141 L 421.5 215 A 0 0 0 1 0 421.5 215 Z" fill="#827B60" stroke="#FFFFFF" stroke-width="1" stroke-linejoin="round"></path><path d="M 421.9671576959042 53.750003344548674 A 161.25 161.25 0 1 1 366.82852026977787 366.5178878033141 L 422 215 A 0 0 0 1 0 422 215 Z" fill="rgb(192,192,192)"  fill-opacity="0.000001" visibility="visible"  style="cursor:pointer;"></path></g><g class="highcharts-point"  transform="translate(10,40)"><path d="M 366.32836875191765 366.51783263175867 A 161.25 161.25 0 0 1 421.43711566456267 53.75001226182883 L 421.5 215 A 0 0 0 0 0 421.5 215 Z" fill="#7F525D" stroke="#FFFFFF" stroke-width="1" stroke-linejoin="round"></path><path d="M 366.82836875191765 366.51783263175867 A 161.25 161.25 0 0 1 421.93711566456267 53.75001226182883 L 422 215 A 0 0 0 0 0 422 215 Z" fill="rgb(192,192,192)"  fill-opacity="0.000001" visibility="visible"  style="cursor:pointer;"></path></g><text x="20" y="500" style="font-family:'lucida grande', 'lucida sans unicode', verdana, arial, helvetica, sans-serif;font-size:12px;color:#4572a7;font:normal 10px arial;font-weight:normal;text-decoration:none;fill:#4572a7;" ><tspan x="20"> </tspan></text><text x="50" y="50" style="font-family:'lucida grande', 'lucida sans unicode', verdana, arial, helvetica, sans-serif;font-size:12px;color:#4572a7;font:normal 10px arial;font-weight:normal;text-decoration:none;fill:#4572a7;" ><tspan x="50"> </tspan></text><g class="highcharts-data-labels" visibility="visible"  transform="translate(10,40)"><text x="619.8455761144139" y="253.20401268114338" style="font-family:'lucida grande', 'lucida sans unicode', verdana, arial, helvetica, sans-serif;font-size:11px;color:#000000;line-height:14px;font:normal 10px arial;font-weight:normal;text-decoration:none;width:150px;fill:#000000;" text-anchor="start"  visibility="visible"><tspan x="619.8455761144139">Bhagalpur:75</tspan></text><text x="223.15134822306405" y="186.8134383551034" style="font-family:'lucida grande', 'lucida sans unicode', verdana, arial, helvetica, sans-serif;font-size:11px;color:#000000;line-height:14px;font:normal 10px arial;font-weight:normal;text-decoration:none;width:150px;fill:#000000;" text-anchor="end"  visibility="visible"><tspan x="223.15134822306405">DVS:60</tspan></text></g><g class="highcharts-legend"  transform="translate(863,35)"><rect rx="5" ry="5" fill="#ffffff" x="0" y="0" width="85" height="34" stroke-width="0.000001" stroke="#909090" visibility="visible"></rect><text x="24" y="18" style="font-family:'lucida grande', 'lucida sans unicode', verdana, arial, helvetica, sans-serif;font-size:12px;cursor:pointer;color:#3c414d;font:normal 11px arial;font-weight:bold;text-decoration:none;width:150px;fill:#3c414d;" ><tspan x="24">Bhagalpur</tspan></text><text x="24" y="30" style="font-family:'lucida grande', 'lucida sans unicode', verdana, arial, helvetica, sans-serif;font-size:12px;cursor:pointer;color:#3c414d;font:normal 11px arial;font-weight:bold;text-decoration:none;width:150px;fill:#3c414d;" ><tspan x="24">DVS</tspan></text><rect rx="2" ry="2" fill="#827B60" x="9.5" y="7.5" width="10" height="12" stroke-width="1"  stroke="#FFFFFF"></rect><rect rx="2" ry="2" fill="#7F525D" x="9.5" y="19.5" width="10" height="12" stroke-width="1"  stroke="#FFFFFF"></rect></g><g class="highcharts-tooltip"  visibility="hidden"><rect rx="5" ry="5" fill="none" x="7" y="7" width="0" height="0" stroke-width="5" fill-opacity="0.85"  stroke="rgb(0, 0, 0)" stroke-opacity="0.05" transform="translate(1,1)"></rect><rect rx="5" ry="5" fill="none" x="7" y="7" width="0" height="0" stroke-width="3" fill-opacity="0.85"  stroke="rgb(0, 0, 0)" stroke-opacity="0.1" transform="translate(1,1)"></rect><rect rx="5" ry="5" fill="none" x="7" y="7" width="0" height="0" stroke-width="1" fill-opacity="0.85"  stroke="rgb(0, 0, 0)" stroke-opacity="0.15000000000000002" transform="translate(1,1)"></rect><rect rx="5" ry="5" fill="rgb(255,255,255)" x="7" y="7" width="0" height="0" stroke-width="2" fill-opacity="0.85"></rect><text x="12" y="24" style="font-family:'lucida grande', 'lucida sans unicode', verdana, arial, helvetica, sans-serif;font-size:12px;color:#333333;padding:0;white-space:nowrap;width:600px;fill:#333333;" ><tspan x="12"> </tspan></text></g><text x="948" y="495" style="font-family:'lucida grande', 'lucida sans unicode', verdana, arial, helvetica, sans-serif;font-size:10px;cursor:pointer;color:#909090;fill:#909090;" text-anchor="end" ><tspan x="948"> </tspan></text><g class="highcharts-tracker"  transform="translate(10,40)"></g></svg>