<svg xmlns:xlink="http://www.w3.org/1999/xlink" xmlns="http://www.w3.org/2000/svg" version="1.1" width="958" height="500" style="direction: ltr;"><defs><clipPath id="highcharts-13"><rect rx="0" ry="0" fill="none" x="0" y="0" width="916" height="418" stroke-width="0.000001"></rect></clipPath></defs><rect rx="5" ry="5" fill="#ffffff" x="0" y="0" width="958" height="500" stroke-width="0.000001" stroke="#d3d3d3"></rect><rect rx="0" ry="0" fill="#ffffff" x="32" y="40" width="916" height="418" stroke-width="0.000001"></rect><rect rx="5" ry="5" fill="none" x="-5" y="-5" width="10" height="10" stroke-width="0.000001" border="0"></rect><text x="479" y="25" style="font-family:'lucida grande', 'lucida sans unicode', verdana, arial, helvetica, sans-serif;font-size:16px;color:#000000;font:normal 15px arial;font-weight:normal;text-decoration:none;width:600px;fill:#000000;" text-anchor="middle" class="highcharts-title" ><tspan x="479">E0 : Overall score - Percent, 2014.12</tspan></text><g class="highcharts-grid" ><path d="M 261.5 40 L 261.5 458" fill="none" stroke="#C0C0C0" stroke-width="1" stroke-dasharray="none" ></path><path d="M 490.5 40 L 490.5 458" fill="none" stroke="#C0C0C0" stroke-width="1" stroke-dasharray="none" ></path><path d="M 719.5 40 L 719.5 458" fill="none" stroke="#C0C0C0" stroke-width="1" stroke-dasharray="none" ></path><path d="M 948.5 40 L 948.5 458" fill="none" stroke="#C0C0C0" stroke-width="1" stroke-dasharray="none" ></path></g><g class="highcharts-grid" ><path d="M 32 458.5 L 948 458.5" fill="none" stroke="#E0E0E0" stroke-width="1" stroke-dasharray="none"></path><path d="M 32 446.5 L 948 446.5" fill="none" stroke="#E0E0E0" stroke-width="1" stroke-dasharray="none"></path><path d="M 32 434.5 L 948 434.5" fill="none" stroke="#E0E0E0" stroke-width="1" stroke-dasharray="none"></path><path d="M 32 422.5 L 948 422.5" fill="none" stroke="#E0E0E0" stroke-width="1" stroke-dasharray="none"></path><path d="M 32 410.5 L 948 410.5" fill="none" stroke="#E0E0E0" stroke-width="1" stroke-dasharray="none"></path><path d="M 32 398.5 L 948 398.5" fill="none" stroke="#E0E0E0" stroke-width="1" stroke-dasharray="none"></path><path d="M 32 386.5 L 948 386.5" fill="none" stroke="#E0E0E0" stroke-width="1" stroke-dasharray="none"></path><path d="M 32 374.5 L 948 374.5" fill="none" stroke="#E0E0E0" stroke-width="1" stroke-dasharray="none"></path><path d="M 32 362.5 L 948 362.5" fill="none" stroke="#E0E0E0" stroke-width="1" stroke-dasharray="none"></path><path d="M 32 351.5 L 948 351.5" fill="none" stroke="#E0E0E0" stroke-width="1" stroke-dasharray="none"></path><path d="M 32 339.5 L 948 339.5" fill="none" stroke="#E0E0E0" stroke-width="1" stroke-dasharray="none"></path><path d="M 32 327.5 L 948 327.5" fill="none" stroke="#E0E0E0" stroke-width="1" stroke-dasharray="none"></path><path d="M 32 315.5 L 948 315.5" fill="none" stroke="#E0E0E0" stroke-width="1" stroke-dasharray="none"></path><path d="M 32 303.5 L 948 303.5" fill="none" stroke="#E0E0E0" stroke-width="1" stroke-dasharray="none"></path><path d="M 32 291.5 L 948 291.5" fill="none" stroke="#E0E0E0" stroke-width="1" stroke-dasharray="none"></path><path d="M 32 279.5 L 948 279.5" fill="none" stroke="#E0E0E0" stroke-width="1" stroke-dasharray="none"></path><path d="M 32 267.5 L 948 267.5" fill="none" stroke="#E0E0E0" stroke-width="1" stroke-dasharray="none"></path><path d="M 32 255.5 L 948 255.5" fill="none" stroke="#E0E0E0" stroke-width="1" stroke-dasharray="none"></path><path d="M 32 243.5 L 948 243.5" fill="none" stroke="#E0E0E0" stroke-width="1" stroke-dasharray="none"></path><path d="M 32 231.5 L 948 231.5" fill="none" stroke="#E0E0E0" stroke-width="1" stroke-dasharray="none"></path><path d="M 32 219.5 L 948 219.5" fill="none" stroke="#E0E0E0" stroke-width="1" stroke-dasharray="none"></path><path d="M 32 207.5 L 948 207.5" fill="none" stroke="#E0E0E0" stroke-width="1" stroke-dasharray="none"></path><path d="M 32 195.5 L 948 195.5" fill="none" stroke="#E0E0E0" stroke-width="1" stroke-dasharray="none"></path><path d="M 32 183.5 L 948 183.5" fill="none" stroke="#E0E0E0" stroke-width="1" stroke-dasharray="none"></path><path d="M 32 171.5 L 948 171.5" fill="none" stroke="#E0E0E0" stroke-width="1" stroke-dasharray="none"></path><path d="M 32 159.5 L 948 159.5" fill="none" stroke="#E0E0E0" stroke-width="1" stroke-dasharray="none"></path><path d="M 32 147.5 L 948 147.5" fill="none" stroke="#E0E0E0" stroke-width="1" stroke-dasharray="none"></path><path d="M 32 136.5 L 948 136.5" fill="none" stroke="#E0E0E0" stroke-width="1" stroke-dasharray="none"></path><path d="M 32 124.5 L 948 124.5" fill="none" stroke="#E0E0E0" stroke-width="1" stroke-dasharray="none"></path><path d="M 32 112.5 L 948 112.5" fill="none" stroke="#E0E0E0" stroke-width="1" stroke-dasharray="none"></path><path d="M 32 100.5 L 948 100.5" fill="none" stroke="#E0E0E0" stroke-width="1" stroke-dasharray="none"></path><path d="M 32 88.5 L 948 88.5" fill="none" stroke="#E0E0E0" stroke-width="1" stroke-dasharray="none"></path><path d="M 32 76.5 L 948 76.5" fill="none" stroke="#E0E0E0" stroke-width="1" stroke-dasharray="none"></path><path d="M 32 64.5 L 948 64.5" fill="none" stroke="#E0E0E0" stroke-width="1" stroke-dasharray="none"></path><path d="M 32 52.5 L 948 52.5" fill="none" stroke="#E0E0E0" stroke-width="1" stroke-dasharray="none"></path><path d="M 32 40.5 L 948 40.5" fill="none" stroke="#E0E0E0" stroke-width="1" stroke-dasharray="none"></path><path d="M 32 458.5 L 948 458.5" fill="none" stroke="#C0C0C0" stroke-width="1" stroke-dasharray="none" ></path><path d="M 32 398.5 L 948 398.5" fill="none" stroke="#C0C0C0" stroke-width="1" stroke-dasharray="none" ></path><path d="M 32 339.5 L 948 339.5" fill="none" stroke="#C0C0C0" stroke-width="1" stroke-dasharray="none" ></path><path d="M 32 279.5 L 948 279.5" fill="none" stroke="#C0C0C0" stroke-width="1" stroke-dasharray="none" ></path><path d="M 32 219.5 L 948 219.5" fill="none" stroke="#C0C0C0" stroke-width="1" stroke-dasharray="none" ></path><path d="M 32 159.5 L 948 159.5" fill="none" stroke="#C0C0C0" stroke-width="1" stroke-dasharray="none" ></path><path d="M 32 100.5 L 948 100.5" fill="none" stroke="#C0C0C0" stroke-width="1" stroke-dasharray="none" ></path><path d="M 32 40.5 L 948 40.5" fill="none" stroke="#C0C0C0" stroke-width="1" stroke-dasharray="none" ></path></g><g class="highcharts-series-group" ><g class="highcharts-series" clip-path="url(#highcharts-13)" visibility="visible" transform="translate(32,40)"><path d="M 114.5 23.8857142857143 L 343.5 59.71428571428572 L 572.5 226.9142857142857 L 801.5 23.8857142857143 L 801.5 418 L 114.5 418" fill="rgb(130,123,96)" fill-opacity="0.75"></path><path d="M 114.5 23.8857142857143 L 343.5 59.71428571428572 L 572.5 226.9142857142857 L 801.5 23.8857142857143" fill="none" stroke="#827B60" stroke-width="2"></path><circle cx="801.5" cy="23.8857142857143" r="4" stroke="#FFFFFF" stroke-width="0.000001" fill="#827B60"></circle><circle cx="572.5" cy="226.9142857142857" r="4" stroke="#FFFFFF" stroke-width="0.000001" fill="#827B60"></circle><circle cx="343.5" cy="59.71428571428572" r="4" stroke="#FFFFFF" stroke-width="0.000001" fill="#827B60"></circle><circle cx="114.5" cy="23.8857142857143" r="4" stroke="#FFFFFF" stroke-width="0.000001" fill="#827B60"></circle></g></g><text x="20" y="500" style="font-family:'lucida grande', 'lucida sans unicode', verdana, arial, helvetica, sans-serif;font-size:12px;color:#4572a7;font:normal 10px arial;font-weight:normal;text-decoration:none;fill:#4572a7;" ><tspan x="20"> </tspan></text><text x="50" y="50" style="font-family:'lucida grande', 'lucida sans unicode', verdana, arial, helvetica, sans-serif;font-size:12px;color:#4572a7;font:normal 10px arial;font-weight:normal;text-decoration:none;fill:#4572a7;" ><tspan x="50"> </tspan></text><g class="highcharts-axis" ><text x="146.5" y="478" style="font-family:'lucida grande', 'lucida sans unicode', verdana, arial, helvetica, sans-serif;font-size:11px;color:#030000;line-height:14px;font:normal 11px arial;font-weight:normal;text-decoration:none;width:100px;fill:#030000;" text-anchor="middle" transform="rotate(360 146.5 478)"><tspan x="146.5">DVS</tspan></text><text x="375.5" y="478" style="font-family:'lucida grande', 'lucida sans unicode', verdana, arial, helvetica, sans-serif;font-size:11px;color:#030000;line-height:14px;font:normal 11px arial;font-weight:normal;text-decoration:none;width:100px;fill:#030000;" text-anchor="middle" transform="rotate(360 375.5 478)"><tspan x="375.5">Health Facility</tspan></text><text x="604.5" y="478" style="font-family:'lucida grande', 'lucida sans unicode', verdana, arial, helvetica, sans-serif;font-size:11px;color:#030000;line-height:14px;font:normal 11px arial;font-weight:normal;text-decoration:none;width:100px;fill:#030000;" text-anchor="middle" transform="rotate(360 604.5 478)"><tspan x="604.5">RVS</tspan></text><text x="833.5" y="478" style="font-family:'lucida grande', 'lucida sans unicode', verdana, arial, helvetica, sans-serif;font-size:11px;color:#030000;line-height:14px;font:normal 11px arial;font-weight:normal;text-decoration:none;width:100px;fill:#030000;" text-anchor="middle" transform="rotate(360 833.5 478)"><tspan x="833.5">SVS</tspan></text><path d="M 261.5 458 L 261.5 463" fill="none" stroke="#C0D0E0" stroke-width="1"></path><path d="M 490.5 458 L 490.5 463" fill="none" stroke="#C0D0E0" stroke-width="1"></path><path d="M 719.5 458 L 719.5 463" fill="none" stroke="#C0D0E0" stroke-width="1"></path><path d="M 948.5 458 L 948.5 463" fill="none" stroke="#C0D0E0" stroke-width="1"></path></g><g class="highcharts-axis" ><text x="22" y="463" style="font-family:'lucida grande', 'lucida sans unicode', verdana, arial, helvetica, sans-serif;font-size:11px;width:100px;color:#000000;line-height:14px;font:normal 11px arial;font-weight:normal;text-decoration:none;fill:#000000;" text-anchor="end"><tspan x="22">0</tspan></text><text x="22" y="403.2857142857143" style="font-family:'lucida grande', 'lucida sans unicode', verdana, arial, helvetica, sans-serif;font-size:11px;width:100px;color:#000000;line-height:14px;font:normal 11px arial;font-weight:normal;text-decoration:none;fill:#000000;" text-anchor="end"><tspan x="22">10</tspan></text><text x="22" y="343.57142857142856" style="font-family:'lucida grande', 'lucida sans unicode', verdana, arial, helvetica, sans-serif;font-size:11px;width:100px;color:#000000;line-height:14px;font:normal 11px arial;font-weight:normal;text-decoration:none;fill:#000000;" text-anchor="end"><tspan x="22">20</tspan></text><text x="22" y="283.8571428571429" style="font-family:'lucida grande', 'lucida sans unicode', verdana, arial, helvetica, sans-serif;font-size:11px;width:100px;color:#000000;line-height:14px;font:normal 11px arial;font-weight:normal;text-decoration:none;fill:#000000;" text-anchor="end"><tspan x="22">30</tspan></text><text x="22" y="224.1428571428571" style="font-family:'lucida grande', 'lucida sans unicode', verdana, arial, helvetica, sans-serif;font-size:11px;width:100px;color:#000000;line-height:14px;font:normal 11px arial;font-weight:normal;text-decoration:none;fill:#000000;" text-anchor="end"><tspan x="22">40</tspan></text><text x="22" y="164.42857142857144" style="font-family:'lucida grande', 'lucida sans unicode', verdana, arial, helvetica, sans-serif;font-size:11px;width:100px;color:#000000;line-height:14px;font:normal 11px arial;font-weight:normal;text-decoration:none;fill:#000000;" text-anchor="end"><tspan x="22">50</tspan></text><text x="22" y="104.71428571428571" style="font-family:'lucida grande', 'lucida sans unicode', verdana, arial, helvetica, sans-serif;font-size:11px;width:100px;color:#000000;line-height:14px;font:normal 11px arial;font-weight:normal;text-decoration:none;fill:#000000;" text-anchor="end"><tspan x="22">60</tspan></text><text x="22" y="44.999999999999986" style="font-family:'lucida grande', 'lucida sans unicode', verdana, arial, helvetica, sans-serif;font-size:11px;width:100px;color:#000000;line-height:14px;font:normal 11px arial;font-weight:normal;text-decoration:none;fill:#000000;" text-anchor="end"><tspan x="22">70</tspan></text></g><path d="M 32 458.5 L 948 458.5" fill="none" stroke="#C0D0E0" stroke-width="1" ></path><path d="M 32.5 40 L 32.5 458" fill="none" stroke="#C0D0E0" stroke-width="1" ></path><g class="highcharts-tooltip"  visibility="hidden"><rect rx="5" ry="5" fill="none" x="7" y="7" width="0" height="0" stroke-width="5" fill-opacity="0.85"  stroke="rgb(0, 0, 0)" stroke-opacity="0.05" transform="translate(1,1)"></rect><rect rx="5" ry="5" fill="none" x="7" y="7" width="0" height="0" stroke-width="3" fill-opacity="0.85"  stroke="rgb(0, 0, 0)" stroke-opacity="0.1" transform="translate(1,1)"></rect><rect rx="5" ry="5" fill="none" x="7" y="7" width="0" height="0" stroke-width="1" fill-opacity="0.85"  stroke="rgb(0, 0, 0)" stroke-opacity="0.15000000000000002" transform="translate(1,1)"></rect><rect rx="5" ry="5" fill="rgb(255,255,255)" x="7" y="7" width="0" height="0" stroke-width="2" fill-opacity="0.85"></rect><text x="12" y="24" style="font-family:'lucida grande', 'lucida sans unicode', verdana, arial, helvetica, sans-serif;font-size:12px;color:#333333;padding:0;white-space:nowrap;width:500px;fill:#333333;" ><tspan x="12"> </tspan></text></g><text x="948" y="495" style="font-family:'lucida grande', 'lucida sans unicode', verdana, arial, helvetica, sans-serif;font-size:10px;cursor:pointer;color:#909090;fill:#909090;" text-anchor="end" ><tspan x="948"> </tspan></text><g class="highcharts-tracker"  transform="translate(32,40)"><path d="M 104.5 23.8857142857143 L 114.5 23.8857142857143 L 343.5 59.71428571428572 L 572.5 226.9142857142857 L 801.5 23.8857142857143 L 811.5 23.8857142857143" fill="none"  stroke-opacity="0.000001" stroke="rgb(192,192,192)" stroke-width="22" visibility="visible"  style=""></path></g></svg>